999
dxflib 3.3.4.0
  0
SECTION
  2
HEADER
  9
$ACADVER
  1
AC1015
  9
$HANDSEED
  5
FFFF
  9
$DIMADEC
 70
0
  9
$DIMASZ
 40
2.5
  9
$DIMAUNIT
 70
0
  9
$DIMAZIN
 70
2
  9
$DIMDEC
 70
4
  9
$DIMEXE
 40
1.25
  9
$DIMEXO
 40
0.625
  9
$DIMGAP
 40
0.625
  9
$DIMLUNIT
 70
2
  9
$DIMSCALE
 40
1.0
  9
$DIMTSZ
 40
0.0
  9
$DIMTXT
 40
2.5
  9
$DIMZIN
 70
8
  9
$DWGCODEPAGE
  3
ANSI_1252
  9
$INSUNITS
 70
1
  9
$LTSCALE
 40
1.0
  9
$PDMODE
 70
0.0
  9
$PDSIZE
 40
0.0
  0
ENDSEC
  0
SECTION
  2
TABLES
  0
TABLE
  2
VPORT
  5
8
100
AcDbSymbolTable
 70
1
  0
VPORT
  5
30
100
AcDbSymbolTableRecord
100
AcDbViewportTableRecord
  2
*Active
 70
0
 10
0.0
 20
0.0
 11
1.0
 21
1.0
 12
286.30555555555549
 22
148.5
 13
0.0
 23
0.0
 14
10.0
 24
10.0
 15
10.0
 25
10.0
 16
0.0
 26
0.0
 36
1.0
 17
0.0
 27
0.0
 37
0.0
 40
297.0
 41
1.92798353909465
 42
50.0
 43
0.0
 44
0.0
 50
0.0
 51
0.0
 71
0
 72
100
 73
1
 74
3
 75
1
 76
1
 77
0
 78
0
281
0
 65
1
110
0.0
120
0.0
130
0.0
111
1.0
121
0.0
131
0.0
112
0.0
122
1.0
132
0.0
 79
0
146
0.0
  0
ENDTAB
  0
TABLE
  2
LTYPE
  5
5
100
AcDbSymbolTable
 70
21
  0
LTYPE
  5
16
100
AcDbSymbolTableRecord
100
AcDbLinetypeTableRecord
  2
CONTINUOUS
 70
0
  3
Solid line
 72
65
 73
0
 40
0.0
  0
LTYPE
  5
31
100
AcDbSymbolTableRecord
100
AcDbLinetypeTableRecord
  2
CENTER2
 70
0
  3
Center (.5x) ___ _ ___ _ ___ _ ___ _ ___ _ ___
 72
65
 73
4
 40
28.574999999999999
 49
19.050000000000001
 74
0
 49
-3.1749999999999998
 74
0
 49
3.1749999999999998
 74
0
 49
-3.1749999999999998
 74
0
  0
LTYPE
  5
32
100
AcDbSymbolTableRecord
100
AcDbLinetypeTableRecord
  2
DIVIDEX2
 70
0
  3
Divide (2x) ________  .  .  ________  .  .  _
 72
65
 73
6
 40
63.5
 49
25.399999999999999
 74
0
 49
-12.699999999999999
 74
0
 49
0.0
 74
0
 49
-12.699999999999999
 74
0
 49
0.0
 74
0
 49
-12.699999999999999
 74
0
  0
LTYPE
  5
33
100
AcDbSymbolTableRecord
100
AcDbLinetypeTableRecord
  2
DOT2
 70
0
  3
Dot (.5x) .....................................
 72
65
 73
2
 40
3.1749999999999998
 49
0.0
 74
0
 49
-3.1749999999999998
 74
0
  0
LTYPE
  5
34
100
AcDbSymbolTableRecord
100
AcDbLinetypeTableRecord
  2
DASHDOT2
 70
0
  3
Dash dot (.5x) _._._._._._._._._._._._._._._.
 72
65
 73
4
 40
12.699999999999999
 49
6.3499999999999996
 74
0
 49
-3.1749999999999998
 74
0
 49
0.0
 74
0
 49
-3.1749999999999998
 74
0
  0
LTYPE
  5
35
100
AcDbSymbolTableRecord
100
AcDbLinetypeTableRecord
  2
DIVIDE
 70
0
  3
Divide ____ . . ____ . . ____ . . ____ . . ____
 72
65
 73
6
 40
31.75
 49
12.699999999999999
 74
0
 49
-6.3499999999999996
 74
0
 49
0.0
 74
0
 49
-6.3499999999999996
 74
0
 49
0.0
 74
0
 49
-6.3499999999999996
 74
0
  0
LTYPE
  5
36
100
AcDbSymbolTableRecord
100
AcDbLinetypeTableRecord
  2
DASHDOT
 70
0
  3
Dash dot __ . __ . __ . __ . __ . __ . __ . __
 72
65
 73
4
 40
25.399999999999999
 49
12.699999999999999
 74
0
 49
-6.3499999999999996
 74
0
 49
0.0
 74
0
 49
-6.3499999999999996
 74
0
  0
LTYPE
  5
37
100
AcDbSymbolTableRecord
100
AcDbLinetypeTableRecord
  2
BORDER
 70
0
  3
Border __ __ . __ __ . __ __ . __ __ . __ __ .
 72
65
 73
6
 40
44.450000000000003
 49
12.699999999999999
 74
0
 49
-6.3499999999999996
 74
0
 49
12.699999999999999
 74
0
 49
-6.3499999999999996
 74
0
 49
0.0
 74
0
 49
-6.3499999999999996
 74
0
  0
LTYPE
  5
38
100
AcDbSymbolTableRecord
100
AcDbLinetypeTableRecord
  2
DASHDOTX2
 70
0
  3
Dash dot (2x) ____  .  ____  .  ____  .  ___
 72
65
 73
4
 40
50.799999999999997
 49
25.399999999999999
 74
0
 49
-12.699999999999999
 74
0
 49
0.0
 74
0
 49
-12.699999999999999
 74
0
  0
LTYPE
  5
39
100
AcDbSymbolTableRecord
100
AcDbLinetypeTableRecord
  2
CENTERX2
 70
0
  3
Center (2x) ________  __  ________  __  _____
 72
65
 73
4
 40
101.59999999999999
 49
63.5
 74
0
 49
-12.699999999999999
 74
0
 49
12.699999999999999
 74
0
 49
-12.699999999999999
 74
0
  0
LTYPE
  5
3A
100
AcDbSymbolTableRecord
100
AcDbLinetypeTableRecord
  2
BORDER2
 70
0
  3
Border (.5x) __.__.__.__.__.__.__.__.__.__.__.
 72
65
 73
6
 40
22.225000000000001
 49
6.3499999999999996
 74
0
 49
-3.1749999999999998
 74
0
 49
6.3499999999999996
 74
0
 49
-3.1749999999999998
 74
0
 49
0.0
 74
0
 49
-3.1749999999999998
 74
0
  0
LTYPE
  5
3B
100
AcDbSymbolTableRecord
100
AcDbLinetypeTableRecord
  2
BORDERX2
 70
0
  3
Border (2x) ____  ____  .  ____  ____  .  ___
 72
65
 73
6
 40
88.900000000000006
 49
25.399999999999999
 74
0
 49
-12.699999999999999
 74
0
 49
25.399999999999999
 74
0
 49
-12.699999999999999
 74
0
 49
0.0
 74
0
 49
-12.699999999999999
 74
0
  0
LTYPE
  5
14
100
AcDbSymbolTableRecord
100
AcDbLinetypeTableRecord
  2
BYBLOCK
 70
0
  3

 72
65
 73
0
 40
0.0
  0
LTYPE
  5
15
100
AcDbSymbolTableRecord
100
AcDbLinetypeTableRecord
  2
BYLAYER
 70
0
  3

 72
65
 73
0
 40
0.0
  0
LTYPE
  5
3C
100
AcDbSymbolTableRecord
100
AcDbLinetypeTableRecord
  2
DASHED2
 70
0
  3
Dashed (.5x) _ _ _ _ _ _ _ _ _ _ _ _ _ _ _ _ _
 72
65
 73
2
 40
9.5250000000000004
 49
6.3499999999999996
 74
0
 49
-3.1749999999999998
 74
0
  0
LTYPE
  5
3D
100
AcDbSymbolTableRecord
100
AcDbLinetypeTableRecord
  2
CENTER
 70
0
  3
Center ____ _ ____ _ ____ _ ____ _ ____ _ ____
 72
65
 73
4
 40
50.799999999999997
 49
31.75
 74
0
 49
-6.3499999999999996
 74
0
 49
6.3499999999999996
 74
0
 49
-6.3499999999999996
 74
0
  0
LTYPE
  5
3E
100
AcDbSymbolTableRecord
100
AcDbLinetypeTableRecord
  2
DIVIDE2
 70
0
  3
Divide (.5x) __..__..__..__..__..__..__..__.._
 72
65
 73
6
 40
15.875
 49
6.3499999999999996
 74
0
 49
-3.1749999999999998
 74
0
 49
0.0
 74
0
 49
-3.1749999999999998
 74
0
 49
0.0
 74
0
 49
-3.1749999999999998
 74
0
  0
LTYPE
  5
3F
100
AcDbSymbolTableRecord
100
AcDbLinetypeTableRecord
  2
DASHED
 70
0
  3
Dashed __ __ __ __ __ __ __ __ __ __ __ __ __ _
 72
65
 73
2
 40
19.050000000000001
 49
12.699999999999999
 74
0
 49
-6.3499999999999996
 74
0
  0
LTYPE
  5
40
100
AcDbSymbolTableRecord
100
AcDbLinetypeTableRecord
  2
DOTX2
 70
0
  3
Dot (2x) .  .  .  .  .  .  .  .  .  .  .  .  .
 72
65
 73
2
 40
12.699999999999999
 49
0.0
 74
0
 49
-12.699999999999999
 74
0
  0
LTYPE
  5
41
100
AcDbSymbolTableRecord
100
AcDbLinetypeTableRecord
  2
DASHEDX2
 70
0
  3
Dashed (2x) ____  ____  ____  ____  ____  ___
 72
65
 73
2
 40
38.100000000000001
 49
25.399999999999999
 74
0
 49
-12.699999999999999
 74
0
  0
LTYPE
  5
42
100
AcDbSymbolTableRecord
100
AcDbLinetypeTableRecord
  2
DOT
 70
0
  3
Dot . . . . . . . . . . . . . . . . . . . . . .
 72
65
 73
2
 40
6.3499999999999996
 49
0.0
 74
0
 49
-6.3499999999999996
 74
0
  0
ENDTAB
  0
TABLE
  2
LAYER
  5
2
100
AcDbSymbolTable
 70
16
  0
LAYER
  5
43
100
AcDbSymbolTableRecord
100
AcDbLayerTableRecord
  2
Base
 70
0
 62
7
420
0
  6
CONTINUOUS
370
0
390
F
  0
LAYER
  5
44
100
AcDbSymbolTableRecord
100
AcDbLayerTableRecord
  2
Top_Standoffs
 70
0
 62
5
420
255
  6
CONTINUOUS
370
0
390
F
  0
LAYER
  5
45
100
AcDbSymbolTableRecord
100
AcDbLayerTableRecord
  2
nextsteps
 70
1
 62
-7
420
0
  6
CONTINUOUS
370
0
390
F
  0
LAYER
  5
46
100
AcDbSymbolTableRecord
100
AcDbLayerTableRecord
  2
Arduino_Mounting_Holes
 70
0
 62
5
420
255
  6
CONTINUOUS
370
0
390
F
  0
LAYER
  5
47
100
AcDbSymbolTableRecord
100
AcDbLayerTableRecord
  2
Battery
 70
0
 62
5
420
255
  6
CONTINUOUS
370
0
390
F
  0
LAYER
  5
48
100
AcDbSymbolTableRecord
100
AcDbLayerTableRecord
  2
Speaker
 70
0
 62
5
420
255
  6
CONTINUOUS
370
0
390
F
  0
LAYER
  5
49
100
AcDbSymbolTableRecord
100
AcDbLayerTableRecord
  2
Whisker_Sensor_Mount
 70
0
 62
5
420
255
  6
CONTINUOUS
370
0
390
F
  0
LAYER
  5
4A
100
AcDbSymbolTableRecord
100
AcDbLayerTableRecord
  2
Wheels
 70
0
 62
5
420
255
  6
CONTINUOUS
370
0
390
F
  0
LAYER
  5
4B
100
AcDbSymbolTableRecord
100
AcDbLayerTableRecord
  2
Groove
 70
0
 62
5
420
255
  6
CONTINUOUS
370
0
390
F
  0
LAYER
  5
4C
100
AcDbSymbolTableRecord
100
AcDbLayerTableRecord
  2
On_Switch
 70
0
 62
5
420
255
  6
CONTINUOUS
370
0
390
F
  0
LAYER
  5
4D
100
AcDbSymbolTableRecord
100
AcDbLayerTableRecord
  2
Parts
 70
0
 62
7
420
0
  6
CONTINUOUS
370
0
390
F
  0
LAYER
  5
10
100
AcDbSymbolTableRecord
100
AcDbLayerTableRecord
  2
0
 70
0
 62
7
420
16777215
  6
CONTINUOUS
370
0
390
F
  0
LAYER
  5
4E
100
AcDbSymbolTableRecord
100
AcDbLayerTableRecord
  2
Ball_Wheel
 70
0
 62
5
420
255
  6
CONTINUOUS
370
0
390
F
  0
LAYER
  5
4F
100
AcDbSymbolTableRecord
100
AcDbLayerTableRecord
  2
paperboundary
 70
1
 62
-3
420
65280
  6
CONTINUOUS
370
25
390
F
  0
LAYER
  5
50
100
AcDbSymbolTableRecord
100
AcDbLayerTableRecord
  2
Line_Sensor
 70
0
 62
5
420
255
  6
CONTINUOUS
370
0
390
F
  0
LAYER
  5
51
100
AcDbSymbolTableRecord
100
AcDbLayerTableRecord
  2
USB_Connector
 70
0
 62
5
420
255
  6
CONTINUOUS
370
0
390
F
  0
ENDTAB
  0
TABLE
  2
STYLE
  5
3
100
AcDbSymbolTable
 70
1
  0
STYLE
  5
52
100
AcDbSymbolTableRecord
100
AcDbTextStyleTableRecord
  2
Standard
 70
0
 40
0.0
 41
1.0
 50
0.0
 71
0
 42
2.5
  3

  4

1001
ACAD
1000
txt
1071
0
  0
ENDTAB
  0
TABLE
  2
VIEW
  5
6
100
AcDbSymbolTable
 70
0
  0
ENDTAB
  0
TABLE
  2
UCS
  5
7
100
AcDbSymbolTable
 70
0
  0
ENDTAB
  0
TABLE
  2
APPID
  5
9
100
AcDbSymbolTable
 70
1
  0
APPID
  5
12
100
AcDbSymbolTableRecord
100
AcDbRegAppTableRecord
  2
ACAD
 70
0
  0
APPID
  5
53
100
AcDbSymbolTableRecord
100
AcDbRegAppTableRecord
  2
QCAD
 70
0
  0
ENDTAB
  0
TABLE
  2
DIMSTYLE
  5
A
100
AcDbSymbolTable
 70
1
100
AcDbDimStyleTable
 71
0
  0
DIMSTYLE
105
27
100
AcDbSymbolTableRecord
100
AcDbDimStyleTableRecord
  2
Standard
 41
2.5
 42
0.625
 43
3.75
 44
1.25
 70
0
 73
0
 74
0
 77
1
 78
8
140
2.5
141
2.5
143
0.03937007874016
147
0.625
171
3
172
1
271
2
272
2
274
3
278
44
283
0
284
8
340
52
  0
ENDTAB
  0
TABLE
  2
BLOCK_RECORD
  5
1
100
AcDbSymbolTable
 70
1
  0
BLOCK_RECORD
  5
1F
100
AcDbSymbolTableRecord
100
AcDbBlockTableRecord
  2
*Model_Space
340
22
  0
BLOCK_RECORD
  5
1B
100
AcDbSymbolTableRecord
100
AcDbBlockTableRecord
  2
*Paper_Space
340
1E
  0
BLOCK_RECORD
  5
23
100
AcDbSymbolTableRecord
100
AcDbBlockTableRecord
  2
*Paper_Space0
340
26
  0
BLOCK_RECORD
  5
54
100
AcDbSymbolTableRecord
100
AcDbBlockTableRecord
  2
Battery_Holder
340
0
  0
BLOCK_RECORD
  5
55
100
AcDbSymbolTableRecord
100
AcDbBlockTableRecord
  2
Arduino
340
0
  0
BLOCK_RECORD
  5
56
100
AcDbSymbolTableRecord
100
AcDbBlockTableRecord
  2
base
340
0
  0
BLOCK_RECORD
  5
57
100
AcDbSymbolTableRecord
100
AcDbBlockTableRecord
  2
Side_Piece
340
0
  0
BLOCK_RECORD
  5
58
100
AcDbSymbolTableRecord
100
AcDbBlockTableRecord
  2
Left_Wheel
340
0
  0
BLOCK_RECORD
  5
59
100
AcDbSymbolTableRecord
100
AcDbBlockTableRecord
  2
Line_Sensor_Holes
340
0
  0
BLOCK_RECORD
  5
5A
100
AcDbSymbolTableRecord
100
AcDbBlockTableRecord
  2
Speaker_Holes
340
0
  0
BLOCK_RECORD
  5
5B
100
AcDbSymbolTableRecord
100
AcDbBlockTableRecord
  2
Right_Wheel
340
0
  0
BLOCK_RECORD
  5
5C
100
AcDbSymbolTableRecord
100
AcDbBlockTableRecord
  2
End_Piece
340
0
  0
BLOCK_RECORD
  5
5D
100
AcDbSymbolTableRecord
100
AcDbBlockTableRecord
  2
USB_B_Panel_Mount
340
0
  0
BLOCK_RECORD
  5
5E
100
AcDbSymbolTableRecord
100
AcDbBlockTableRecord
  2
Whisker_Sensor
340
0
  0
BLOCK_RECORD
  5
5F
100
AcDbSymbolTableRecord
100
AcDbBlockTableRecord
  2
top
340
0
  0
BLOCK_RECORD
  5
60
100
AcDbSymbolTableRecord
100
AcDbBlockTableRecord
  2
cat
340
0
  0
ENDTAB
  0
ENDSEC
  0
SECTION
  2
BLOCKS
  0
BLOCK
  5
20
100
AcDbEntity
  8
0
100
AcDbBlockBegin
  2
*Model_Space
 70
0
 10
0.0
 20
0.0
 30
0.0
  3
*Model_Space
  1

  0
ENDBLK
  5
21
100
AcDbEntity
  8
0
100
AcDbBlockEnd
  0
BLOCK
  5
1C
100
AcDbEntity
 67
1
  8
0
100
AcDbBlockBegin
  2
*Paper_Space
 70
0
 10
0.0
 20
0.0
 30
0.0
  3
*Paper_Space
  1

  0
ENDBLK
  5
1D
100
AcDbEntity
 67
1
  8
0
100
AcDbBlockEnd
  0
BLOCK
  5
24
100
AcDbEntity
  8
0
100
AcDbBlockBegin
  2
*Paper_Space0
 70
0
 10
0.0
 20
0.0
 30
0.0
  3
*Paper_Space0
  1

  0
ENDBLK
  5
25
100
AcDbEntity
  8
0
100
AcDbBlockEnd
  0
BLOCK
  5
61
100
AcDbEntity
  8
0
100
AcDbBlockBegin
  2
Battery_Holder
 70
0
 10
0.0
 20
0.0
 30
0.0
  3
Battery_Holder
  1

  0
ARC
  5
62
100
AcDbEntity
  8
Battery
 62
256
370
-1
  6
BYLAYER
100
AcDbCircle
 10
-0.2755905511811024
 20
0.2755905511811024
 30
0.0
 40
0.1181102362204724
100
AcDbArc
 50
90.0
 51
180.0
  0
ARC
  5
63
100
AcDbEntity
  8
Battery
 62
256
370
-1
  6
BYLAYER
100
AcDbCircle
 10
0.2755905511811024
 20
0.2755905511811024
 30
0.0
 40
0.1181102362204724
100
AcDbArc
 50
0.0
 51
90.0
  0
ARC
  5
64
100
AcDbEntity
  8
Battery
 62
256
370
-1
  6
BYLAYER
100
AcDbCircle
 10
0.2755905511811024
 20
-0.2755905511811024
 30
0.0
 40
0.1181102362204724
100
AcDbArc
 50
270.0
 51
0.0
  0
ARC
  5
65
100
AcDbEntity
  8
Battery
 62
256
370
-1
  6
BYLAYER
100
AcDbCircle
 10
-0.2755905511811024
 20
-0.2755905511811024
 30
0.0
 40
0.1181102362204724
100
AcDbArc
 50
180.0
 51
270.0
  0
LINE
  5
66
100
AcDbEntity
100
AcDbLine
  8
Battery
 62
256
370
-1
  6
BYLAYER
 10
0.1968503937007874
 20
0.6299212598425197
 30
0.0
 11
0.1968503937007874
 21
0.7480314960629921
 31
0.0
  0
LINE
  5
67
100
AcDbEntity
100
AcDbLine
  8
Battery
 62
256
370
-1
  6
BYLAYER
 10
0.1968503937007874
 20
0.7480314960629921
 30
0.0
 11
-0.1968503937007874
 21
0.7480314960629921
 31
0.0
  0
LINE
  5
68
100
AcDbEntity
100
AcDbLine
  8
Battery
 62
256
370
-1
  6
BYLAYER
 10
-0.1968503937007874
 20
0.7480314960629921
 30
0.0
 11
-0.1968503937007874
 21
0.6299212598425197
 31
0.0
  0
LINE
  5
69
100
AcDbEntity
100
AcDbLine
  8
Battery
 62
256
370
-1
  6
BYLAYER
 10
-0.1968503937007874
 20
-0.7480314960629921
 30
0.0
 11
0.1968503937007874
 21
-0.7480314960629921
 31
0.0
  0
LINE
  5
6A
100
AcDbEntity
100
AcDbLine
  8
Battery
 62
256
370
-1
  6
BYLAYER
 10
0.1968503937007874
 20
-0.7480314960629921
 30
0.0
 11
0.1968503937007874
 21
-0.6299212598425197
 31
0.0
  0
LINE
  5
6B
100
AcDbEntity
100
AcDbLine
  8
Battery
 62
256
370
-1
  6
BYLAYER
 10
-0.1968503937007874
 20
-0.6299212598425197
 30
0.0
 11
-0.1968503937007874
 21
-0.7480314960629921
 31
0.0
  0
LINE
  5
6C
100
AcDbEntity
100
AcDbLine
  8
Battery
 62
256
370
-1
  6
BYLAYER
 10
-1.3779527559055118
 20
-0.1968503937007874
 30
0.0
 11
-1.2598425196850394
 21
-0.1968503937007874
 31
0.0
  0
LINE
  5
6D
100
AcDbEntity
100
AcDbLine
  8
Battery
 62
256
370
-1
  6
BYLAYER
 10
-1.2598425196850394
 20
0.1968503937007874
 30
0.0
 11
-1.3779527559055118
 21
0.1968503937007874
 31
0.0
  0
LINE
  5
6E
100
AcDbEntity
100
AcDbLine
  8
Battery
 62
256
370
-1
  6
BYLAYER
 10
-1.3779527559055118
 20
0.1968503937007874
 30
0.0
 11
-1.3779527559055118
 21
-0.1968503937007874
 31
0.0
  0
LINE
  5
6F
100
AcDbEntity
100
AcDbLine
  8
Battery
 62
256
370
-1
  6
BYLAYER
 10
1.2598425196850394
 20
-0.1968503937007874
 30
0.0
 11
1.3779527559055118
 21
-0.1968503937007874
 31
0.0
  0
LINE
  5
70
100
AcDbEntity
100
AcDbLine
  8
Battery
 62
256
370
-1
  6
BYLAYER
 10
1.3779527559055118
 20
-0.1968503937007874
 30
0.0
 11
1.3779527559055118
 21
0.1968503937007874
 31
0.0
  0
LINE
  5
71
100
AcDbEntity
100
AcDbLine
  8
Battery
 62
256
370
-1
  6
BYLAYER
 10
1.3779527559055118
 20
0.1968503937007874
 30
0.0
 11
1.2598425196850394
 21
0.1968503937007874
 31
0.0
  0
LINE
  5
72
100
AcDbEntity
100
AcDbLine
  8
Battery
 62
256
370
-1
  6
BYLAYER
 10
0.1968503937007874
 20
0.6299212598425197
 30
0.0
 11
-0.1968503937007874
 21
0.6299212598425197
 31
0.0
  0
LINE
  5
73
100
AcDbEntity
100
AcDbLine
  8
Battery
 62
256
370
-1
  6
BYLAYER
 10
0.1968503937007874
 20
-0.6299212598425197
 30
0.0
 11
-0.1968503937007874
 21
-0.6299212598425197
 31
0.0
  0
LINE
  5
74
100
AcDbEntity
100
AcDbLine
  8
Battery
 62
256
370
-1
  6
BYLAYER
 10
1.2598425196850394
 20
-0.1968503937007874
 30
0.0
 11
1.2598425196850394
 21
0.1968503937007874
 31
0.0
  0
LINE
  5
75
100
AcDbEntity
100
AcDbLine
  8
Battery
 62
256
370
-1
  6
BYLAYER
 10
-1.2598425196850394
 20
-0.1968503937007874
 30
0.0
 11
-1.2598425196850394
 21
0.1968503937007874
 31
0.0
  0
CIRCLE
  5
76
100
AcDbEntity
100
AcDbCircle
  8
Battery
 62
256
370
-1
  6
BYLAYER
 10
-0.6299212598425197
 20
0.6889763779527559
 30
0.0
 40
0.0590551181102362
  0
CIRCLE
  5
77
100
AcDbEntity
100
AcDbCircle
  8
Battery
 62
256
370
-1
  6
BYLAYER
 10
0.6299212598425197
 20
0.6889763779527559
 30
0.0
 40
0.0590551181102362
  0
CIRCLE
  5
78
100
AcDbEntity
100
AcDbCircle
  8
Battery
 62
256
370
-1
  6
BYLAYER
 10
0.6299212598425197
 20
-0.6889763779527559
 30
0.0
 40
0.0590551181102362
  0
CIRCLE
  5
79
100
AcDbEntity
100
AcDbCircle
  8
Battery
 62
256
370
-1
  6
BYLAYER
 10
-0.6299212598425197
 20
-0.6889763779527559
 30
0.0
 40
0.0590551181102362
  0
LINE
  5
7A
100
AcDbEntity
100
AcDbLine
  8
Battery
 62
256
370
-1
  6
BYLAYER
 10
-0.2755905511811024
 20
-0.3937007874015748
 30
0.0
 11
0.2755905511811024
 21
-0.3937007874015748
 31
0.0
  0
LINE
  5
7B
100
AcDbEntity
100
AcDbLine
  8
Battery
 62
256
370
-1
  6
BYLAYER
 10
0.3937007874015748
 20
-0.2755905511811024
 30
0.0
 11
0.3937007874015748
 21
0.2755905511811024
 31
0.0
  0
LINE
  5
7C
100
AcDbEntity
100
AcDbLine
  8
Battery
 62
256
370
-1
  6
BYLAYER
 10
0.2755905511811024
 20
0.3937007874015748
 30
0.0
 11
-0.2755905511811024
 21
0.3937007874015748
 31
0.0
  0
LINE
  5
7D
100
AcDbEntity
100
AcDbLine
  8
Battery
 62
256
370
-1
  6
BYLAYER
 10
-0.3937007874015748
 20
0.2755905511811024
 30
0.0
 11
-0.3937007874015748
 21
-0.2755905511811024
 31
0.0
  0
ENDBLK
  5
7E
100
AcDbEntity
  8
0
100
AcDbBlockEnd
  0
BLOCK
  5
7F
100
AcDbEntity
  8
0
100
AcDbBlockBegin
  2
Arduino
 70
0
 10
0.0
 20
0.0
 30
0.0
  3
Arduino
  1

  0
CIRCLE
  5
80
100
AcDbEntity
100
AcDbCircle
  8
Arduino_Mounting_Holes
 62
256
370
-1
  6
BYLAYER
 10
0.5499999999999998
 20
-1.9999999999999996
 30
0.0
 40
0.0625
  0
CIRCLE
  5
81
100
AcDbEntity
100
AcDbCircle
  8
Arduino_Mounting_Holes
 62
256
370
-1
  6
BYLAYER
 10
2.5999999999999996
 20
-0.6999999999999998
 30
0.0
 40
0.0625
  0
CIRCLE
  5
82
100
AcDbEntity
100
AcDbCircle
  8
Arduino_Mounting_Holes
 62
256
370
-1
  6
BYLAYER
 10
0.5999999999999999
 20
-0.1
 30
0.0
 40
0.0625
  0
ENDBLK
  5
83
100
AcDbEntity
  8
0
100
AcDbBlockEnd
  0
BLOCK
  5
84
100
AcDbEntity
  8
0
100
AcDbBlockBegin
  2
base
 70
0
 10
0.0
 20
0.0
 30
0.0
  3
base
  1

  0
LWPOLYLINE
  5
85
  8
Ball_Wheel
 62
256
370
-1
  6
BYLAYER
100
AcDbEntity
100
AcDbPolyline
 90
5
 70
1
 10
0.0075860776625865
 20
2.7834124211294791
 30
0.0
 42
-0.4142135623730951
 10
0.3077829280562874
 20
2.4832155707357773
 30
0.0
 42
-0.2891352647980174
 10
0.1366551450293221
 20
2.2125462793971957
 30
0.0
 10
-0.1214829897041492
 20
2.2125462793971957
 30
0.0
 42
-0.2891352647980174
 10
-0.2926107727311145
 20
2.4832155707357773
 30
0.0
 42
-0.4142135623730951
  0
INSERT
  5
86
100
AcDbEntity
100
AcDbBlockReference
  8
Arduino_Mounting_Holes
 62
256
370
-1
  6
BYLAYER
  2
Arduino
 10
-1.0426107727311136
 20
-2.2047244094488194
 30
0.0
 50
90.0
  0
INSERT
  5
87
100
AcDbEntity
100
AcDbBlockReference
  8
Wheels
 62
256
370
-1
  6
BYLAYER
  2
Right_Wheel
 10
-0.6790910876917442
 20
-1.0384327559055118
 30
0.0
  0
INSERT
  5
88
100
AcDbEntity
100
AcDbBlockReference
  8
Wheels
 62
256
370
-1
  6
BYLAYER
  2
Left_Wheel
 10
0.8343577312058939
 20
0.2952755905511815
 30
0.0
  0
CIRCLE
  5
89
100
AcDbEntity
100
AcDbCircle
  8
Top_Standoffs
 62
256
370
-1
  6
BYLAYER
 10
-1.8854556987429252
 20
1.8930417764055116
 30
0.0
 40
0.0625
  0
CIRCLE
  5
8A
100
AcDbEntity
100
AcDbCircle
  8
Top_Standoffs
 62
256
370
-1
  6
BYLAYER
 10
1.900627854068099
 20
1.8930417764055116
 30
0.0
 40
0.0625
  0
CIRCLE
  5
8B
100
AcDbEntity
100
AcDbCircle
  8
Top_Standoffs
 62
256
370
-1
  6
BYLAYER
 10
1.900627854068099
 20
-1.8930417764055116
 30
0.0
 40
0.0625
  0
CIRCLE
  5
8C
100
AcDbEntity
100
AcDbCircle
  8
Top_Standoffs
 62
256
370
-1
  6
BYLAYER
 10
-1.8854556987429252
 20
-1.8930417764055116
 30
0.0
 40
0.0625
  0
INSERT
  5
8D
100
AcDbEntity
100
AcDbBlockReference
  8
Battery
 62
256
370
-1
  6
BYLAYER
  2
Battery_Holder
 10
0.0075860776625865
 20
1.3385826771653546
 30
0.0
  0
INSERT
  5
8E
100
AcDbEntity
100
AcDbBlockReference
  8
Speaker
 62
256
370
-1
  6
BYLAYER
  2
Speaker_Holes
 10
0.0075860776625865
 20
-1.1811023622047241
 30
0.0
  0
INSERT
  5
8F
100
AcDbEntity
100
AcDbBlockReference
  8
Groove
 62
256
370
-1
  6
BYLAYER
  2
Line_Sensor_Holes
 10
0.0084915894736106
 20
-2.6377952755905509
 30
0.0
  0
LINE
  5
90
100
AcDbEntity
100
AcDbLine
  8
Base
 62
256
370
-1
  6
BYLAYER
 10
2.669714995303111
 20
1.2614265538931475
 30
0.0
 11
2.6041599285957924
 21
1.2342727561807028
 31
0.0
  0
LINE
  5
91
100
AcDbEntity
100
AcDbLine
  8
Base
 62
256
370
-1
  6
BYLAYER
 10
2.7164036912383063
 20
0.9632923421173523
 30
0.0
 11
2.7819587579456266
 21
0.9904461398297979
 31
0.0
  0
ARC
  5
92
100
AcDbEntity
  8
Base
 62
256
370
-1
  6
BYLAYER
100
AcDbCircle
 10
0.0075860776625865
 20
0.0
 30
0.0
 40
3.063976377952756
100
AcDbArc
 50
15.692429089320086
 51
29.307570910679932
  0
LINE
  5
93
100
AcDbEntity
100
AcDbLine
  8
Base
 62
256
370
-1
  6
BYLAYER
 10
2.6793875708753676
 20
1.4998093297210966
 30
0.0
 11
2.5694617563678941
 21
1.4542765664971933
 31
0.0
  0
LINE
  5
94
100
AcDbEntity
100
AcDbLine
  8
Base
 62
256
370
-1
  6
BYLAYER
 10
2.847434564522854
 20
0.7831908430785584
 30
0.0
 11
2.9573603790303258
 21
0.8287236063024626
 31
0.0
  0
ARC
  5
95
100
AcDbEntity
  8
Base
 62
256
370
-1
  6
BYLAYER
100
AcDbCircle
 10
0.0075860776625865
 20
0.0
 30
0.0
 40
2.9458661417322833
100
AcDbArc
 50
15.418118309714227
 51
19.646474652318595
  0
ARC
  5
96
100
AcDbEntity
  8
Base
 62
256
370
-1
  6
BYLAYER
100
AcDbCircle
 10
0.0075860776625865
 20
0.0
 30
0.0
 40
2.9458661417322833
100
AcDbArc
 50
25.353525347681458
 51
29.581881690285801
  0
LINE
  5
97
100
AcDbEntity
100
AcDbLine
  8
Base
 62
256
370
-1
  6
BYLAYER
 10
0.9980322174923835
 20
2.7743726802830428
 30
0.0
 11
0.9708784197799387
 21
2.7088176135757225
 31
0.0
  0
LINE
  5
98
100
AcDbEntity
100
AcDbLine
  8
Base
 62
256
370
-1
  6
BYLAYER
 10
1.2418588338432874
 20
2.596573850933205
 30
0.0
 11
1.2690126315557322
 21
2.6621289176405254
 31
0.0
  0
ARC
  5
99
100
AcDbEntity
  8
Base
 62
256
370
-1
  6
BYLAYER
100
AcDbCircle
 10
0.0075860776625865
 20
0.0
 30
0.0
 40
3.063976377952756
100
AcDbArc
 50
60.692429089320079
 51
74.307570910679928
  0
LINE
  5
9A
100
AcDbEntity
100
AcDbLine
  8
Base
 62
256
370
-1
  6
BYLAYER
 10
0.836309683965049
 20
2.9497743013677384
 30
0.0
 11
0.7907769207411448
 21
2.8398484868602667
 31
0.0
  0
LINE
  5
9B
100
AcDbEntity
100
AcDbLine
  8
Base
 62
256
370
-1
  6
BYLAYER
 10
1.4618626441597788
 20
2.5618756787053085
 30
0.0
 11
1.5073954073836839
 21
2.6718014932127785
 31
0.0
  0
ARC
  5
9C
100
AcDbEntity
  8
Base
 62
256
370
-1
  6
BYLAYER
100
AcDbCircle
 10
0.0075860776625865
 20
0.0
 30
0.0
 40
2.9458661417322833
100
AcDbArc
 50
60.418118309714231
 51
64.646474652318602
  0
ARC
  5
9D
100
AcDbEntity
  8
Base
 62
256
370
-1
  6
BYLAYER
100
AcDbCircle
 10
0.0075860776625865
 20
0.0
 30
0.0
 40
2.9458661417322833
100
AcDbArc
 50
70.353525347681455
 51
74.581881690285812
  0
LINE
  5
9E
100
AcDbEntity
100
AcDbLine
  8
Base
 62
256
370
-1
  6
BYLAYER
 10
-1.2538404762305602
 20
2.6621289176405254
 30
0.0
 11
-1.2266866785181163
 21
2.596573850933205
 31
0.0
  0
LINE
  5
9F
100
AcDbEntity
100
AcDbLine
  8
Base
 62
256
370
-1
  6
BYLAYER
 10
-0.9557062644547658
 20
2.7088176135757207
 30
0.0
 11
-0.9828600621672115
 21
2.7743726802830411
 31
0.0
  0
ARC
  5
A0
100
AcDbEntity
  8
Base
 62
256
370
-1
  6
BYLAYER
100
AcDbCircle
 10
0.0075860776625865
 20
0.0
 30
0.0
 40
3.063976377952756
100
AcDbArc
 50
105.69242908932009
 51
119.30757091067994
  0
LINE
  5
A1
100
AcDbEntity
100
AcDbLine
  8
Base
 62
256
370
-1
  6
BYLAYER
 10
-1.492223252058511
 20
2.6718014932127803
 30
0.0
 11
-1.4466904888346068
 21
2.5618756787053085
 31
0.0
  0
LINE
  5
A2
100
AcDbEntity
100
AcDbLine
  8
Base
 62
256
370
-1
  6
BYLAYER
 10
-0.7756047654159728
 20
2.8398484868602667
 30
0.0
 11
-0.8211375286398743
 21
2.9497743013677384
 31
0.0
  0
ARC
  5
A3
100
AcDbEntity
  8
Base
 62
256
370
-1
  6
BYLAYER
100
AcDbCircle
 10
0.0075860776625865
 20
0.0
 30
0.0
 40
2.9458661417322833
100
AcDbArc
 50
105.41811830971423
 51
109.6464746523186
  0
ARC
  5
A4
100
AcDbEntity
  8
Base
 62
256
370
-1
  6
BYLAYER
100
AcDbCircle
 10
0.0075860776625865
 20
0.0
 30
0.0
 40
2.9458661417322833
100
AcDbArc
 50
115.35352534768147
 51
119.58188169028581
  0
LINE
  5
A5
100
AcDbEntity
100
AcDbLine
  8
Base
 62
256
370
-1
  6
BYLAYER
 10
-2.7667866026204542
 20
0.990446139829797
 30
0.0
 11
-2.7012315359131356
 21
0.9632923421173514
 31
0.0
  0
LINE
  5
A6
100
AcDbEntity
100
AcDbLine
  8
Base
 62
256
370
-1
  6
BYLAYER
 10
-2.5889877732706177
 20
1.234272756180701
 30
0.0
 11
-2.6545428399779376
 21
1.2614265538931466
 31
0.0
  0
ARC
  5
A7
100
AcDbEntity
  8
Base
 62
256
370
-1
  6
BYLAYER
100
AcDbCircle
 10
0.0075860776625865
 20
0.0
 30
0.0
 40
3.063976377952756
100
AcDbArc
 50
150.69242908932009
 51
164.30757091067994
  0
LINE
  5
A8
100
AcDbEntity
100
AcDbLine
  8
Base
 62
256
370
-1
  6
BYLAYER
 10
-2.9421882237051524
 20
0.8287236063024617
 30
0.0
 11
-2.8322624091976807
 21
0.7831908430785584
 31
0.0
  0
LINE
  5
A9
100
AcDbEntity
100
AcDbLine
  8
Base
 62
256
370
-1
  6
BYLAYER
 10
-2.5542896010427221
 20
1.4542765664971924
 30
0.0
 11
-2.6642154155501929
 21
1.4998093297210975
 31
0.0
  0
ARC
  5
AA
100
AcDbEntity
  8
Base
 62
256
370
-1
  6
BYLAYER
100
AcDbCircle
 10
0.0075860776625865
 20
0.0
 30
0.0
 40
2.9458661417322833
100
AcDbArc
 50
150.4181183097142
 51
154.64647465231857
  0
ARC
  5
AB
100
AcDbEntity
  8
Base
 62
256
370
-1
  6
BYLAYER
100
AcDbCircle
 10
0.0075860776625865
 20
0.0
 30
0.0
 40
2.9458661417322833
100
AcDbArc
 50
160.35352534768145
 51
164.5818816902858
  0
LINE
  5
AC
100
AcDbEntity
100
AcDbLine
  8
Base
 62
256
370
-1
  6
BYLAYER
 10
-2.6545428399779376
 20
-1.2614265538931475
 30
0.0
 11
-2.5889877732706177
 21
-1.2342727561807028
 31
0.0
  0
LINE
  5
AD
100
AcDbEntity
100
AcDbLine
  8
Base
 62
256
370
-1
  6
BYLAYER
 10
-2.7012315359131334
 20
-0.9632923421173523
 30
0.0
 11
-2.7667866026204542
 21
-0.990446139829797
 31
0.0
  0
ARC
  5
AE
100
AcDbEntity
  8
Base
 62
256
370
-1
  6
BYLAYER
100
AcDbCircle
 10
0.0075860776625865
 20
0.0
 30
0.0
 40
3.063976377952756
100
AcDbArc
 50
195.69242908932009
 51
209.30757091067997
  0
LINE
  5
AF
100
AcDbEntity
100
AcDbLine
  8
Base
 62
256
370
-1
  6
BYLAYER
 10
-2.6642154155501943
 20
-1.4998093297210975
 30
0.0
 11
-2.5542896010427221
 21
-1.4542765664971933
 31
0.0
  0
LINE
  5
B0
100
AcDbEntity
100
AcDbLine
  8
Base
 62
256
370
-1
  6
BYLAYER
 10
-2.8322624091976807
 20
-0.7831908430785584
 30
0.0
 11
-2.9421882237051524
 21
-0.8287236063024608
 31
0.0
  0
ARC
  5
B1
100
AcDbEntity
  8
Base
 62
256
370
-1
  6
BYLAYER
100
AcDbCircle
 10
0.0075860776625865
 20
0.0
 30
0.0
 40
2.9458661417322833
100
AcDbArc
 50
195.41811830971423
 51
199.64647465231857
  0
ARC
  5
B2
100
AcDbEntity
  8
Base
 62
256
370
-1
  6
BYLAYER
100
AcDbCircle
 10
0.0075860776625865
 20
0.0
 30
0.0
 40
2.9458661417322833
100
AcDbArc
 50
205.35352534768145
 51
209.5818816902858
  0
LINE
  5
B3
100
AcDbEntity
100
AcDbLine
  8
Base
 62
256
370
-1
  6
BYLAYER
 10
-0.9828600621672097
 20
-2.7743726802830424
 30
0.0
 11
-0.9557062644547649
 21
-2.708817613575722
 31
0.0
  0
LINE
  5
B4
100
AcDbEntity
100
AcDbLine
  8
Base
 62
256
370
-1
  6
BYLAYER
 10
-1.2266866785181145
 20
-2.5965738509332041
 30
0.0
 11
-1.2538404762305602
 21
-2.6621289176405245
 31
0.0
  0
ARC
  5
B5
100
AcDbEntity
  8
Base
 62
256
370
-1
  6
BYLAYER
100
AcDbCircle
 10
0.0075860776625865
 20
0.0
 30
0.0
 40
3.063976377952756
100
AcDbArc
 50
240.69242908932011
 51
254.30757091067997
  0
LINE
  5
B6
100
AcDbEntity
100
AcDbLine
  8
Base
 62
256
370
-1
  6
BYLAYER
 10
-0.8211375286398752
 20
-2.9497743013677389
 30
0.0
 11
-0.7756047654159728
 21
-2.8398484868602663
 31
0.0
  0
LINE
  5
B7
100
AcDbEntity
100
AcDbLine
  8
Base
 62
256
370
-1
  6
BYLAYER
 10
-1.4466904888346059
 20
-2.561875678705309
 30
0.0
 11
-1.492223252058511
 21
-2.6718014932127794
 31
0.0
  0
ARC
  5
B8
100
AcDbEntity
  8
Base
 62
256
370
-1
  6
BYLAYER
100
AcDbCircle
 10
0.0075860776625865
 20
0.0
 30
0.0
 40
2.9458661417322833
100
AcDbArc
 50
240.41811830971423
 51
244.64647465231857
  0
ARC
  5
B9
100
AcDbEntity
  8
Base
 62
256
370
-1
  6
BYLAYER
100
AcDbCircle
 10
0.0075860776625865
 20
0.0
 30
0.0
 40
2.9458661417322833
100
AcDbArc
 50
250.35352534768145
 51
254.58188169028577
  0
LINE
  5
BA
100
AcDbEntity
100
AcDbLine
  8
Base
 62
256
370
-1
  6
BYLAYER
 10
1.2690126315557331
 20
-2.6621289176405254
 30
0.0
 11
1.2418588338432892
 21
-2.596573850933205
 31
0.0
  0
LINE
  5
BB
100
AcDbEntity
100
AcDbLine
  8
Base
 62
256
370
-1
  6
BYLAYER
 10
0.9708784197799387
 20
-2.7088176135757203
 30
0.0
 11
0.9980322174923835
 21
-2.7743726802830411
 31
0.0
  0
ARC
  5
BC
100
AcDbEntity
  8
Base
 62
256
370
-1
  6
BYLAYER
100
AcDbCircle
 10
0.0075860776625865
 20
0.0
 30
0.0
 40
3.063976377952756
100
AcDbArc
 50
285.69242908932011
 51
299.30757091067994
  0
LINE
  5
BD
100
AcDbEntity
100
AcDbLine
  8
Base
 62
256
370
-1
  6
BYLAYER
 10
1.5073954073836839
 20
-2.6718014932127803
 30
0.0
 11
1.4618626441597788
 21
-2.561875678705309
 31
0.0
  0
LINE
  5
BE
100
AcDbEntity
100
AcDbLine
  8
Base
 62
256
370
-1
  6
BYLAYER
 10
0.7907769207411448
 20
-2.8398484868602671
 30
0.0
 11
0.8363096839650472
 21
-2.9497743013677389
 31
0.0
  0
ARC
  5
BF
100
AcDbEntity
  8
Base
 62
256
370
-1
  6
BYLAYER
100
AcDbCircle
 10
0.0075860776625865
 20
0.0
 30
0.0
 40
2.9458661417322833
100
AcDbArc
 50
285.41811830971426
 51
289.6464746523186
  0
ARC
  5
C0
100
AcDbEntity
  8
Base
 62
256
370
-1
  6
BYLAYER
100
AcDbCircle
 10
0.0075860776625865
 20
0.0
 30
0.0
 40
2.9458661417322833
100
AcDbArc
 50
295.35352534768145
 51
299.58188169028574
  0
LINE
  5
C1
100
AcDbEntity
100
AcDbLine
  8
Base
 62
256
370
-1
  6
BYLAYER
 10
2.7819587579456284
 20
-0.9904461398297961
 30
0.0
 11
2.716403691238308
 21
-0.9632923421173514
 31
0.0
  0
LINE
  5
C2
100
AcDbEntity
100
AcDbLine
  8
Base
 62
256
370
-1
  6
BYLAYER
 10
2.6041599285957906
 20
-1.234272756180701
 30
0.0
 11
2.669714995303111
 21
-1.2614265538931466
 31
0.0
  0
ARC
  5
C3
100
AcDbEntity
  8
Base
 62
256
370
-1
  6
BYLAYER
100
AcDbCircle
 10
0.0075860776625865
 20
0.0
 30
0.0
 40
3.063976377952756
100
AcDbArc
 50
330.69242908932011
 51
344.30757091067994
  0
LINE
  5
C4
100
AcDbEntity
100
AcDbLine
  8
Base
 62
256
370
-1
  6
BYLAYER
 10
2.9573603790303258
 20
-0.8287236063024617
 30
0.0
 11
2.847434564522854
 21
-0.7831908430785601
 31
0.0
  0
LINE
  5
C5
100
AcDbEntity
100
AcDbLine
  8
Base
 62
256
370
-1
  6
BYLAYER
 10
2.5694617563678959
 20
-1.4542765664971933
 30
0.0
 11
2.6793875708753658
 21
-1.4998093297210984
 31
0.0
  0
ARC
  5
C6
100
AcDbEntity
  8
Base
 62
256
370
-1
  6
BYLAYER
100
AcDbCircle
 10
0.0075860776625865
 20
0.0
 30
0.0
 40
2.9458661417322833
100
AcDbArc
 50
330.41811830971426
 51
334.6464746523186
  0
ARC
  5
C7
100
AcDbEntity
  8
Base
 62
256
370
-1
  6
BYLAYER
100
AcDbCircle
 10
0.0075860776625865
 20
0.0
 30
0.0
 40
2.9458661417322833
100
AcDbArc
 50
340.35352534768145
 51
344.58188169028574
  0
ARC
  5
C8
100
AcDbEntity
  8
Base
 62
256
370
-1
  6
BYLAYER
100
AcDbCircle
 10
0.0075860776625865
 20
0.0
 30
0.0
 40
2.875
100
AcDbArc
 50
25.423922543829278
 51
64.576077456170765
  0
ARC
  5
C9
100
AcDbEntity
  8
Base
 62
256
370
-1
  6
BYLAYER
100
AcDbCircle
 10
0.0075860776625865
 20
0.0
 30
0.0
 40
2.875
100
AcDbArc
 50
70.423922543829278
 51
109.57607745617076
  0
ARC
  5
CA
100
AcDbEntity
  8
Base
 62
256
370
-1
  6
BYLAYER
100
AcDbCircle
 10
0.0075860776625865
 20
0.0
 30
0.0
 40
2.875
100
AcDbArc
 50
115.42392254382929
 51
154.57607745617076
  0
ARC
  5
CB
100
AcDbEntity
  8
Base
 62
256
370
-1
  6
BYLAYER
100
AcDbCircle
 10
0.0075860776625865
 20
0.0
 30
0.0
 40
2.875
100
AcDbArc
 50
160.42392254382929
 51
199.57607745617074
  0
ARC
  5
CC
100
AcDbEntity
  8
Base
 62
256
370
-1
  6
BYLAYER
100
AcDbCircle
 10
0.0075860776625865
 20
0.0
 30
0.0
 40
2.875
100
AcDbArc
 50
205.42392254382926
 51
244.57607745617071
  0
ARC
  5
CD
100
AcDbEntity
  8
Base
 62
256
370
-1
  6
BYLAYER
100
AcDbCircle
 10
0.0075860776625865
 20
0.0
 30
0.0
 40
2.875
100
AcDbArc
 50
250.42392254382929
 51
289.57607745617076
  0
ARC
  5
CE
100
AcDbEntity
  8
Base
 62
256
370
-1
  6
BYLAYER
100
AcDbCircle
 10
0.0075860776625865
 20
0.0
 30
0.0
 40
2.875
100
AcDbArc
 50
295.42392254382929
 51
334.57607745617071
  0
ARC
  5
CF
100
AcDbEntity
  8
Base
 62
256
370
-1
  6
BYLAYER
100
AcDbCircle
 10
0.0075860776625865
 20
0.0
 30
0.0
 40
2.875
100
AcDbArc
 50
340.42392254382929
 51
19.576077456170758
  0
INSERT
  5
D0
100
AcDbEntity
100
AcDbBlockReference
  8
Whisker_Sensor_Mount
 62
256
370
-1
  6
BYLAYER
  2
Whisker_Sensor
 10
-2.310906048321665
 20
-1.3385826771653546
 30
0.0
 50
120.0
  0
INSERT
  5
D1
100
AcDbEntity
100
AcDbBlockReference
  8
Whisker_Sensor_Mount
 62
256
370
-1
  6
BYLAYER
  2
Whisker_Sensor
 10
2.3260782036468379
 20
-1.3385826771653546
 30
0.0
 41
-1.0
 42
1.0
 43
1.0
 50
240.0
  0
ENDBLK
  5
D2
100
AcDbEntity
  8
0
100
AcDbBlockEnd
  0
BLOCK
  5
D3
100
AcDbEntity
  8
0
100
AcDbBlockBegin
  2
Side_Piece
 70
0
 10
0.0
 20
0.0
 30
0.0
  3
Side_Piece
  1

  0
LINE
  5
D4
100
AcDbEntity
100
AcDbLine
  8
Parts
 62
256
370
-1
  6
BYLAYER
 10
-0.5708661417322835
 20
-0.4724409448818898
 30
0.0
 11
-0.1968503937007876
 21
-0.4724409448818898
 31
0.0
  0
LINE
  5
D5
100
AcDbEntity
100
AcDbLine
  8
Parts
 62
256
370
-1
  6
BYLAYER
 10
1.4960629921259843
 20
-0.4724409448818898
 30
0.0
 11
1.4960629921259843
 21
0.4724409448818898
 31
0.0
  0
LINE
  5
D6
100
AcDbEntity
100
AcDbLine
  8
Parts
 62
256
370
-1
  6
BYLAYER
 10
1.4960629921259843
 20
0.4724409448818898
 30
0.0
 11
-1.4960629921259843
 21
0.4724409448818898
 31
0.0
  0
LINE
  5
D7
100
AcDbEntity
100
AcDbLine
  8
Parts
 62
256
370
-1
  6
BYLAYER
 10
-1.4960629921259843
 20
0.4724409448818898
 30
0.0
 11
-1.4960629921259843
 21
-0.4724409448818898
 31
0.0
  0
LINE
  5
D8
100
AcDbEntity
100
AcDbLine
  8
Parts
 62
256
370
-1
  6
BYLAYER
 10
-1.2598425196850394
 20
-0.4724409448818898
 30
0.0
 11
-1.2598425196850394
 21
0.0
 31
0.0
  0
LINE
  5
D9
100
AcDbEntity
100
AcDbLine
  8
Parts
 62
256
370
-1
  6
BYLAYER
 10
-1.2598425196850394
 20
0.0
 30
0.0
 11
-1.3779527559055118
 21
0.0
 31
0.0
  0
LINE
  5
DA
100
AcDbEntity
100
AcDbLine
  8
Parts
 62
256
370
-1
  6
BYLAYER
 10
-1.3779527559055118
 20
0.0
 30
0.0
 11
-1.3779527559055118
 21
-0.4724409448818898
 31
0.0
  0
LINE
  5
DB
100
AcDbEntity
100
AcDbLine
  8
Parts
 62
256
370
-1
  6
BYLAYER
 10
1.3779527559055118
 20
-0.4724409448818898
 30
0.0
 11
1.3779527559055118
 21
0.0
 31
0.0
  0
LINE
  5
DC
100
AcDbEntity
100
AcDbLine
  8
Parts
 62
256
370
-1
  6
BYLAYER
 10
1.3779527559055118
 20
0.0
 30
0.0
 11
1.2598425196850394
 21
0.0
 31
0.0
  0
LINE
  5
DD
100
AcDbEntity
100
AcDbLine
  8
Parts
 62
256
370
-1
  6
BYLAYER
 10
1.2598425196850394
 20
0.0
 30
0.0
 11
1.2598425196850394
 21
-0.4724409448818898
 31
0.0
  0
LINE
  5
DE
100
AcDbEntity
100
AcDbLine
  8
Parts
 62
256
370
-1
  6
BYLAYER
 10
-0.1968503937007874
 20
-0.5905511811023622
 30
0.0
 11
0.1968503937007874
 21
-0.5905511811023622
 31
0.0
  0
LINE
  5
DF
100
AcDbEntity
100
AcDbLine
  8
Parts
 62
256
370
-1
  6
BYLAYER
 10
0.1968503937007874
 20
-0.5905511811023622
 30
0.0
 11
0.1968503937007874
 21
-0.4724409448818898
 31
0.0
  0
LINE
  5
E0
100
AcDbEntity
100
AcDbLine
  8
Parts
 62
256
370
-1
  6
BYLAYER
 10
-0.1968503937007874
 20
-0.4724409448818898
 30
0.0
 11
-0.1968503937007874
 21
-0.5905511811023622
 31
0.0
  0
LINE
  5
E1
100
AcDbEntity
100
AcDbLine
  8
Parts
 62
256
370
-1
  6
BYLAYER
 10
-1.4960629921259843
 20
-0.4724409448818898
 30
0.0
 11
-1.3779527559055118
 21
-0.4724409448818898
 31
0.0
  0
LINE
  5
E2
100
AcDbEntity
100
AcDbLine
  8
Parts
 62
256
370
-1
  6
BYLAYER
 10
1.3779527559055118
 20
-0.4724409448818898
 30
0.0
 11
1.4960629921259843
 21
-0.4724409448818898
 31
0.0
  0
LINE
  5
E3
100
AcDbEntity
100
AcDbLine
  8
Parts
 62
256
370
-1
  6
BYLAYER
 10
0.5708661417322835
 20
-0.4724409448818898
 30
0.0
 11
0.5708661417322835
 21
-0.3543307086614173
 31
0.0
  0
LINE
  5
E4
100
AcDbEntity
100
AcDbLine
  8
Parts
 62
256
370
-1
  6
BYLAYER
 10
0.5708661417322835
 20
-0.3543307086614173
 30
0.0
 11
0.5078740157480315
 21
-0.3543307086614173
 31
0.0
  0
LINE
  5
E5
100
AcDbEntity
100
AcDbLine
  8
Parts
 62
256
370
-1
  6
BYLAYER
 10
0.5078740157480315
 20
-0.3543307086614173
 30
0.0
 11
0.5078740157480315
 21
-0.2637795275590552
 31
0.0
  0
LINE
  5
E6
100
AcDbEntity
100
AcDbLine
  8
Parts
 62
256
370
-1
  6
BYLAYER
 10
0.5078740157480315
 20
-0.2637795275590552
 30
0.0
 11
0.5708661417322835
 21
-0.2637795275590552
 31
0.0
  0
LINE
  5
E7
100
AcDbEntity
100
AcDbLine
  8
Parts
 62
256
370
-1
  6
BYLAYER
 10
0.5708661417322835
 20
-0.2637795275590552
 30
0.0
 11
0.5708661417322835
 21
-0.2145669291338583
 31
0.0
  0
LINE
  5
E8
100
AcDbEntity
100
AcDbLine
  8
Parts
 62
256
370
-1
  6
BYLAYER
 10
0.5708661417322835
 20
-0.2145669291338583
 30
0.0
 11
0.6889763779527559
 21
-0.2145669291338583
 31
0.0
  0
LINE
  5
E9
100
AcDbEntity
100
AcDbLine
  8
Parts
 62
256
370
-1
  6
BYLAYER
 10
0.6889763779527559
 20
-0.2145669291338583
 30
0.0
 11
0.6889763779527559
 21
-0.2637795275590552
 31
0.0
  0
LINE
  5
EA
100
AcDbEntity
100
AcDbLine
  8
Parts
 62
256
370
-1
  6
BYLAYER
 10
0.6889763779527559
 20
-0.2637795275590552
 30
0.0
 11
0.7519685039370079
 21
-0.2637795275590552
 31
0.0
  0
LINE
  5
EB
100
AcDbEntity
100
AcDbLine
  8
Parts
 62
256
370
-1
  6
BYLAYER
 10
0.7519685039370079
 20
-0.2637795275590552
 30
0.0
 11
0.7519685039370079
 21
-0.3543307086614173
 31
0.0
  0
LINE
  5
EC
100
AcDbEntity
100
AcDbLine
  8
Parts
 62
256
370
-1
  6
BYLAYER
 10
0.7519685039370079
 20
-0.3543307086614173
 30
0.0
 11
0.6889763779527559
 21
-0.3543307086614173
 31
0.0
  0
LINE
  5
ED
100
AcDbEntity
100
AcDbLine
  8
Parts
 62
256
370
-1
  6
BYLAYER
 10
0.6889763779527559
 20
-0.3543307086614173
 30
0.0
 11
0.6889763779527559
 21
-0.4724409448818898
 31
0.0
  0
LINE
  5
EE
100
AcDbEntity
100
AcDbLine
  8
Parts
 62
256
370
-1
  6
BYLAYER
 10
0.1968503937007874
 20
-0.4724409448818898
 30
0.0
 11
0.5708661417322835
 21
-0.4724409448818898
 31
0.0
  0
LINE
  5
EF
100
AcDbEntity
100
AcDbLine
  8
Parts
 62
256
370
-1
  6
BYLAYER
 10
0.6889763779527559
 20
-0.4724409448818898
 30
0.0
 11
1.2598425196850394
 21
-0.4724409448818898
 31
0.0
  0
LINE
  5
F0
100
AcDbEntity
100
AcDbLine
  8
Parts
 62
256
370
-1
  6
BYLAYER
 10
-0.5078740157480315
 20
-0.3543307086614173
 30
0.0
 11
-0.5708661417322835
 21
-0.3543307086614173
 31
0.0
  0
LINE
  5
F1
100
AcDbEntity
100
AcDbLine
  8
Parts
 62
256
370
-1
  6
BYLAYER
 10
-0.5708661417322835
 20
-0.3543307086614173
 30
0.0
 11
-0.5708661417322835
 21
-0.4724409448818898
 31
0.0
  0
LINE
  5
F2
100
AcDbEntity
100
AcDbLine
  8
Parts
 62
256
370
-1
  6
BYLAYER
 10
-0.6889763779527559
 20
-0.4724409448818898
 30
0.0
 11
-0.6889763779527559
 21
-0.3543307086614173
 31
0.0
  0
LINE
  5
F3
100
AcDbEntity
100
AcDbLine
  8
Parts
 62
256
370
-1
  6
BYLAYER
 10
-0.6889763779527559
 20
-0.3543307086614173
 30
0.0
 11
-0.7519685039370079
 21
-0.3543307086614173
 31
0.0
  0
LINE
  5
F4
100
AcDbEntity
100
AcDbLine
  8
Parts
 62
256
370
-1
  6
BYLAYER
 10
-0.7519685039370079
 20
-0.3543307086614173
 30
0.0
 11
-0.7519685039370079
 21
-0.2637795275590552
 31
0.0
  0
LINE
  5
F5
100
AcDbEntity
100
AcDbLine
  8
Parts
 62
256
370
-1
  6
BYLAYER
 10
-0.7519685039370079
 20
-0.2637795275590552
 30
0.0
 11
-0.6889763779527559
 21
-0.2637795275590552
 31
0.0
  0
LINE
  5
F6
100
AcDbEntity
100
AcDbLine
  8
Parts
 62
256
370
-1
  6
BYLAYER
 10
-0.6889763779527559
 20
-0.2637795275590552
 30
0.0
 11
-0.6889763779527559
 21
-0.2145669291338583
 31
0.0
  0
LINE
  5
F7
100
AcDbEntity
100
AcDbLine
  8
Parts
 62
256
370
-1
  6
BYLAYER
 10
-0.6889763779527559
 20
-0.2145669291338583
 30
0.0
 11
-0.5708661417322835
 21
-0.2145669291338583
 31
0.0
  0
LINE
  5
F8
100
AcDbEntity
100
AcDbLine
  8
Parts
 62
256
370
-1
  6
BYLAYER
 10
-0.5708661417322835
 20
-0.2145669291338583
 30
0.0
 11
-0.5708661417322835
 21
-0.2637795275590552
 31
0.0
  0
LINE
  5
F9
100
AcDbEntity
100
AcDbLine
  8
Parts
 62
256
370
-1
  6
BYLAYER
 10
-0.5708661417322835
 20
-0.2637795275590552
 30
0.0
 11
-0.5078740157480315
 21
-0.2637795275590552
 31
0.0
  0
LINE
  5
FA
100
AcDbEntity
100
AcDbLine
  8
Parts
 62
256
370
-1
  6
BYLAYER
 10
-0.5078740157480315
 20
-0.2637795275590552
 30
0.0
 11
-0.5078740157480315
 21
-0.3543307086614173
 31
0.0
  0
LINE
  5
FB
100
AcDbEntity
100
AcDbLine
  8
Parts
 62
256
370
-1
  6
BYLAYER
 10
-1.2598425196850394
 20
-0.4724409448818898
 30
0.0
 11
-0.6889763779527559
 21
-0.4724409448818898
 31
0.0
  0
ENDBLK
  5
FC
100
AcDbEntity
  8
0
100
AcDbBlockEnd
  0
BLOCK
  5
FD
100
AcDbEntity
  8
0
100
AcDbBlockBegin
  2
Left_Wheel
 70
0
 10
0.0
 20
0.0
 30
0.0
  3
Left_Wheel
  1

  0
LWPOLYLINE
  5
FE
  8
Wheels
 62
256
370
-1
  6
BYLAYER
100
AcDbEntity
100
AcDbPolyline
 90
8
 70
1
 10
1.4173228346456692
 20
-0.8582677165354332
 30
0.0
 42
0.4142135623730951
 10
1.5433070866141734
 20
-0.9842519685039372
 30
0.0
 10
1.6850393700787401
 20
-0.9842519685039372
 30
0.0
 42
0.4142135623730951
 10
1.811023622047244
 20
-0.8582677165354332
 30
0.0
 10
1.811023622047244
 20
0.2677165354330707
 30
0.0
 42
0.4142135623730951
 10
1.6850393700787401
 20
0.3937007874015747
 30
0.0
 10
1.5433070866141734
 20
0.3937007874015747
 30
0.0
 42
0.4142135623730951
 10
1.4173228346456692
 20
0.2677165354330707
 30
0.0
  0
CIRCLE
  5
FF
100
AcDbEntity
100
AcDbCircle
  8
Wheels
 62
256
370
-1
  6
BYLAYER
 10
1.25
 20
-0.6496062992125986
 30
0.0
 40
0.046875
  0
CIRCLE
  5
100
100
AcDbEntity
100
AcDbCircle
  8
Wheels
 62
256
370
-1
  6
BYLAYER
 10
1.25
 20
0.0590551181102361
 30
0.0
 40
0.046875
  0
ENDBLK
  5
101
100
AcDbEntity
  8
0
100
AcDbBlockEnd
  0
BLOCK
  5
102
100
AcDbEntity
  8
0
100
AcDbBlockBegin
  2
Line_Sensor_Holes
 70
0
 10
0.0
 20
0.0
 30
0.0
  3
Line_Sensor_Holes
  1

  0
LWPOLYLINE
  5
103
  8
Line_Sensor
 62
256
370
-1
  6
BYLAYER
100
AcDbEntity
100
AcDbPolyline
 90
8
 70
1
 10
-0.375
 20
0.0541338582677165
 30
0.0
 42
0.4142135623730951
 10
-0.3208661417322835
 20
0.0
 30
0.0
 10
0.3208661417322835
 20
0.0
 30
0.0
 42
0.4142135623730951
 10
0.375
 20
0.0541338582677165
 30
0.0
 10
0.375
 20
0.0954724409448818
 30
0.0
 42
0.4142135623730951
 10
0.3208661417322835
 20
0.1496062992125983
 30
0.0
 10
-0.3208661417322835
 20
0.1496062992125983
 30
0.0
 42
0.4142135623730951
 10
-0.375
 20
0.0954724409448818
 30
0.0
  0
CIRCLE
  5
104
100
AcDbEntity
100
AcDbCircle
  8
Line_Sensor
 62
256
370
-1
  6
BYLAYER
 10
-0.5264960629921259
 20
0.0
 30
0.0
 40
0.046875
  0
CIRCLE
  5
105
100
AcDbEntity
100
AcDbCircle
  8
Line_Sensor
 62
256
370
-1
  6
BYLAYER
 10
0.5246850393700787
 20
0.0
 30
0.0
 40
0.046875
  0
ENDBLK
  5
106
100
AcDbEntity
  8
0
100
AcDbBlockEnd
  0
BLOCK
  5
107
100
AcDbEntity
  8
0
100
AcDbBlockBegin
  2
Speaker_Holes
 70
0
 10
0.0
 20
0.0
 30
0.0
  3
Speaker_Holes
  1

  0
CIRCLE
  5
108
100
AcDbEntity
100
AcDbCircle
  8
Speaker
 62
256
370
-1
  6
BYLAYER
 10
0.1574803149606299
 20
0.0
 30
0.0
 40
0.0625
  0
CIRCLE
  5
109
100
AcDbEntity
100
AcDbCircle
  8
Speaker
 62
256
370
-1
  6
BYLAYER
 10
0.0
 20
0.1574803149606299
 30
0.0
 40
0.0625
  0
CIRCLE
  5
10A
100
AcDbEntity
100
AcDbCircle
  8
Speaker
 62
256
370
-1
  6
BYLAYER
 10
0.0
 20
-0.1574803149606299
 30
0.0
 40
0.0625
  0
CIRCLE
  5
10B
100
AcDbEntity
100
AcDbCircle
  8
Speaker
 62
256
370
-1
  6
BYLAYER
 10
0.0
 20
0.3543307086614173
 30
0.0
 40
0.0625
  0
CIRCLE
  5
10C
100
AcDbEntity
100
AcDbCircle
  8
Speaker
 62
256
370
-1
  6
BYLAYER
 10
-0.3543307086614173
 20
0.0
 30
0.0
 40
0.0625
  0
CIRCLE
  5
10D
100
AcDbEntity
100
AcDbCircle
  8
Speaker
 62
256
370
-1
  6
BYLAYER
 10
0.0
 20
-0.3543307086614173
 30
0.0
 40
0.0625
  0
CIRCLE
  5
10E
100
AcDbEntity
100
AcDbCircle
  8
Speaker
 62
256
370
-1
  6
BYLAYER
 10
0.3543307086614173
 20
0.0
 30
0.0
 40
0.0625
  0
CIRCLE
  5
10F
100
AcDbEntity
100
AcDbCircle
  8
Speaker
 62
256
370
-1
  6
BYLAYER
 10
-0.1574803149606299
 20
0.0
 30
0.0
 40
0.0625
  0
CIRCLE
  5
110
100
AcDbEntity
100
AcDbCircle
  8
Speaker
 62
256
370
-1
  6
BYLAYER
 10
-0.2505496062992126
 20
0.2505496062992126
 30
0.0
 40
0.0625
  0
CIRCLE
  5
111
100
AcDbEntity
100
AcDbCircle
  8
Speaker
 62
256
370
-1
  6
BYLAYER
 10
0.2505496062992126
 20
0.2505496062992126
 30
0.0
 40
0.0625
  0
CIRCLE
  5
112
100
AcDbEntity
100
AcDbCircle
  8
Speaker
 62
256
370
-1
  6
BYLAYER
 10
0.2505496062992126
 20
-0.2505496062992126
 30
0.0
 40
0.0625
  0
CIRCLE
  5
113
100
AcDbEntity
100
AcDbCircle
  8
Speaker
 62
256
370
-1
  6
BYLAYER
 10
-0.2505496062992126
 20
-0.2505496062992126
 30
0.0
 40
0.0625
  0
ENDBLK
  5
114
100
AcDbEntity
  8
0
100
AcDbBlockEnd
  0
BLOCK
  5
115
100
AcDbEntity
  8
0
100
AcDbBlockBegin
  2
Right_Wheel
 70
0
 10
0.0
 20
0.0
 30
0.0
  3
Right_Wheel
  1

  0
LWPOLYLINE
  5
116
  8
Wheels
 62
256
370
-1
  6
BYLAYER
100
AcDbEntity
100
AcDbPolyline
 90
8
 70
1
 10
-1.9511181102362207
 20
0.47544062992126
 30
0.0
 42
0.4142135623730951
 10
-1.8251338582677166
 20
0.349456377952756
 30
0.0
 10
-1.6834015748031499
 20
0.349456377952756
 30
0.0
 42
0.4142135623730951
 10
-1.557417322834646
 20
0.47544062992126
 30
0.0
 10
-1.557417322834646
 20
1.6014248818897638
 30
0.0
 42
0.4142135623730951
 10
-1.6834015748031499
 20
1.7274091338582678
 30
0.0
 10
-1.8251338582677166
 20
1.7274091338582678
 30
0.0
 42
0.4142135623730951
 10
-1.9511181102362207
 20
1.6014248818897638
 30
0.0
  0
CIRCLE
  5
117
100
AcDbEntity
100
AcDbCircle
  8
Wheels
 62
256
370
-1
  6
BYLAYER
 10
-1.3900944881889765
 20
1.3927634645669293
 30
0.0
 40
0.046875
  0
CIRCLE
  5
118
100
AcDbEntity
100
AcDbCircle
  8
Wheels
 62
256
370
-1
  6
BYLAYER
 10
-1.3900944881889765
 20
0.6841020472440946
 30
0.0
 40
0.046875
  0
ENDBLK
  5
119
100
AcDbEntity
  8
0
100
AcDbBlockEnd
  0
BLOCK
  5
11A
100
AcDbEntity
  8
0
100
AcDbBlockBegin
  2
End_Piece
 70
0
 10
0.0
 20
0.0
 30
0.0
  3
End_Piece
  1

  0
LINE
  5
11B
100
AcDbEntity
100
AcDbLine
  8
Parts
 62
256
370
-1
  6
BYLAYER
 10
-0.8661417322834646
 20
0.4724409448818898
 30
0.0
 11
-0.8661417322834646
 21
-0.4724409448818898
 31
0.0
  0
LINE
  5
11C
100
AcDbEntity
100
AcDbLine
  8
Parts
 62
256
370
-1
  6
BYLAYER
 10
-0.7480314960629921
 20
0.0
 30
0.0
 11
-0.6299212598425197
 21
0.0
 31
0.0
  0
LINE
  5
11D
100
AcDbEntity
100
AcDbLine
  8
Parts
 62
256
370
-1
  6
BYLAYER
 10
-0.6299212598425197
 20
0.0
 30
0.0
 11
-0.6299212598425197
 21
0.4724409448818898
 31
0.0
  0
LINE
  5
11E
100
AcDbEntity
100
AcDbLine
  8
Parts
 62
256
370
-1
  6
BYLAYER
 10
-0.7480314960629921
 20
0.4724409448818898
 30
0.0
 11
-0.7480314960629921
 21
0.0
 31
0.0
  0
LINE
  5
11F
100
AcDbEntity
100
AcDbLine
  8
Parts
 62
256
370
-1
  6
BYLAYER
 10
0.6299212598425197
 20
0.0
 30
0.0
 11
0.7480314960629921
 21
0.0
 31
0.0
  0
LINE
  5
120
100
AcDbEntity
100
AcDbLine
  8
Parts
 62
256
370
-1
  6
BYLAYER
 10
0.7480314960629921
 20
0.0
 30
0.0
 11
0.7480314960629921
 21
0.4724409448818898
 31
0.0
  0
LINE
  5
121
100
AcDbEntity
100
AcDbLine
  8
Parts
 62
256
370
-1
  6
BYLAYER
 10
0.6299212598425197
 20
0.4724409448818898
 30
0.0
 11
0.6299212598425197
 21
0.0
 31
0.0
  0
LINE
  5
122
100
AcDbEntity
100
AcDbLine
  8
Parts
 62
256
370
-1
  6
BYLAYER
 10
-0.7480314960629921
 20
0.4724409448818898
 30
0.0
 11
-0.8661417322834646
 21
0.4724409448818898
 31
0.0
  0
LINE
  5
123
100
AcDbEntity
100
AcDbLine
  8
Parts
 62
256
370
-1
  6
BYLAYER
 10
0.8661417322834646
 20
0.4724409448818898
 30
0.0
 11
0.7480314960629921
 21
0.4724409448818898
 31
0.0
  0
LINE
  5
124
100
AcDbEntity
100
AcDbLine
  8
Parts
 62
256
370
-1
  6
BYLAYER
 10
0.6299212598425197
 20
0.4724409448818898
 30
0.0
 11
-0.6299212598425197
 21
0.4724409448818899
 31
0.0
  0
LINE
  5
125
100
AcDbEntity
100
AcDbLine
  8
Parts
 62
256
370
-1
  6
BYLAYER
 10
-0.1968503937007874
 20
-0.5905511811023622
 30
0.0
 11
0.1968503937007874
 21
-0.5905511811023622
 31
0.0
  0
LINE
  5
126
100
AcDbEntity
100
AcDbLine
  8
Parts
 62
256
370
-1
  6
BYLAYER
 10
0.1968503937007874
 20
-0.5905511811023622
 30
0.0
 11
0.1968503937007874
 21
-0.4724409448818898
 31
0.0
  0
LINE
  5
127
100
AcDbEntity
100
AcDbLine
  8
Parts
 62
256
370
-1
  6
BYLAYER
 10
-0.1968503937007874
 20
-0.4724409448818898
 30
0.0
 11
-0.1968503937007874
 21
-0.5905511811023622
 31
0.0
  0
LINE
  5
128
100
AcDbEntity
100
AcDbLine
  8
Parts
 62
256
370
-1
  6
BYLAYER
 10
-0.8661417322834646
 20
-0.4724409448818898
 30
0.0
 11
-0.1968503937007874
 21
-0.4724409448818898
 31
0.0
  0
LINE
  5
129
100
AcDbEntity
100
AcDbLine
  8
Parts
 62
256
370
-1
  6
BYLAYER
 10
0.1968503937007876
 20
-0.4724409448818898
 30
0.0
 11
0.8661417322834646
 21
-0.4724409448818898
 31
0.0
  0
LINE
  5
12A
100
AcDbEntity
100
AcDbLine
  8
Parts
 62
256
370
-1
  6
BYLAYER
 10
0.8661417322834646
 20
-0.4724409448818898
 30
0.0
 11
0.8661417322834646
 21
0.4724409448818898
 31
0.0
  0
ENDBLK
  5
12B
100
AcDbEntity
  8
0
100
AcDbBlockEnd
  0
BLOCK
  5
12C
100
AcDbEntity
  8
0
100
AcDbBlockBegin
  2
USB_B_Panel_Mount
 70
0
 10
0.0
 20
0.0
 30
0.0
  3
USB_B_Panel_Mount
  1

  0
LINE
  5
12D
100
AcDbEntity
100
AcDbLine
  8
USB_Connector
 62
256
370
-1
  6
BYLAYER
 10
-0.2362204724409449
 20
-0.2066929133858268
 30
0.0
 11
0.2362204724409449
 21
-0.2066929133858268
 31
0.0
  0
LINE
  5
12E
100
AcDbEntity
100
AcDbLine
  8
USB_Connector
 62
256
370
-1
  6
BYLAYER
 10
0.2362204724409449
 20
-0.2066929133858268
 30
0.0
 11
0.2362204724409449
 21
0.2066929133858268
 31
0.0
  0
LINE
  5
12F
100
AcDbEntity
100
AcDbLine
  8
USB_Connector
 62
256
370
-1
  6
BYLAYER
 10
0.2362204724409449
 20
0.2066929133858268
 30
0.0
 11
-0.2362204724409449
 21
0.2066929133858268
 31
0.0
  0
LINE
  5
130
100
AcDbEntity
100
AcDbLine
  8
USB_Connector
 62
256
370
-1
  6
BYLAYER
 10
-0.2362204724409449
 20
0.2066929133858268
 30
0.0
 11
-0.2362204724409449
 21
-0.2066929133858268
 31
0.0
  0
CIRCLE
  5
131
100
AcDbEntity
100
AcDbCircle
  8
USB_Connector
 62
256
370
-1
  6
BYLAYER
 10
-0.5314960629921259
 20
0.0
 30
0.0
 40
0.0669291338582677
  0
CIRCLE
  5
132
100
AcDbEntity
100
AcDbCircle
  8
USB_Connector
 62
256
370
-1
  6
BYLAYER
 10
0.5314960629921259
 20
0.0
 30
0.0
 40
0.0669291338582677
  0
ENDBLK
  5
133
100
AcDbEntity
  8
0
100
AcDbBlockEnd
  0
BLOCK
  5
134
100
AcDbEntity
  8
0
100
AcDbBlockBegin
  2
Whisker_Sensor
 70
0
 10
0.0
 20
0.0
 30
0.0
  3
Whisker_Sensor
  1

  0
ARC
  5
135
100
AcDbEntity
  8
Whisker_Sensor_Mount
 62
256
370
-1
  6
BYLAYER
100
AcDbCircle
 10
-0.2775590551181102
 20
-0.3937007874015747
 30
0.0
 40
0.0393700787401575
100
AcDbArc
 50
180.0
 51
270.0
  0
CIRCLE
  5
136
100
AcDbEntity
100
AcDbCircle
  8
Whisker_Sensor_Mount
 62
256
370
-1
  6
BYLAYER
 10
-0.187007874015748
 20
0.0
 30
0.0
 40
0.047244094488189
  0
CIRCLE
  5
137
100
AcDbEntity
100
AcDbCircle
  8
Whisker_Sensor_Mount
 62
256
370
-1
  6
BYLAYER
 10
0.187007874015748
 20
0.0
 30
0.0
 40
0.047244094488189
  0
LINE
  5
138
100
AcDbEntity
100
AcDbLine
  8
Whisker_Sensor_Mount
 62
256
370
-1
  6
BYLAYER
 10
-0.2775590551181102
 20
-0.4330708661417323
 30
0.0
 11
0.2775590551181102
 21
-0.4330708661417323
 31
0.0
  0
LINE
  5
139
100
AcDbEntity
100
AcDbLine
  8
Whisker_Sensor_Mount
 62
256
370
-1
  6
BYLAYER
 10
0.3169291338582678
 20
-0.3937007874015748
 30
0.0
 11
0.3169291338582678
 21
-0.3149606299212598
 31
0.0
  0
LINE
  5
13A
100
AcDbEntity
100
AcDbLine
  8
Line_Sensor
 62
256
370
-1
  6
BYLAYER
 10
0.2775590551181102
 20
-0.2755905511811024
 30
0.0
 11
-0.2775590551181102
 21
-0.2755905511811024
 31
0.0
  0
LINE
  5
13B
100
AcDbEntity
100
AcDbLine
  8
Whisker_Sensor_Mount
 62
256
370
-1
  6
BYLAYER
 10
-0.3169291338582678
 20
-0.3149606299212598
 30
0.0
 11
-0.3169291338582678
 21
-0.3937007874015747
 31
0.0
  0
ARC
  5
13C
100
AcDbEntity
  8
Whisker_Sensor_Mount
 62
256
370
-1
  6
BYLAYER
100
AcDbCircle
 10
-0.2775590551181102
 20
-0.3149606299212598
 30
0.0
 40
0.0393700787401575
100
AcDbArc
 50
90.0
 51
180.0
  0
ARC
  5
13D
100
AcDbEntity
  8
Whisker_Sensor_Mount
 62
256
370
-1
  6
BYLAYER
100
AcDbCircle
 10
0.2775590551181102
 20
-0.3149606299212598
 30
0.0
 40
0.0393700787401575
100
AcDbArc
 50
0.0
 51
90.0
  0
ARC
  5
13E
100
AcDbEntity
  8
Whisker_Sensor_Mount
 62
256
370
-1
  6
BYLAYER
100
AcDbCircle
 10
0.2775590551181102
 20
-0.3937007874015748
 30
0.0
 40
0.0393700787401575
100
AcDbArc
 50
270.0
 51
0.0
  0
ENDBLK
  5
13F
100
AcDbEntity
  8
0
100
AcDbBlockEnd
  0
BLOCK
  5
140
100
AcDbEntity
  8
0
100
AcDbBlockBegin
  2
top
 70
0
 10
0.0
 20
0.0
 30
0.0
  3
top
  1

  0
ARC
  5
141
100
AcDbEntity
  8
Base
 62
256
370
-1
  6
BYLAYER
100
AcDbCircle
 10
-0.0330714084293149
 20
-0.0330714084293184
 30
0.0
 40
2.875
100
AcDbArc
 50
70.423922543829278
 51
109.57607745617076
  0
ARC
  5
142
100
AcDbEntity
  8
Base
 62
256
370
-1
  6
BYLAYER
100
AcDbCircle
 10
-0.0330714084293149
 20
-0.0330714084293184
 30
0.0
 40
2.875
100
AcDbArc
 50
115.42392254382929
 51
154.57607745617076
  0
ARC
  5
143
100
AcDbEntity
  8
Base
 62
256
370
-1
  6
BYLAYER
100
AcDbCircle
 10
-0.0330714084293149
 20
-0.0330714084293184
 30
0.0
 40
2.875
100
AcDbArc
 50
160.42392254382929
 51
199.57607745617074
  0
ARC
  5
144
100
AcDbEntity
  8
Base
 62
256
370
-1
  6
BYLAYER
100
AcDbCircle
 10
-0.0330714084293149
 20
-0.0330714084293184
 30
0.0
 40
2.875
100
AcDbArc
 50
205.42392254382926
 51
244.57607745617071
  0
ARC
  5
145
100
AcDbEntity
  8
Base
 62
256
370
-1
  6
BYLAYER
100
AcDbCircle
 10
-0.0330714084293149
 20
-0.0330714084293184
 30
0.0
 40
2.875
100
AcDbArc
 50
250.42392254382929
 51
289.57607745617076
  0
ARC
  5
146
100
AcDbEntity
  8
Base
 62
256
370
-1
  6
BYLAYER
100
AcDbCircle
 10
-0.0330714084293149
 20
-0.0330714084293184
 30
0.0
 40
2.875
100
AcDbArc
 50
295.42392254382929
 51
334.57607745617071
  0
ARC
  5
147
100
AcDbEntity
  8
Base
 62
256
370
-1
  6
BYLAYER
100
AcDbCircle
 10
-0.0330714084293149
 20
-0.0330714084293184
 30
0.0
 40
2.875
100
AcDbArc
 50
340.42392254382929
 51
19.576077456170758
  0
CIRCLE
  5
148
100
AcDbEntity
100
AcDbCircle
  8
Top_Standoffs
 62
256
370
-1
  6
BYLAYER
 10
-1.9261131848348274
 20
1.8599703679761941
 30
0.0
 40
0.0625
  0
CIRCLE
  5
149
100
AcDbEntity
100
AcDbCircle
  8
Top_Standoffs
 62
256
370
-1
  6
BYLAYER
 10
1.8599703679761976
 20
1.8599703679761941
 30
0.0
 40
0.0625
  0
CIRCLE
  5
14A
100
AcDbEntity
100
AcDbCircle
  8
Top_Standoffs
 62
256
370
-1
  6
BYLAYER
 10
1.8599703679761976
 20
-1.9261131848348301
 30
0.0
 40
0.0625
  0
CIRCLE
  5
14B
100
AcDbEntity
100
AcDbCircle
  8
Top_Standoffs
 62
256
370
-1
  6
BYLAYER
 10
-1.9261131848348274
 20
-1.9261131848348301
 30
0.0
 40
0.0625
  0
CIRCLE
  5
14C
100
AcDbEntity
100
AcDbCircle
  8
On_Switch
 62
256
370
-1
  6
BYLAYER
 10
-0.0330714084293149
 20
1.5417317411769815
 30
0.0
 40
0.140625
  0
INSERT
  5
14D
100
AcDbEntity
100
AcDbBlockReference
  8
USB_Connector
 62
256
370
-1
  6
BYLAYER
  2
USB_B_Panel_Mount
 10
-0.0330714084293149
 20
2.3291333159801297
 30
0.0
  0
LINE
  5
14E
100
AcDbEntity
100
AcDbLine
  8
Base
 62
256
370
-1
  6
BYLAYER
 10
2.6290575092112096
 20
1.22835514546383
 30
0.0
 11
2.563502442503891
 21
1.2012013477513843
 31
0.0
  0
LINE
  5
14F
100
AcDbEntity
100
AcDbLine
  8
Base
 62
256
370
-1
  6
BYLAYER
 10
2.6757462051464049
 20
0.9302209336880338
 30
0.0
 11
2.7413012718537253
 21
0.9573747314004795
 31
0.0
  0
ARC
  5
150
100
AcDbEntity
  8
Base
 62
256
370
-1
  6
BYLAYER
100
AcDbCircle
 10
-0.0330714084293149
 20
-0.0330714084293184
 30
0.0
 40
3.063976377952756
100
AcDbArc
 50
15.692429089320086
 51
29.307570910679932
  0
LINE
  5
151
100
AcDbEntity
100
AcDbLine
  8
Base
 62
256
370
-1
  6
BYLAYER
 10
2.6387300847834663
 20
1.466737921291779
 30
0.0
 11
2.5288042702759927
 21
1.421205158067874
 31
0.0
  0
LINE
  5
152
100
AcDbEntity
100
AcDbLine
  8
Base
 62
256
370
-1
  6
BYLAYER
 10
2.8067770784309509
 20
0.7501194346492408
 30
0.0
 11
2.9167028929384227
 21
0.7956521978731441
 31
0.0
  0
ARC
  5
153
100
AcDbEntity
  8
Base
 62
256
370
-1
  6
BYLAYER
100
AcDbCircle
 10
-0.0330714084293149
 20
-0.0330714084293184
 30
0.0
 40
2.9458661417322833
100
AcDbArc
 50
15.418118309714227
 51
19.646474652318595
  0
ARC
  5
154
100
AcDbEntity
  8
Base
 62
256
370
-1
  6
BYLAYER
100
AcDbCircle
 10
-0.0330714084293149
 20
-0.0330714084293184
 30
0.0
 40
2.9458661417322833
100
AcDbArc
 50
25.353525347681458
 51
29.581881690285801
  0
LINE
  5
155
100
AcDbEntity
100
AcDbLine
  8
Base
 62
256
370
-1
  6
BYLAYER
 10
0.9573747314004812
 20
2.7413012718537235
 30
0.0
 11
0.9302209336880374
 21
2.6757462051464032
 31
0.0
  0
LINE
  5
156
100
AcDbEntity
100
AcDbLine
  8
Base
 62
256
370
-1
  6
BYLAYER
 10
1.2012013477513861
 20
2.5635024425038857
 30
0.0
 11
1.22835514546383
 21
2.6290575092112078
 31
0.0
  0
ARC
  5
157
100
AcDbEntity
  8
Base
 62
256
370
-1
  6
BYLAYER
100
AcDbCircle
 10
-0.0330714084293149
 20
-0.0330714084293184
 30
0.0
 40
3.063976377952756
100
AcDbArc
 50
60.692429089320079
 51
74.307570910679928
  0
LINE
  5
158
100
AcDbEntity
100
AcDbLine
  8
Base
 62
256
370
-1
  6
BYLAYER
 10
0.7956521978731477
 20
2.9167028929384209
 30
0.0
 11
0.7501194346492426
 21
2.8067770784309491
 31
0.0
  0
LINE
  5
159
100
AcDbEntity
100
AcDbLine
  8
Base
 62
256
370
-1
  6
BYLAYER
 10
1.4212051580678775
 20
2.528804270275991
 30
0.0
 11
1.4667379212917826
 21
2.6387300847834609
 31
0.0
  0
ARC
  5
15A
100
AcDbEntity
  8
Base
 62
256
370
-1
  6
BYLAYER
100
AcDbCircle
 10
-0.0330714084293149
 20
-0.0330714084293184
 30
0.0
 40
2.9458661417322833
100
AcDbArc
 50
60.418118309714231
 51
64.646474652318602
  0
ARC
  5
15B
100
AcDbEntity
  8
Base
 62
256
370
-1
  6
BYLAYER
100
AcDbCircle
 10
-0.0330714084293149
 20
-0.0330714084293184
 30
0.0
 40
2.9458661417322833
100
AcDbArc
 50
70.353525347681455
 51
74.581881690285812
  0
LINE
  5
15C
100
AcDbEntity
100
AcDbLine
  8
Base
 62
256
370
-1
  6
BYLAYER
 10
-1.2944979623224615
 20
2.6290575092112061
 30
0.0
 11
-1.2673441646100176
 21
2.5635024425038857
 31
0.0
  0
LINE
  5
15D
100
AcDbEntity
100
AcDbLine
  8
Base
 62
256
370
-1
  6
BYLAYER
 10
-0.9963637505466672
 20
2.6757462051464014
 30
0.0
 11
-1.0235175482591128
 21
2.7413012718537217
 31
0.0
  0
ARC
  5
15E
100
AcDbEntity
  8
Base
 62
256
370
-1
  6
BYLAYER
100
AcDbCircle
 10
-0.0330714084293149
 20
-0.0330714084293184
 30
0.0
 40
3.063976377952756
100
AcDbArc
 50
105.69242908932009
 51
119.30757091067994
  0
LINE
  5
15F
100
AcDbEntity
100
AcDbLine
  8
Base
 62
256
370
-1
  6
BYLAYER
 10
-1.5328807381504124
 20
2.6387300847834609
 30
0.0
 11
-1.4873479749265091
 21
2.528804270275991
 31
0.0
  0
LINE
  5
160
100
AcDbEntity
100
AcDbLine
  8
Base
 62
256
370
-1
  6
BYLAYER
 10
-0.8162622515078741
 20
2.8067770784309474
 30
0.0
 11
-0.8617950147317757
 21
2.9167028929384209
 31
0.0
  0
ARC
  5
161
100
AcDbEntity
  8
Base
 62
256
370
-1
  6
BYLAYER
100
AcDbCircle
 10
-0.0330714084293149
 20
-0.0330714084293184
 30
0.0
 40
2.9458661417322833
100
AcDbArc
 50
105.41811830971423
 51
109.6464746523186
  0
ARC
  5
162
100
AcDbEntity
  8
Base
 62
256
370
-1
  6
BYLAYER
100
AcDbCircle
 10
-0.0330714084293149
 20
-0.0330714084293184
 30
0.0
 40
2.9458661417322833
100
AcDbArc
 50
115.35352534768147
 51
119.58188169028581
  0
LINE
  5
163
100
AcDbEntity
100
AcDbLine
  8
Base
 62
256
370
-1
  6
BYLAYER
 10
-2.8074440887123568
 20
0.9573747314004777
 30
0.0
 11
-2.7418890220050365
 21
0.9302209336880321
 31
0.0
  0
LINE
  5
164
100
AcDbEntity
100
AcDbLine
  8
Base
 62
256
370
-1
  6
BYLAYER
 10
-2.629645259362519
 20
1.2012013477513825
 30
0.0
 11
-2.6952003260698394
 21
1.2283551454638282
 31
0.0
  0
ARC
  5
165
100
AcDbEntity
  8
Base
 62
256
370
-1
  6
BYLAYER
100
AcDbCircle
 10
-0.0330714084293149
 20
-0.0330714084293184
 30
0.0
 40
3.063976377952756
100
AcDbArc
 50
150.69242908932009
 51
164.30757091067994
  0
LINE
  5
166
100
AcDbEntity
100
AcDbLine
  8
Base
 62
256
370
-1
  6
BYLAYER
 10
-2.9828457097970542
 20
0.7956521978731423
 30
0.0
 11
-2.8729198952895825
 21
0.750119434649239
 31
0.0
  0
LINE
  5
167
100
AcDbEntity
100
AcDbLine
  8
Base
 62
256
370
-1
  6
BYLAYER
 10
-2.5949470871346243
 20
1.421205158067874
 30
0.0
 11
-2.7048729016420943
 21
1.466737921291779
 31
0.0
  0
ARC
  5
168
100
AcDbEntity
  8
Base
 62
256
370
-1
  6
BYLAYER
100
AcDbCircle
 10
-0.0330714084293149
 20
-0.0330714084293184
 30
0.0
 40
2.9458661417322833
100
AcDbArc
 50
150.4181183097142
 51
154.64647465231857
  0
ARC
  5
169
100
AcDbEntity
  8
Base
 62
256
370
-1
  6
BYLAYER
100
AcDbCircle
 10
-0.0330714084293149
 20
-0.0330714084293184
 30
0.0
 40
2.9458661417322833
100
AcDbArc
 50
160.35352534768145
 51
164.5818816902858
  0
LINE
  5
16A
100
AcDbEntity
100
AcDbLine
  8
Base
 62
256
370
-1
  6
BYLAYER
 10
-2.6952003260698394
 20
-1.2944979623224651
 30
0.0
 11
-2.6296452593625208
 21
-1.2673441646100212
 31
0.0
  0
LINE
  5
16B
100
AcDbEntity
100
AcDbLine
  8
Base
 62
256
370
-1
  6
BYLAYER
 10
-2.7418890220050347
 20
-0.9963637505466707
 30
0.0
 11
-2.8074440887123568
 21
-1.0235175482591155
 31
0.0
  0
ARC
  5
16C
100
AcDbEntity
  8
Base
 62
256
370
-1
  6
BYLAYER
100
AcDbCircle
 10
-0.0330714084293149
 20
-0.0330714084293184
 30
0.0
 40
3.063976377952756
100
AcDbArc
 50
195.69242908932009
 51
209.30757091067997
  0
LINE
  5
16D
100
AcDbEntity
100
AcDbLine
  8
Base
 62
256
370
-1
  6
BYLAYER
 10
-2.704872901642096
 20
-1.5328807381504159
 30
0.0
 11
-2.5949470871346225
 21
-1.4873479749265117
 31
0.0
  0
LINE
  5
16E
100
AcDbEntity
100
AcDbLine
  8
Base
 62
256
370
-1
  6
BYLAYER
 10
-2.8729198952895825
 20
-0.8162622515078777
 30
0.0
 11
-2.9828457097970542
 21
-0.8617950147317792
 31
0.0
  0
ARC
  5
16F
100
AcDbEntity
  8
Base
 62
256
370
-1
  6
BYLAYER
100
AcDbCircle
 10
-0.0330714084293149
 20
-0.0330714084293184
 30
0.0
 40
2.9458661417322833
100
AcDbArc
 50
195.41811830971423
 51
199.64647465231857
  0
ARC
  5
170
100
AcDbEntity
  8
Base
 62
256
370
-1
  6
BYLAYER
100
AcDbCircle
 10
-0.0330714084293149
 20
-0.0330714084293184
 30
0.0
 40
2.9458661417322833
100
AcDbArc
 50
205.35352534768145
 51
209.5818816902858
  0
LINE
  5
171
100
AcDbEntity
100
AcDbLine
  8
Base
 62
256
370
-1
  6
BYLAYER
 10
-1.023517548259111
 20
-2.8074440887123604
 30
0.0
 11
-0.9963637505466654
 21
-2.74188902200504
 31
0.0
  0
LINE
  5
172
100
AcDbEntity
100
AcDbLine
  8
Base
 62
256
370
-1
  6
BYLAYER
 10
-1.2673441646100159
 20
-2.6296452593625226
 30
0.0
 11
-1.2944979623224615
 21
-2.6952003260698429
 31
0.0
  0
ARC
  5
173
100
AcDbEntity
  8
Base
 62
256
370
-1
  6
BYLAYER
100
AcDbCircle
 10
-0.0330714084293149
 20
-0.0330714084293184
 30
0.0
 40
3.063976377952756
100
AcDbArc
 50
240.69242908932011
 51
254.30757091067997
  0
LINE
  5
174
100
AcDbEntity
100
AcDbLine
  8
Base
 62
256
370
-1
  6
BYLAYER
 10
-0.8617950147317774
 20
-2.9828457097970578
 30
0.0
 11
-0.8162622515078741
 21
-2.8729198952895842
 31
0.0
  0
LINE
  5
175
100
AcDbEntity
100
AcDbLine
  8
Base
 62
256
370
-1
  6
BYLAYER
 10
-1.4873479749265073
 20
-2.5949470871346278
 30
0.0
 11
-1.5328807381504124
 21
-2.7048729016420978
 31
0.0
  0
ARC
  5
176
100
AcDbEntity
  8
Base
 62
256
370
-1
  6
BYLAYER
100
AcDbCircle
 10
-0.0330714084293149
 20
-0.0330714084293184
 30
0.0
 40
2.9458661417322833
100
AcDbArc
 50
240.41811830971423
 51
244.64647465231857
  0
ARC
  5
177
100
AcDbEntity
  8
Base
 62
256
370
-1
  6
BYLAYER
100
AcDbCircle
 10
-0.0330714084293149
 20
-0.0330714084293184
 30
0.0
 40
2.9458661417322833
100
AcDbArc
 50
250.35352534768145
 51
254.58188169028577
  0
LINE
  5
178
100
AcDbEntity
100
AcDbLine
  8
Base
 62
256
370
-1
  6
BYLAYER
 10
1.2283551454638317
 20
-2.6952003260698438
 30
0.0
 11
1.2012013477513879
 21
-2.6296452593625235
 31
0.0
  0
LINE
  5
179
100
AcDbEntity
100
AcDbLine
  8
Base
 62
256
370
-1
  6
BYLAYER
 10
0.9302209336880374
 20
-2.7418890220050383
 30
0.0
 11
0.957374731400483
 21
-2.8074440887123595
 31
0.0
  0
ARC
  5
17A
100
AcDbEntity
  8
Base
 62
256
370
-1
  6
BYLAYER
100
AcDbCircle
 10
-0.0330714084293149
 20
-0.0330714084293184
 30
0.0
 40
3.063976377952756
100
AcDbArc
 50
285.69242908932011
 51
299.30757091067994
  0
LINE
  5
17B
100
AcDbEntity
100
AcDbLine
  8
Base
 62
256
370
-1
  6
BYLAYER
 10
1.4667379212917826
 20
-2.7048729016420987
 30
0.0
 11
1.4212051580678775
 21
-2.5949470871346278
 31
0.0
  0
LINE
  5
17C
100
AcDbEntity
100
AcDbLine
  8
Base
 62
256
370
-1
  6
BYLAYER
 10
0.7501194346492444
 20
-2.872919895289586
 30
0.0
 11
0.7956521978731459
 21
-2.9828457097970578
 31
0.0
  0
ARC
  5
17D
100
AcDbEntity
  8
Base
 62
256
370
-1
  6
BYLAYER
100
AcDbCircle
 10
-0.0330714084293149
 20
-0.0330714084293184
 30
0.0
 40
2.9458661417322833
100
AcDbArc
 50
285.41811830971426
 51
289.6464746523186
  0
ARC
  5
17E
100
AcDbEntity
  8
Base
 62
256
370
-1
  6
BYLAYER
100
AcDbCircle
 10
-0.0330714084293149
 20
-0.0330714084293184
 30
0.0
 40
2.9458661417322833
100
AcDbArc
 50
295.35352534768145
 51
299.58188169028574
  0
LINE
  5
17F
100
AcDbEntity
100
AcDbLine
  8
Base
 62
256
370
-1
  6
BYLAYER
 10
2.7413012718537271
 20
-1.0235175482591146
 30
0.0
 11
2.6757462051464067
 21
-0.9963637505466698
 31
0.0
  0
LINE
  5
180
100
AcDbEntity
100
AcDbLine
  8
Base
 62
256
370
-1
  6
BYLAYER
 10
2.5635024425038893
 20
-1.2673441646100194
 30
0.0
 11
2.6290575092112096
 21
-1.2944979623224651
 31
0.0
  0
ARC
  5
181
100
AcDbEntity
  8
Base
 62
256
370
-1
  6
BYLAYER
100
AcDbCircle
 10
-0.0330714084293149
 20
-0.0330714084293184
 30
0.0
 40
3.063976377952756
100
AcDbArc
 50
330.69242908932011
 51
344.30757091067994
  0
LINE
  5
182
100
AcDbEntity
100
AcDbLine
  8
Base
 62
256
370
-1
  6
BYLAYER
 10
2.9167028929384244
 20
-0.861795014731781
 30
0.0
 11
2.8067770784309509
 21
-0.8162622515078786
 31
0.0
  0
LINE
  5
183
100
AcDbEntity
100
AcDbLine
  8
Base
 62
256
370
-1
  6
BYLAYER
 10
2.5288042702759945
 20
-1.4873479749265108
 30
0.0
 11
2.6387300847834645
 21
-1.5328807381504159
 31
0.0
  0
ARC
  5
184
100
AcDbEntity
  8
Base
 62
256
370
-1
  6
BYLAYER
100
AcDbCircle
 10
-0.0330714084293149
 20
-0.0330714084293184
 30
0.0
 40
2.9458661417322833
100
AcDbArc
 50
330.41811830971426
 51
334.6464746523186
  0
ARC
  5
185
100
AcDbEntity
  8
Base
 62
256
370
-1
  6
BYLAYER
100
AcDbCircle
 10
-0.0330714084293149
 20
-0.0330714084293184
 30
0.0
 40
2.9458661417322833
100
AcDbArc
 50
340.35352534768145
 51
344.58188169028574
  0
ARC
  5
186
100
AcDbEntity
  8
Base
 62
256
370
-1
  6
BYLAYER
100
AcDbCircle
 10
-0.0330714084293149
 20
-0.0330714084293184
 30
0.0
 40
2.875
100
AcDbArc
 50
25.423922543829278
 51
64.576077456170765
  0
ENDBLK
  5
187
100
AcDbEntity
  8
0
100
AcDbBlockEnd
  0
BLOCK
  5
188
100
AcDbEntity
  8
0
100
AcDbBlockBegin
  2
cat
 70
0
 10
0.0
 20
0.0
 30
0.0
  3
cat
  1

  0
LINE
  5
189
100
AcDbEntity
100
AcDbLine
  8
0
 62
256
370
-1
  6
BYLAYER
 10
0.8196210720302521
 20
-0.0163620931035482
 30
0.0
 11
1.1345516275858083
 21
-0.0163620931035482
 31
0.0
  0
LINE
  5
18A
100
AcDbEntity
100
AcDbLine
  8
0
 62
256
370
-1
  6
BYLAYER
 10
1.1345516275858083
 20
-0.0163620931035482
 30
0.0
 11
1.2133710720302524
 21
-0.0163620931035482
 31
0.0
  0
LINE
  5
18B
100
AcDbEntity
100
AcDbLine
  8
0
 62
256
370
-1
  6
BYLAYER
 10
1.2133710720302524
 20
-0.0163620931035482
 30
0.0
 11
1.291843294252474
 21
-0.0163620931035482
 31
0.0
  0
SPLINE
  5
18C
  8
0
 62
256
370
-1
  6
BYLAYER
100
AcDbEntity
100
AcDbSpline
 70
8
 71
3
 72
8
 73
4
 74
0
 40
0.0
 40
0.0
 40
0.0
 40
0.0
 40
1.0
 40
1.0
 40
1.0
 40
1.0
 10
1.291843294252474
 20
-0.0163620931035482
 30
0.0
 10
1.357276405363586
 20
-0.0163620931035482
 30
0.0
 10
1.4102460720302519
 20
0.0273742402297854
 30
0.0
 10
1.4102460720302519
 20
0.081901795785341
 30
0.0
  0
SPLINE
  5
18D
  8
0
 62
256
370
-1
  6
BYLAYER
100
AcDbEntity
100
AcDbSpline
 70
8
 71
3
 72
8
 73
4
 74
0
 40
0.0
 40
0.0
 40
0.0
 40
0.0
 40
1.0
 40
1.0
 40
1.0
 40
1.0
 10
1.4102460720302519
 20
0.081901795785341
 30
0.0
 10
1.4102460720302519
 20
0.1364293513408967
 30
0.0
 10
1.357276405363586
 20
0.1805129068964519
 30
0.0
 10
1.291843294252474
 20
0.1805129068964519
 30
0.0
  0
LINE
  5
18E
100
AcDbEntity
100
AcDbLine
  8
0
 62
256
370
-1
  6
BYLAYER
 10
1.291843294252474
 20
0.1805129068964519
 30
0.0
 11
1.2133710720302524
 21
0.1805129068964519
 31
0.0
  0
LINE
  5
18F
100
AcDbEntity
100
AcDbLine
  8
0
 62
256
370
-1
  6
BYLAYER
 10
1.2133710720302524
 20
0.1805129068964519
 30
0.0
 11
1.2133710720302524
 21
0.3770406846742302
 31
0.0
  0
LINE
  5
190
100
AcDbEntity
100
AcDbLine
  8
0
 62
256
370
-1
  6
BYLAYER
 10
1.2133710720302524
 20
0.3770406846742302
 30
0.0
 11
1.2133710720302524
 21
0.7707906846742296
 31
0.0
  0
LINE
  5
191
100
AcDbEntity
100
AcDbLine
  8
0
 62
256
370
-1
  6
BYLAYER
 10
1.2133710720302524
 20
0.7707906846742296
 30
0.0
 11
1.2133710720302524
 21
0.9676656846742295
 31
0.0
  0
LINE
  5
192
100
AcDbEntity
100
AcDbLine
  8
0
 62
256
370
-1
  6
BYLAYER
 10
1.2133710720302524
 20
0.9676656846742295
 30
0.0
 11
1.291843294252474
 21
0.9676656846742295
 31
0.0
  0
SPLINE
  5
193
  8
0
 62
256
370
-1
  6
BYLAYER
100
AcDbEntity
100
AcDbSpline
 70
8
 71
3
 72
8
 73
4
 74
0
 40
0.0
 40
0.0
 40
0.0
 40
0.0
 40
1.0
 40
1.0
 40
1.0
 40
1.0
 10
1.291843294252474
 20
0.9676656846742295
 30
0.0
 10
1.357276405363586
 20
0.9676656846742295
 30
0.0
 10
1.4102460720302519
 20
1.011749240229785
 30
0.0
 10
1.4102460720302519
 20
1.0662767957853405
 30
0.0
  0
SPLINE
  5
194
  8
0
 62
256
370
-1
  6
BYLAYER
100
AcDbEntity
100
AcDbSpline
 70
8
 71
3
 72
8
 73
4
 74
0
 40
0.0
 40
0.0
 40
0.0
 40
0.0
 40
1.0
 40
1.0
 40
1.0
 40
1.0
 10
1.4102460720302519
 20
1.0662767957853405
 30
0.0
 10
1.4102460720302519
 20
1.1208043513408965
 30
0.0
 10
1.357276405363586
 20
1.1645406846742299
 30
0.0
 10
1.291843294252474
 20
1.1645406846742299
 30
0.0
  0
LINE
  5
195
100
AcDbEntity
100
AcDbLine
  8
0
 62
256
370
-1
  6
BYLAYER
 10
1.291843294252474
 20
1.1645406846742299
 30
0.0
 11
1.2133710720302524
 21
1.1645406846742299
 31
0.0
  0
LINE
  5
196
100
AcDbEntity
100
AcDbLine
  8
0
 62
256
370
-1
  6
BYLAYER
 10
1.2133710720302524
 20
1.1645406846742299
 30
0.0
 11
1.1345516275858083
 21
1.1645406846742299
 31
0.0
  0
LINE
  5
197
100
AcDbEntity
100
AcDbLine
  8
0
 62
256
370
-1
  6
BYLAYER
 10
1.1345516275858083
 20
1.1645406846742299
 30
0.0
 11
-1.1491289279697476
 21
1.1645406846742299
 31
0.0
  0
LINE
  5
198
100
AcDbEntity
100
AcDbLine
  8
0
 62
256
370
-1
  6
BYLAYER
 10
-1.1491289279697476
 20
1.1645406846742299
 30
0.0
 11
-1.1491289279697476
 21
1.1645406846742299
 31
0.0
  0
LINE
  5
199
100
AcDbEntity
100
AcDbLine
  8
0
 62
256
370
-1
  6
BYLAYER
 10
-1.1491289279697476
 20
1.1645406846742299
 30
0.0
 11
-1.1491289279697476
 21
0.7707906846742296
 31
0.0
  0
LINE
  5
19A
100
AcDbEntity
100
AcDbLine
  8
0
 62
256
370
-1
  6
BYLAYER
 10
-1.1491289279697476
 20
0.7707906846742296
 30
0.0
 11
-1.5425317057475256
 21
0.7707906846742296
 31
0.0
  0
LINE
  5
19B
100
AcDbEntity
100
AcDbLine
  8
0
 62
256
370
-1
  6
BYLAYER
 10
-1.5425317057475256
 20
0.7707906846742296
 30
0.0
 11
-1.5425317057475256
 21
0.3770406846742302
 31
0.0
  0
LINE
  5
19C
100
AcDbEntity
100
AcDbLine
  8
0
 62
256
370
-1
  6
BYLAYER
 10
-1.5425317057475256
 20
0.3770406846742302
 30
0.0
 11
-1.1491289279697476
 21
0.3770406846742302
 31
0.0
  0
LINE
  5
19D
100
AcDbEntity
100
AcDbLine
  8
0
 62
256
370
-1
  6
BYLAYER
 10
-1.1491289279697476
 20
0.3770406846742302
 30
0.0
 11
-1.1491289279697476
 21
-0.0163620931035482
 31
0.0
  0
LINE
  5
19E
100
AcDbEntity
100
AcDbLine
  8
0
 62
256
370
-1
  6
BYLAYER
 10
-1.1491289279697476
 20
-0.0163620931035482
 30
0.0
 11
-1.1491289279697476
 21
-0.410112093103548
 31
0.0
  0
LINE
  5
19F
100
AcDbEntity
100
AcDbLine
  8
0
 62
256
370
-1
  6
BYLAYER
 10
-1.1491289279697476
 20
-0.410112093103548
 30
0.0
 11
-1.5425317057475256
 21
-0.410112093103548
 31
0.0
  0
LINE
  5
1A0
100
AcDbEntity
100
AcDbLine
  8
0
 62
256
370
-1
  6
BYLAYER
 10
-1.5425317057475256
 20
-0.410112093103548
 30
0.0
 11
-1.5425317057475256
 21
-0.803862093103548
 31
0.0
  0
LINE
  5
1A1
100
AcDbEntity
100
AcDbLine
  8
0
 62
256
370
-1
  6
BYLAYER
 10
-1.5425317057475256
 20
-0.803862093103548
 30
0.0
 11
-1.1491289279697476
 21
-0.803862093103548
 31
0.0
  0
LINE
  5
1A2
100
AcDbEntity
100
AcDbLine
  8
0
 62
256
370
-1
  6
BYLAYER
 10
-1.1491289279697476
 20
-0.803862093103548
 30
0.0
 11
-1.1491289279697476
 21
-1.1976120931035483
 31
0.0
  0
LINE
  5
1A3
100
AcDbEntity
100
AcDbLine
  8
0
 62
256
370
-1
  6
BYLAYER
 10
-1.1491289279697476
 20
-1.1976120931035483
 30
0.0
 11
0.7408016275858076
 21
-1.1976120931035483
 31
0.0
  0
LINE
  5
1A4
100
AcDbEntity
100
AcDbLine
  8
0
 62
256
370
-1
  6
BYLAYER
 10
0.7408016275858076
 20
-1.1976120931035483
 30
0.0
 11
0.8196210720302521
 21
-1.1976120931035483
 31
0.0
  0
LINE
  5
1A5
100
AcDbEntity
100
AcDbLine
  8
0
 62
256
370
-1
  6
BYLAYER
 10
0.8196210720302521
 20
-1.1976120931035483
 30
0.0
 11
0.8984405164746967
 21
-1.1976120931035483
 31
0.0
  0
SPLINE
  5
1A6
  8
0
 62
256
370
-1
  6
BYLAYER
100
AcDbEntity
100
AcDbSpline
 70
8
 71
3
 72
8
 73
4
 74
0
 40
0.0
 40
0.0
 40
0.0
 40
0.0
 40
1.0
 40
1.0
 40
1.0
 40
1.0
 10
0.8984405164746967
 20
-1.1976120931035483
 30
0.0
 10
0.9638736275858078
 20
-1.1976120931035483
 30
0.0
 10
1.0164960720302525
 20
-1.1538757597702147
 30
0.0
 10
1.0164960720302525
 20
-1.0993482042146592
 30
0.0
  0
SPLINE
  5
1A7
  8
0
 62
256
370
-1
  6
BYLAYER
100
AcDbEntity
100
AcDbSpline
 70
8
 71
3
 72
8
 73
4
 74
0
 40
0.0
 40
0.0
 40
0.0
 40
0.0
 40
1.0
 40
1.0
 40
1.0
 40
1.0
 10
1.0164960720302525
 20
-1.0993482042146592
 30
0.0
 10
1.0164960720302525
 20
-1.0448206486591038
 30
0.0
 10
0.9638736275858078
 20
-1.000737093103548
 30
0.0
 10
0.8984405164746967
 20
-1.000737093103548
 30
0.0
  0
LINE
  5
1A8
100
AcDbEntity
100
AcDbLine
  8
0
 62
256
370
-1
  6
BYLAYER
 10
0.8984405164746967
 20
-1.000737093103548
 30
0.0
 11
0.8196210720302521
 21
-1.000737093103548
 31
0.0
  0
LINE
  5
1A9
100
AcDbEntity
100
AcDbLine
  8
0
 62
256
370
-1
  6
BYLAYER
 10
0.8196210720302521
 20
-1.000737093103548
 30
0.0
 11
0.8196210720302521
 21
-0.803862093103548
 31
0.0
  0
LINE
  5
1AA
100
AcDbEntity
100
AcDbLine
  8
0
 62
256
370
-1
  6
BYLAYER
 10
0.8196210720302521
 20
-0.803862093103548
 30
0.0
 11
0.8196210720302521
 21
-0.410112093103548
 31
0.0
  0
LINE
  5
1AB
100
AcDbEntity
100
AcDbLine
  8
0
 62
256
370
-1
  6
BYLAYER
 10
0.8196210720302521
 20
-0.410112093103548
 30
0.0
 11
0.8196210720302521
 21
-0.0163620931035482
 31
0.0
  0
ENDBLK
  5
1AC
100
AcDbEntity
  8
0
100
AcDbBlockEnd
  0
ENDSEC
  0
SECTION
  2
ENTITIES
  0
LINE
  5
1AD
100
AcDbEntity
100
AcDbLine
  8
paperboundary
 62
256
370
-1
  6
BYLAYER
 10
0.0
 20
0.0
 30
0.0
 11
24.0
 21
0.0
 31
0.0
  0
LINE
  5
1AE
100
AcDbEntity
100
AcDbLine
  8
paperboundary
 62
256
370
-1
  6
BYLAYER
 10
24.0
 20
0.0
 30
0.0
 11
24.0
 21
12.0
 31
0.0
  0
LINE
  5
1AF
100
AcDbEntity
100
AcDbLine
  8
paperboundary
 62
256
370
-1
  6
BYLAYER
 10
24.0
 20
12.0
 30
0.0
 11
0.0
 21
12.0
 31
0.0
  0
LINE
  5
1B0
100
AcDbEntity
100
AcDbLine
  8
paperboundary
 62
256
370
-1
  6
BYLAYER
 10
0.0
 20
12.0
 30
0.0
 11
0.0
 21
0.0
 31
0.0
  0
INSERT
  5
1B1
100
AcDbEntity
100
AcDbBlockReference
  8
0
 62
256
370
0
  6
BYLAYER
  2
base
 10
3.8362833778009131
 20
8.7107035924894021
 30
0.0
  0
INSERT
  5
1B2
100
AcDbEntity
100
AcDbBlockReference
  8
0
 62
256
370
0
  6
BYLAYER
  2
top
 10
10.00410104986876
 20
8.7437750009187205
 30
0.0
  0
INSERT
  5
1B3
100
AcDbEntity
100
AcDbBlockReference
  8
0
 62
256
370
0
  6
BYLAYER
  2
Side_Piece
 10
22.126350296089011
 20
9.7241157202089745
 30
0.0
  0
INSERT
  5
1B4
100
AcDbEntity
100
AcDbBlockReference
  8
nextsteps
 62
256
370
0
  6
BYLAYER
  2
End_Piece
 10
19.329455977093762
 20
11.106020396897113
 30
0.0
  0
INSERT
  5
1B5
100
AcDbEntity
100
AcDbBlockReference
  8
nextsteps
 62
256
370
0
  6
BYLAYER
  2
Side_Piece
 10
22.093278887659693
 20
8.4508664956802235
 30
0.0
  0
INSERT
  5
1B6
100
AcDbEntity
100
AcDbBlockReference
  8
nextsteps
 62
256
370
0
  6
BYLAYER
  2
top
 10
16.05616879243399
 20
8.8264535219920184
 30
0.0
  0
INSERT
  5
1B7
100
AcDbEntity
100
AcDbBlockReference
  8
nextsteps
 62
256
370
0
  6
BYLAYER
  2
top
 10
6.9449957701568223
 20
3.2869926100812155
 30
0.0
  0
INSERT
  5
1B8
100
AcDbEntity
100
AcDbBlockReference
  8
nextsteps
 62
256
370
0
  6
BYLAYER
  2
base
 10
19.231024001648542
 20
3.3696711311545116
 30
0.0
  0
INSERT
  5
1B9
100
AcDbEntity
100
AcDbBlockReference
  8
nextsteps
 62
256
370
0
  6
BYLAYER
  2
Side_Piece
 10
22.076743183445032
 20
7.2036009808323902
 30
0.0
  0
INSERT
  5
1BA
100
AcDbEntity
100
AcDbBlockReference
  8
0
 62
256
370
0
  6
BYLAYER
  2
Side_Piece
 10
19.645994663890143
 20
8.3280288674292091
 30
0.0
 50
90.0
  0
INSERT
  5
1BB
100
AcDbEntity
100
AcDbBlockReference
  8
nextsteps
 62
256
370
0
  6
BYLAYER
  2
End_Piece
 10
21.370078740157481
 20
11.059055118110235
 30
0.0
  0
INSERT
  5
1BC
100
AcDbEntity
100
AcDbBlockReference
  8
0
 62
256
370
0
  6
BYLAYER
  2
End_Piece
 10
12.914384991648763
 20
11.283185751227823
 30
0.0
  0
INSERT
  5
1BD
100
AcDbEntity
100
AcDbBlockReference
  8
0
 62
256
370
0
  6
BYLAYER
  2
End_Piece
 10
6.8457815448688706
 20
11.250114342798504
 30
0.0
  0
INSERT
  5
1BE
100
AcDbEntity
100
AcDbBlockReference
  8
nextsteps
 62
256
370
0
  6
BYLAYER
  2
End_Piece
 10
10.00410104986876
 20
0.7901012736676911
 30
0.0
 50
180.0
  0
INSERT
  5
1BF
100
AcDbEntity
100
AcDbBlockReference
  8
nextsteps
 62
256
370
0
  6
BYLAYER
  2
End_Piece
 10
16.221525834580586
 20
0.7901012736676911
 30
0.0
 50
180.0
  0
INSERT
  5
1C0
100
AcDbEntity
100
AcDbBlockReference
  8
nextsteps
 62
256
370
0
  6
BYLAYER
  2
base
 10
13.088691660347425
 20
3.2704569058665562
 30
0.0
  0
INSERT
  5
1C1
100
AcDbEntity
100
AcDbBlockReference
  8
nextsteps
 62
256
370
0
  6
BYLAYER
  2
Side_Piece
 10
23.0
 20
5.0
 30
0.0
 50
90.0
  0
INSERT
  5
1C2
100
AcDbEntity
100
AcDbBlockReference
  8
nextsteps
 62
256
370
0
  6
BYLAYER
  2
Side_Piece
 10
22.809823810763309
 20
1.8153149349765556
 30
0.0
 50
90.0
  0
INSERT
  5
1C3
100
AcDbEntity
100
AcDbBlockReference
  8
0
 62
256
370
0
  6
BYLAYER
  2
cat
 10
2.2984628858376164
 20
1.7491721181179187
 30
0.0
 41
1.0
 42
-1.0
 43
1.0
  0
INSERT
  5
1C4
100
AcDbEntity
100
AcDbBlockReference
  8
0
 62
256
370
0
  6
BYLAYER
  2
cat
 10
2.4638199279842077
 20
4.4279562008926945
 30
0.0
  0
ENDSEC
  0
SECTION
  2
OBJECTS
  0
DICTIONARY
  5
C
100
AcDbDictionary
280
0
281
1
  3
ACAD_GROUP
350
D
  3
ACAD_LAYOUT
350
1A
  3
ACAD_MLINESTYLE
350
17
  3
ACAD_PLOTSETTINGS
350
19
  3
ACAD_PLOTSTYLENAME
350
E
  3
AcDbVariableDictionary
350
1C5
  3
QCAD_OBJECTS
350
1C6
  0
DICTIONARY
  5
D
100
AcDbDictionary
280
0
281
1
  0
ACDBDICTIONARYWDFLT
  5
E
100
AcDbDictionary
281
1
  3
Normal
350
F
100
AcDbDictionaryWithDefault
340
F
  0
ACDBPLACEHOLDER
  5
F
  0
DICTIONARY
  5
17
100
AcDbDictionary
280
0
281
1
  3
Standard
350
18
  0
MLINESTYLE
  5
18
100
AcDbMlineStyle
  2
STANDARD
 70
0
  3

 62
256
 51
90.0
 52
90.0
 71
2
 49
0.5
 62
256
  6
BYLAYER
 49
-0.5
 62
256
  6
BYLAYER
  0
DICTIONARY
  5
19
100
AcDbDictionary
280
0
281
1
  0
DICTIONARY
  5
1A
100
AcDbDictionary
281
1
  3
Layout1
350
1E
  3
Layout2
350
26
  3
Model
350
22
  0
LAYOUT
  5
1E
100
AcDbPlotSettings
  1

  2
none_device
  4

  6

 40
0.0
 41
0.0
 42
0.0
 43
0.0
 44
0.0
 45
0.0
 46
0.0
 47
0.0
 48
0.0
 49
0.0
140
0.0
141
0.0
142
1.0
143
1.0
 70
688
 72
0
 73
0
 74
5
  7

 75
16
147
1.0
148
0.0
149
0.0
100
AcDbLayout
  1
Layout1
 70
1
 71
1
 10
0.0
 20
0.0
 11
420.0
 21
297.0
 12
0.0
 22
0.0
 32
0.0
 14
100000000000000000000.0
 24
100000000000000000000.0
 34
100000000000000000000.0
 15
-100000000000000000000.0
 25
-100000000000000000000.0
 35
-100000000000000000000.0
146
0.0
 13
0.0
 23
0.0
 33
0.0
 16
1.0
 26
0.0
 36
0.0
 17
0.0
 27
1.0
 37
0.0
 76
0
330
1B
  0
LAYOUT
  5
22
100
AcDbPlotSettings
  1

  2
none_device
  4

  6

 40
0.0
 41
0.0
 42
0.0
 43
0.0
 44
0.0
 45
0.0
 46
0.0
 47
0.0
 48
0.0
 49
0.0
140
0.0
141
0.0
142
1.0
143
1.0
 70
1712
 72
0
 73
0
 74
0
  7

 75
0
147
1.0
148
0.0
149
0.0
100
AcDbLayout
  1
Model
 70
1
 71
0
 10
0.0
 20
0.0
 11
12.0
 21
9.0
 12
0.0
 22
0.0
 32
0.0
 14
0.0
 24
0.0
 34
0.0
 15
0.0
 25
0.0
 35
0.0
146
0.0
 13
0.0
 23
0.0
 33
0.0
 16
1.0
 26
0.0
 36
0.0
 17
0.0
 27
1.0
 37
0.0
 76
0
330
1F
  0
LAYOUT
  5
26
100
AcDbPlotSettings
  1

  2
none_device
  4

  6

 40
0.0
 41
0.0
 42
0.0
 43
0.0
 44
0.0
 45
0.0
 46
0.0
 47
0.0
 48
0.0
 49
0.0
140
0.0
141
0.0
142
1.0
143
1.0
 70
688
 72
0
 73
0
 74
5
  7

 75
16
147
1.0
148
0.0
149
0.0
100
AcDbLayout
  1
Layout2
 70
1
 71
2
 10
0.0
 20
0.0
 11
12.0
 21
9.0
 12
0.0
 22
0.0
 32
0.0
 14
0.0
 24
0.0
 34
0.0
 15
0.0
 25
0.0
 35
0.0
146
0.0
 13
0.0
 23
0.0
 33
0.0
 16
1.0
 26
0.0
 36
0.0
 17
0.0
 27
1.0
 37
0.0
 76
0
330
23
  0
DICTIONARY
  5
1C5
100
AcDbDictionary
281
1
  3
DIMASSOC
350
1C8
  3
HIDETEXT
350
1C7
  0
DICTIONARYVAR
  5
1C7
100
DictionaryVariables
280
0
  1
2
  0
DICTIONARYVAR
  5
1C8
100
DictionaryVariables
280
0
  1
1
  0
DICTIONARY
  5
1C6
100
AcDbDictionary
281
1
  3
Grid/DisplayGrid00
350
1C9
  3
Grid/DisplayGrid01
350
1CA
  3
Grid/DisplayGrid02
350
1CB
  3
Grid/DisplayGrid03
350
1CC
  3
Grid/GridSpacingX00
350
1CD
  3
Grid/GridSpacingX01
350
1CE
  3
Grid/GridSpacingX02
350
1CF
  3
Grid/GridSpacingX03
350
1D0
  3
Grid/GridSpacingY00
350
1D1
  3
Grid/GridSpacingY01
350
1D2
  3
Grid/GridSpacingY02
350
1D3
  3
Grid/GridSpacingY03
350
1D4
  3
Grid/IsometricGrid00
350
1D5
  3
Grid/IsometricGrid01
350
1D6
  3
Grid/IsometricGrid02
350
1D7
  3
Grid/IsometricGrid03
350
1D8
  3
Grid/IsometricProjection00
350
1D9
  3
Grid/IsometricProjection01
350
1DA
  3
Grid/IsometricProjection02
350
1DB
  3
Grid/IsometricProjection03
350
1DC
  3
Grid/MetaGridSpacingX00
350
1DD
  3
Grid/MetaGridSpacingX01
350
1DE
  3
Grid/MetaGridSpacingX02
350
1DF
  3
Grid/MetaGridSpacingX03
350
1E0
  3
Grid/MetaGridSpacingY00
350
1E1
  3
Grid/MetaGridSpacingY01
350
1E2
  3
Grid/MetaGridSpacingY02
350
1E3
  3
Grid/MetaGridSpacingY03
350
1E4
  3
MultiPageSettings/Columns
350
1E5
  3
MultiPageSettings/GlueMarginsBottom
350
1E6
  3
MultiPageSettings/GlueMarginsLeft
350
1E7
  3
MultiPageSettings/GlueMarginsRight
350
1E8
  3
MultiPageSettings/GlueMarginsTop
350
1E9
  3
MultiPageSettings/PrintCropMarks
350
1EA
  3
MultiPageSettings/Rows
350
1EB
  3
PageSettings/OffsetX
350
1EC
  3
PageSettings/OffsetY
350
1ED
  3
PageSettings/PageOrientation
350
1EE
  3
PageSettings/PaperHeight
350
1EF
  3
PageSettings/PaperSizeName
350
1F0
  3
PageSettings/PaperWidth
350
1F1
  3
PageSettings/Scale
350
1F2
  3
PageSettings/ShowPaperBorders
350
1F3
  3
PointDisplaySettings/Button0
350
1F4
  3
PointDisplaySettings/Mode
350
1F5
  3
PointDisplaySettings/Size
350
1F6
  3
UnitSettings/PaperUnit
350
1F7
  0
XRECORD
  5
1C9
330
1C6
100
AcDbXrecord
280
1
290
1
  0
XRECORD
  5
1CA
330
1C6
100
AcDbXrecord
280
1
290
1
  0
XRECORD
  5
1CB
330
1C6
100
AcDbXrecord
280
1
290
1
  0
XRECORD
  5
1CC
330
1C6
100
AcDbXrecord
280
1
290
1
  0
XRECORD
  5
1CD
330
1C6
100
AcDbXrecord
280
1
1000
auto
  0
XRECORD
  5
1CE
330
1C6
100
AcDbXrecord
280
1
1000
auto
  0
XRECORD
  5
1CF
330
1C6
100
AcDbXrecord
280
1
1000
auto
  0
XRECORD
  5
1D0
330
1C6
100
AcDbXrecord
280
1
1000
auto
  0
XRECORD
  5
1D1
330
1C6
100
AcDbXrecord
280
1
1000
auto
  0
XRECORD
  5
1D2
330
1C6
100
AcDbXrecord
280
1
1000
auto
  0
XRECORD
  5
1D3
330
1C6
100
AcDbXrecord
280
1
1000
auto
  0
XRECORD
  5
1D4
330
1C6
100
AcDbXrecord
280
1
1000
auto
  0
XRECORD
  5
1D5
330
1C6
100
AcDbXrecord
280
1
290
0
  0
XRECORD
  5
1D6
330
1C6
100
AcDbXrecord
280
1
290
0
  0
XRECORD
  5
1D7
330
1C6
100
AcDbXrecord
280
1
290
0
  0
XRECORD
  5
1D8
330
1C6
100
AcDbXrecord
280
1
290
0
  0
XRECORD
  5
1D9
330
1C6
100
AcDbXrecord
280
1
 90
0
  0
XRECORD
  5
1DA
330
1C6
100
AcDbXrecord
280
1
 90
0
  0
XRECORD
  5
1DB
330
1C6
100
AcDbXrecord
280
1
 90
0
  0
XRECORD
  5
1DC
330
1C6
100
AcDbXrecord
280
1
 90
0
  0
XRECORD
  5
1DD
330
1C6
100
AcDbXrecord
280
1
1000
auto
  0
XRECORD
  5
1DE
330
1C6
100
AcDbXrecord
280
1
1000
auto
  0
XRECORD
  5
1DF
330
1C6
100
AcDbXrecord
280
1
1000
auto
  0
XRECORD
  5
1E0
330
1C6
100
AcDbXrecord
280
1
1000
auto
  0
XRECORD
  5
1E1
330
1C6
100
AcDbXrecord
280
1
1000
auto
  0
XRECORD
  5
1E2
330
1C6
100
AcDbXrecord
280
1
1000
auto
  0
XRECORD
  5
1E3
330
1C6
100
AcDbXrecord
280
1
1000
auto
  0
XRECORD
  5
1E4
330
1C6
100
AcDbXrecord
280
1
1000
auto
  0
XRECORD
  5
1E5
330
1C6
100
AcDbXrecord
280
1
 90
1
  0
XRECORD
  5
1E6
330
1C6
100
AcDbXrecord
280
1
 40
10.0
  0
XRECORD
  5
1E7
330
1C6
100
AcDbXrecord
280
1
 40
10.0
  0
XRECORD
  5
1E8
330
1C6
100
AcDbXrecord
280
1
 40
10.0
  0
XRECORD
  5
1E9
330
1C6
100
AcDbXrecord
280
1
 40
10.0
  0
XRECORD
  5
1EA
330
1C6
100
AcDbXrecord
280
1
290
0
  0
XRECORD
  5
1EB
330
1C6
100
AcDbXrecord
280
1
 90
1
  0
XRECORD
  5
1EC
330
1C6
100
AcDbXrecord
280
1
 40
0.0
  0
XRECORD
  5
1ED
330
1C6
100
AcDbXrecord
280
1
 40
0.0
  0
XRECORD
  5
1EE
330
1C6
100
AcDbXrecord
280
1
1000
Landscape
  0
XRECORD
  5
1EF
330
1C6
100
AcDbXrecord
280
1
1000
24
  0
XRECORD
  5
1F0
330
1C6
100
AcDbXrecord
280
1
1000
Custom
  0
XRECORD
  5
1F1
330
1C6
100
AcDbXrecord
280
1
1000
12
  0
XRECORD
  5
1F2
330
1C6
100
AcDbXrecord
280
1
1000
1:1
  0
XRECORD
  5
1F3
330
1C6
100
AcDbXrecord
280
1
290
1
  0
XRECORD
  5
1F4
330
1C6
100
AcDbXrecord
280
1
1000
Button0
  0
XRECORD
  5
1F5
330
1C6
100
AcDbXrecord
280
1
1000
0
  0
XRECORD
  5
1F6
330
1C6
100
AcDbXrecord
280
1
1000
0
  0
XRECORD
  5
1F7
330
1C6
100
AcDbXrecord
280
1
 40
1.0
  0
ENDSEC
  0
EOF
