999
dxflib 3.3.4.0
  0
SECTION
  2
HEADER
  9
$ACADVER
  1
AC1015
  9
$HANDSEED
  5
FFFF
  9
$DIMADEC
 70
0
  9
$DIMASZ
 40
2.5
  9
$DIMAUNIT
 70
0
  9
$DIMAZIN
 70
2
  9
$DIMDEC
 70
4
  9
$DIMEXE
 40
1.25
  9
$DIMEXO
 40
0.625
  9
$DIMGAP
 40
0.625
  9
$DIMLUNIT
 70
2
  9
$DIMSCALE
 40
1.0
  9
$DIMTSZ
 40
0.0
  9
$DIMTXT
 40
2.5
  9
$DIMZIN
 70
8
  9
$DWGCODEPAGE
  3
ANSI_1252
  9
$INSUNITS
 70
4
  9
$LTSCALE
 40
1.0
  0
ENDSEC
  0
SECTION
  2
TABLES
  0
TABLE
  2
VPORT
  5
8
100
AcDbSymbolTable
 70
1
  0
VPORT
  5
30
100
AcDbSymbolTableRecord
100
AcDbViewportTableRecord
  2
*Active
 70
0
 10
0.0
 20
0.0
 11
1.0
 21
1.0
 12
286.30555555555549
 22
148.5
 13
0.0
 23
0.0
 14
10.0
 24
10.0
 15
10.0
 25
10.0
 16
0.0
 26
0.0
 36
1.0
 17
0.0
 27
0.0
 37
0.0
 40
297.0
 41
1.92798353909465
 42
50.0
 43
0.0
 44
0.0
 50
0.0
 51
0.0
 71
0
 72
100
 73
1
 74
3
 75
1
 76
1
 77
0
 78
0
281
0
 65
1
110
0.0
120
0.0
130
0.0
111
1.0
121
0.0
131
0.0
112
0.0
122
1.0
132
0.0
 79
0
146
0.0
  0
ENDTAB
  0
TABLE
  2
LTYPE
  5
5
100
AcDbSymbolTable
 70
21
  0
LTYPE
  5
16
100
AcDbSymbolTableRecord
100
AcDbLinetypeTableRecord
  2
CONTINUOUS
 70
0
  3
Solid line
 72
65
 73
0
 40
0.0
  0
LTYPE
  5
31
100
AcDbSymbolTableRecord
100
AcDbLinetypeTableRecord
  2
CENTER2
 70
0
  3
Center (.5x) ___ _ ___ _ ___ _ ___ _ ___ _ ___
 72
65
 73
4
 40
28.574999999999999
 49
19.050000000000001
 74
0
 49
-3.1749999999999998
 74
0
 49
3.1749999999999998
 74
0
 49
-3.1749999999999998
 74
0
  0
LTYPE
  5
32
100
AcDbSymbolTableRecord
100
AcDbLinetypeTableRecord
  2
DIVIDEX2
 70
0
  3
Divide (2x) ________  .  .  ________  .  .  _
 72
65
 73
6
 40
63.5
 49
25.399999999999999
 74
0
 49
-12.699999999999999
 74
0
 49
0.0
 74
0
 49
-12.699999999999999
 74
0
 49
0.0
 74
0
 49
-12.699999999999999
 74
0
  0
LTYPE
  5
33
100
AcDbSymbolTableRecord
100
AcDbLinetypeTableRecord
  2
DOT2
 70
0
  3
Dot (.5x) .....................................
 72
65
 73
2
 40
3.1749999999999998
 49
0.0
 74
0
 49
-3.1749999999999998
 74
0
  0
LTYPE
  5
34
100
AcDbSymbolTableRecord
100
AcDbLinetypeTableRecord
  2
DASHDOT2
 70
0
  3
Dash dot (.5x) _._._._._._._._._._._._._._._.
 72
65
 73
4
 40
12.699999999999999
 49
6.3499999999999996
 74
0
 49
-3.1749999999999998
 74
0
 49
0.0
 74
0
 49
-3.1749999999999998
 74
0
  0
LTYPE
  5
35
100
AcDbSymbolTableRecord
100
AcDbLinetypeTableRecord
  2
DIVIDE
 70
0
  3
Divide ____ . . ____ . . ____ . . ____ . . ____
 72
65
 73
6
 40
31.75
 49
12.699999999999999
 74
0
 49
-6.3499999999999996
 74
0
 49
0.0
 74
0
 49
-6.3499999999999996
 74
0
 49
0.0
 74
0
 49
-6.3499999999999996
 74
0
  0
LTYPE
  5
36
100
AcDbSymbolTableRecord
100
AcDbLinetypeTableRecord
  2
DASHDOT
 70
0
  3
Dash dot __ . __ . __ . __ . __ . __ . __ . __
 72
65
 73
4
 40
25.399999999999999
 49
12.699999999999999
 74
0
 49
-6.3499999999999996
 74
0
 49
0.0
 74
0
 49
-6.3499999999999996
 74
0
  0
LTYPE
  5
37
100
AcDbSymbolTableRecord
100
AcDbLinetypeTableRecord
  2
BORDER
 70
0
  3
Border __ __ . __ __ . __ __ . __ __ . __ __ .
 72
65
 73
6
 40
44.450000000000003
 49
12.699999999999999
 74
0
 49
-6.3499999999999996
 74
0
 49
12.699999999999999
 74
0
 49
-6.3499999999999996
 74
0
 49
0.0
 74
0
 49
-6.3499999999999996
 74
0
  0
LTYPE
  5
38
100
AcDbSymbolTableRecord
100
AcDbLinetypeTableRecord
  2
DASHDOTX2
 70
0
  3
Dash dot (2x) ____  .  ____  .  ____  .  ___
 72
65
 73
4
 40
50.799999999999997
 49
25.399999999999999
 74
0
 49
-12.699999999999999
 74
0
 49
0.0
 74
0
 49
-12.699999999999999
 74
0
  0
LTYPE
  5
39
100
AcDbSymbolTableRecord
100
AcDbLinetypeTableRecord
  2
CENTERX2
 70
0
  3
Center (2x) ________  __  ________  __  _____
 72
65
 73
4
 40
101.59999999999999
 49
63.5
 74
0
 49
-12.699999999999999
 74
0
 49
12.699999999999999
 74
0
 49
-12.699999999999999
 74
0
  0
LTYPE
  5
3A
100
AcDbSymbolTableRecord
100
AcDbLinetypeTableRecord
  2
BORDER2
 70
0
  3
Border (.5x) __.__.__.__.__.__.__.__.__.__.__.
 72
65
 73
6
 40
22.225000000000001
 49
6.3499999999999996
 74
0
 49
-3.1749999999999998
 74
0
 49
6.3499999999999996
 74
0
 49
-3.1749999999999998
 74
0
 49
0.0
 74
0
 49
-3.1749999999999998
 74
0
  0
LTYPE
  5
3B
100
AcDbSymbolTableRecord
100
AcDbLinetypeTableRecord
  2
BORDERX2
 70
0
  3
Border (2x) ____  ____  .  ____  ____  .  ___
 72
65
 73
6
 40
88.900000000000006
 49
25.399999999999999
 74
0
 49
-12.699999999999999
 74
0
 49
25.399999999999999
 74
0
 49
-12.699999999999999
 74
0
 49
0.0
 74
0
 49
-12.699999999999999
 74
0
  0
LTYPE
  5
14
100
AcDbSymbolTableRecord
100
AcDbLinetypeTableRecord
  2
BYBLOCK
 70
0
  3

 72
65
 73
0
 40
0.0
  0
LTYPE
  5
15
100
AcDbSymbolTableRecord
100
AcDbLinetypeTableRecord
  2
BYLAYER
 70
0
  3

 72
65
 73
0
 40
0.0
  0
LTYPE
  5
3C
100
AcDbSymbolTableRecord
100
AcDbLinetypeTableRecord
  2
DASHED2
 70
0
  3
Dashed (.5x) _ _ _ _ _ _ _ _ _ _ _ _ _ _ _ _ _
 72
65
 73
2
 40
9.5250000000000004
 49
6.3499999999999996
 74
0
 49
-3.1749999999999998
 74
0
  0
LTYPE
  5
3D
100
AcDbSymbolTableRecord
100
AcDbLinetypeTableRecord
  2
CENTER
 70
0
  3
Center ____ _ ____ _ ____ _ ____ _ ____ _ ____
 72
65
 73
4
 40
50.799999999999997
 49
31.75
 74
0
 49
-6.3499999999999996
 74
0
 49
6.3499999999999996
 74
0
 49
-6.3499999999999996
 74
0
  0
LTYPE
  5
3E
100
AcDbSymbolTableRecord
100
AcDbLinetypeTableRecord
  2
DIVIDE2
 70
0
  3
Divide (.5x) __..__..__..__..__..__..__..__.._
 72
65
 73
6
 40
15.875
 49
6.3499999999999996
 74
0
 49
-3.1749999999999998
 74
0
 49
0.0
 74
0
 49
-3.1749999999999998
 74
0
 49
0.0
 74
0
 49
-3.1749999999999998
 74
0
  0
LTYPE
  5
3F
100
AcDbSymbolTableRecord
100
AcDbLinetypeTableRecord
  2
DASHED
 70
0
  3
Dashed __ __ __ __ __ __ __ __ __ __ __ __ __ _
 72
65
 73
2
 40
19.050000000000001
 49
12.699999999999999
 74
0
 49
-6.3499999999999996
 74
0
  0
LTYPE
  5
40
100
AcDbSymbolTableRecord
100
AcDbLinetypeTableRecord
  2
DOTX2
 70
0
  3
Dot (2x) .  .  .  .  .  .  .  .  .  .  .  .  .
 72
65
 73
2
 40
12.699999999999999
 49
0.0
 74
0
 49
-12.699999999999999
 74
0
  0
LTYPE
  5
41
100
AcDbSymbolTableRecord
100
AcDbLinetypeTableRecord
  2
DASHEDX2
 70
0
  3
Dashed (2x) ____  ____  ____  ____  ____  ___
 72
65
 73
2
 40
38.100000000000001
 49
25.399999999999999
 74
0
 49
-12.699999999999999
 74
0
  0
LTYPE
  5
42
100
AcDbSymbolTableRecord
100
AcDbLinetypeTableRecord
  2
DOT
 70
0
  3
Dot . . . . . . . . . . . . . . . . . . . . . .
 72
65
 73
2
 40
6.3499999999999996
 49
0.0
 74
0
 49
-6.3499999999999996
 74
0
  0
ENDTAB
  0
TABLE
  2
LAYER
  5
2
100
AcDbSymbolTable
 70
7
  0
LAYER
  5
43
100
AcDbSymbolTableRecord
100
AcDbLayerTableRecord
  2
Base
 70
0
 62
7
420
0
  6
CONTINUOUS
370
25
390
F
  0
LAYER
  5
44
100
AcDbSymbolTableRecord
100
AcDbLayerTableRecord
  2
Top_Standoffs
 70
0
 62
7
420
0
  6
CONTINUOUS
370
25
390
F
  0
LAYER
  5
45
100
AcDbSymbolTableRecord
100
AcDbLayerTableRecord
  2
Dimensions
 70
1
 62
-3
420
65280
  6
CONTINUOUS
370
25
390
F
  0
LAYER
  5
46
100
AcDbSymbolTableRecord
100
AcDbLayerTableRecord
  2
Groove
 70
0
 62
7
420
16777215
  6
CONTINUOUS
370
5
390
F
  0
LAYER
  5
47
100
AcDbSymbolTableRecord
100
AcDbLayerTableRecord
  2
On_Switch
 70
0
 62
7
420
16777215
  6
CONTINUOUS
370
25
390
F
  0
LAYER
  5
10
100
AcDbSymbolTableRecord
100
AcDbLayerTableRecord
  2
0
 70
0
 62
7
420
16777215
  6
CONTINUOUS
370
25
390
F
  0
LAYER
  5
48
100
AcDbSymbolTableRecord
100
AcDbLayerTableRecord
  2
USB_Connector
 70
0
 62
7
420
16777215
  6
CONTINUOUS
370
25
390
F
  0
ENDTAB
  0
TABLE
  2
STYLE
  5
3
100
AcDbSymbolTable
 70
1
  0
STYLE
  5
49
100
AcDbSymbolTableRecord
100
AcDbTextStyleTableRecord
  2
Standard
 70
0
 40
0.0
 41
1.0
 50
0.0
 71
0
 42
2.5
  3

  4

1001
ACAD
1000
txt
1071
0
  0
ENDTAB
  0
TABLE
  2
VIEW
  5
6
100
AcDbSymbolTable
 70
0
  0
ENDTAB
  0
TABLE
  2
UCS
  5
7
100
AcDbSymbolTable
 70
0
  0
ENDTAB
  0
TABLE
  2
APPID
  5
9
100
AcDbSymbolTable
 70
1
  0
APPID
  5
12
100
AcDbSymbolTableRecord
100
AcDbRegAppTableRecord
  2
ACAD
 70
0
  0
APPID
  5
4A
100
AcDbSymbolTableRecord
100
AcDbRegAppTableRecord
  2
QCAD
 70
0
  0
ENDTAB
  0
TABLE
  2
DIMSTYLE
  5
A
100
AcDbSymbolTable
 70
1
100
AcDbDimStyleTable
 71
0
  0
DIMSTYLE
105
27
100
AcDbSymbolTableRecord
100
AcDbDimStyleTableRecord
  2
Standard
 41
2.5
 42
0.625
 43
3.75
 44
1.25
 70
0
 73
0
 74
0
 77
1
 78
8
140
2.5
141
2.5
143
0.03937007874016
147
0.625
171
3
172
1
271
2
272
2
274
3
278
44
283
0
284
8
340
49
  0
ENDTAB
  0
TABLE
  2
BLOCK_RECORD
  5
1
100
AcDbSymbolTable
 70
1
  0
BLOCK_RECORD
  5
1F
100
AcDbSymbolTableRecord
100
AcDbBlockTableRecord
  2
*Model_Space
340
22
  0
BLOCK_RECORD
  5
1B
100
AcDbSymbolTableRecord
100
AcDbBlockTableRecord
  2
*Paper_Space
340
1E
  0
BLOCK_RECORD
  5
23
100
AcDbSymbolTableRecord
100
AcDbBlockTableRecord
  2
*Paper_Space0
340
26
  0
BLOCK_RECORD
  5
4B
100
AcDbSymbolTableRecord
100
AcDbBlockTableRecord
  2
Arduino
340
0
  0
BLOCK_RECORD
  5
4C
100
AcDbSymbolTableRecord
100
AcDbBlockTableRecord
  2
Left_Wheel
340
0
  0
BLOCK_RECORD
  5
4D
100
AcDbSymbolTableRecord
100
AcDbBlockTableRecord
  2
USB_B_Panel_Mount
340
0
  0
BLOCK_RECORD
  5
4E
100
AcDbSymbolTableRecord
100
AcDbBlockTableRecord
  2
Right_Wheel
340
0
  0
ENDTAB
  0
ENDSEC
  0
SECTION
  2
BLOCKS
  0
BLOCK
  5
20
100
AcDbEntity
  8
0
100
AcDbBlockBegin
  2
*Model_Space
 70
0
 10
0.0
 20
0.0
 30
0.0
  3
*Model_Space
  1

  0
ENDBLK
  5
21
100
AcDbEntity
  8
0
100
AcDbBlockEnd
  0
BLOCK
  5
1C
100
AcDbEntity
 67
1
  8
0
100
AcDbBlockBegin
  2
*Paper_Space
 70
0
 10
0.0
 20
0.0
 30
0.0
  3
*Paper_Space
  1

  0
ENDBLK
  5
1D
100
AcDbEntity
 67
1
  8
0
100
AcDbBlockEnd
  0
BLOCK
  5
24
100
AcDbEntity
  8
0
100
AcDbBlockBegin
  2
*Paper_Space0
 70
0
 10
0.0
 20
0.0
 30
0.0
  3
*Paper_Space0
  1

  0
ENDBLK
  5
25
100
AcDbEntity
  8
0
100
AcDbBlockEnd
  0
BLOCK
  5
4F
100
AcDbEntity
  8
0
100
AcDbBlockBegin
  2
Arduino
 70
0
 10
0.0
 20
0.0
 30
0.0
  3
Arduino
  1

  0
LINE
  5
50
100
AcDbEntity
100
AcDbLine
  8
Dimensions
 62
256
370
-1
  6
BYLAYER
 10
66.039999999999992
 20
-1.5239999999999998
 30
0.0
 11
64.515999999999991
 21
0.0
 31
0.0
  0
LINE
  5
51
100
AcDbEntity
100
AcDbLine
  8
Dimensions
 62
256
370
-1
  6
BYLAYER
 10
64.515999999999991
 20
0.0
 30
0.0
 11
0.0
 21
0.0
 31
0.0
  0
DIMENSION
  5
52
100
AcDbEntity
  8
Dimensions
 62
256
370
-1
  6
BYLAYER
100
AcDbDimension
 10
15.557500000000005
 20
-50.800000000000004
 30
0.0
 11
19.793611111111115
 21
-48.925000000000004
 31
0.0
 70
3
 71
8
 72
2
 41
1.0
 42
0.0
  1

  3
Standard
100
AcDbDiametricDimension
 15
12.382499999999979
 25
-50.800000000000004
 35
0.0
 40
0.0
1001
ACAD
1000
DSTYLE
1002
{
1070
144
1040
1
1002
}
  0
LINE
  5
53
100
AcDbEntity
100
AcDbLine
  8
Dimensions
 62
256
370
-1
  6
BYLAYER
 10
0.0
 20
0.0
 30
0.0
 11
0.0
 21
-53.339999999999989
 31
0.0
  0
LINE
  5
54
100
AcDbEntity
100
AcDbLine
  8
Dimensions
 62
256
370
-1
  6
BYLAYER
 10
0.0
 20
-53.339999999999989
 30
0.0
 11
66.039999999999992
 21
-53.339999999999989
 31
0.0
  0
LINE
  5
55
100
AcDbEntity
100
AcDbLine
  8
Dimensions
 62
256
370
-1
  6
BYLAYER
 10
66.039999999999992
 20
-53.339999999999989
 30
0.0
 11
66.039999999999992
 21
-50.79999999999999
 31
0.0
  0
LINE
  5
56
100
AcDbEntity
100
AcDbLine
  8
Dimensions
 62
256
370
-1
  6
BYLAYER
 10
66.039999999999992
 20
-50.79999999999999
 30
0.0
 11
68.579999999999984
 21
-48.259999999999991
 31
0.0
  0
LINE
  5
57
100
AcDbEntity
100
AcDbLine
  8
Dimensions
 62
256
370
-1
  6
BYLAYER
 10
68.579999999999984
 20
-48.259999999999991
 30
0.0
 11
68.579999999999984
 21
-15.493999999999998
 31
0.0
  0
LINE
  5
58
100
AcDbEntity
100
AcDbLine
  8
Dimensions
 62
256
370
-1
  6
BYLAYER
 10
68.579999999999984
 20
-15.493999999999998
 30
0.0
 11
66.039999999999992
 21
-12.953999999999997
 31
0.0
  0
LINE
  5
59
100
AcDbEntity
100
AcDbLine
  8
Dimensions
 62
256
370
-1
  6
BYLAYER
 10
66.039999999999992
 20
-12.953999999999997
 30
0.0
 11
66.039999999999992
 21
-1.5239999999999998
 31
0.0
  0
ENDBLK
  5
5A
100
AcDbEntity
  8
0
100
AcDbBlockEnd
  0
BLOCK
  5
5B
100
AcDbEntity
  8
0
100
AcDbBlockBegin
  2
Left_Wheel
 70
0
 10
0.0
 20
0.0
 30
0.0
  3
Left_Wheel
  1

  0
LINE
  5
5C
100
AcDbEntity
100
AcDbLine
  8
Dimensions
 62
256
370
-1
  6
BYLAYER
 10
36.0
 20
5.7999999999999901
 30
0.0
 11
27.5
 21
5.7999999999999936
 31
0.0
  0
LINE
  5
5D
100
AcDbEntity
100
AcDbLine
  8
Dimensions
 62
256
370
-1
  6
BYLAYER
 10
27.5
 20
-0.0000000000000036
 30
0.0
 11
0.0
 21
0.0
 31
0.0
  0
LINE
  5
5E
100
AcDbEntity
100
AcDbLine
  8
Dimensions
 62
256
370
-1
  6
BYLAYER
 10
0.0
 20
0.0
 30
0.0
 11
0.0
 21
-14.999999999999998
 31
0.0
  0
LINE
  5
5F
100
AcDbEntity
100
AcDbLine
  8
Dimensions
 62
256
370
-1
  6
BYLAYER
 10
27.5
 20
5.7999999999999936
 30
0.0
 11
27.5
 21
-0.0000000000000036
 31
0.0
  0
LINE
  5
60
100
AcDbEntity
100
AcDbLine
  8
Dimensions
 62
256
370
-1
  6
BYLAYER
 10
27.5
 20
-20.800000000000011
 30
0.0
 11
36.0
 21
-20.800000000000011
 31
0.0
  0
LINE
  5
61
100
AcDbEntity
100
AcDbLine
  8
Dimensions
 62
256
370
-1
  6
BYLAYER
 10
0.0
 20
-14.999999999999998
 30
0.0
 11
27.5
 21
-15.000000000000011
 31
0.0
  0
LINE
  5
62
100
AcDbEntity
100
AcDbLine
  8
Dimensions
 62
256
370
-1
  6
BYLAYER
 10
27.5
 20
-15.000000000000011
 30
0.0
 11
27.5
 21
-20.800000000000011
 31
0.0
  0
ENDBLK
  5
63
100
AcDbEntity
  8
0
100
AcDbBlockEnd
  0
BLOCK
  5
64
100
AcDbEntity
  8
0
100
AcDbBlockBegin
  2
USB_B_Panel_Mount
 70
0
 10
0.0
 20
0.0
 30
0.0
  3
USB_B_Panel_Mount
  1

  0
CIRCLE
  5
65
100
AcDbEntity
100
AcDbCircle
  8
USB_Connector
 62
256
370
-1
  6
BYLAYER
 10
-13.5
 20
0.0
 30
0.0
 40
1.7
  0
CIRCLE
  5
66
100
AcDbEntity
100
AcDbCircle
  8
USB_Connector
 62
256
370
-1
  6
BYLAYER
 10
13.5
 20
0.0
 30
0.0
 40
1.7
  0
LINE
  5
67
100
AcDbEntity
100
AcDbLine
  8
Dimensions
 62
256
370
-1
  6
BYLAYER
 10
-17.25
 20
-8.25
 30
0.0
 11
17.25
 21
-8.25
 31
0.0
  0
LINE
  5
68
100
AcDbEntity
100
AcDbLine
  8
Dimensions
 62
256
370
-1
  6
BYLAYER
 10
17.25
 20
-8.25
 30
0.0
 11
17.25
 21
8.25
 31
0.0
  0
LINE
  5
69
100
AcDbEntity
100
AcDbLine
  8
Dimensions
 62
256
370
-1
  6
BYLAYER
 10
17.25
 20
8.25
 30
0.0
 11
-17.25
 21
8.25
 31
0.0
  0
LINE
  5
6A
100
AcDbEntity
100
AcDbLine
  8
Dimensions
 62
256
370
-1
  6
BYLAYER
 10
-17.25
 20
8.25
 30
0.0
 11
-17.25
 21
-8.25
 31
0.0
  0
LINE
  5
6B
100
AcDbEntity
100
AcDbLine
  8
USB_Connector
 62
256
370
-1
  6
BYLAYER
 10
-6.0
 20
-5.25
 30
0.0
 11
6.0
 21
-5.25
 31
0.0
  0
LINE
  5
6C
100
AcDbEntity
100
AcDbLine
  8
USB_Connector
 62
256
370
-1
  6
BYLAYER
 10
6.0
 20
-5.25
 30
0.0
 11
6.0
 21
5.25
 31
0.0
  0
LINE
  5
6D
100
AcDbEntity
100
AcDbLine
  8
USB_Connector
 62
256
370
-1
  6
BYLAYER
 10
6.0
 20
5.25
 30
0.0
 11
-6.0
 21
5.25
 31
0.0
  0
LINE
  5
6E
100
AcDbEntity
100
AcDbLine
  8
USB_Connector
 62
256
370
-1
  6
BYLAYER
 10
-6.0
 20
5.25
 30
0.0
 11
-6.0
 21
-5.25
 31
0.0
  0
ENDBLK
  5
6F
100
AcDbEntity
  8
0
100
AcDbBlockEnd
  0
BLOCK
  5
70
100
AcDbEntity
  8
0
100
AcDbBlockBegin
  2
Right_Wheel
 70
0
 10
0.0
 20
0.0
 30
0.0
  3
Right_Wheel
  1

  0
DIMENSION
  5
71
100
AcDbEntity
  8
Dimensions
 62
256
370
-1
  6
BYLAYER
100
AcDbDimension
 10
-35.294859966012311
 20
36.566740007475808
 30
0.0
 11
-37.110508473027167
 21
41.796059428785412
 31
0.0
 70
3
 71
8
 72
2
 41
1.0
 42
0.0
  1

  3
Standard
100
AcDbDiametricDimension
 15
-35.321940033987701
 25
34.185643992524199
 35
0.0
 40
0.0
1001
ACAD
1000
DSTYLE
1002
{
1070
144
1040
1
1002
}
  0
DIMENSION
  5
72
100
AcDbEntity
  8
Dimensions
 62
256
370
-1
  6
BYLAYER
100
AcDbDimension
 10
-10.450943999999993
 20
22.892544000000001
 30
0.0
 11
-44.558400000000006
 21
24.767544000000001
 31
0.0
 70
0
 71
8
 72
2
 41
1.0
 42
0.0
  1

  3
Standard
100
AcDbAlignedDimension
 13
-49.558400000000006
 23
26.376192000000003
 33
0.0
 14
-39.558400000000006
 24
26.376192000000003
 34
0.0
 50
0.0
100
AcDbRotatedDimension
1001
ACAD
1000
DSTYLE
1002
{
1070
144
1040
1
1002
}
  0
DIMENSION
  5
73
100
AcDbEntity
  8
Dimensions
 62
256
370
-1
  6
BYLAYER
100
AcDbDimension
 10
-54.743039999999979
 20
8.9579520000000059
 30
0.0
 11
-56.618039999999979
 21
26.376192000000003
 31
0.0
 70
0
 71
8
 72
2
 41
1.0
 42
0.0
  1

  3
Standard
100
AcDbAlignedDimension
 13
-42.758400000000009
 23
43.876192000000003
 33
0.0
 14
-42.758400000000009
 24
8.8761920000000032
 34
0.0
 50
90.0
100
AcDbRotatedDimension
1001
ACAD
1000
DSTYLE
1002
{
1070
144
1040
1
1002
}
  0
LINE
  5
74
100
AcDbEntity
100
AcDbLine
  8
Dimensions
 62
256
370
-1
  6
BYLAYER
 10
-39.558400000000006
 20
39.676192
 30
0.0
 11
-31.058400000000006
 21
39.676192
 31
0.0
  0
LINE
  5
75
100
AcDbEntity
100
AcDbLine
  8
Dimensions
 62
256
370
-1
  6
BYLAYER
 10
-31.058400000000006
 20
33.876192000000003
 30
0.0
 11
-3.558400000000006
 21
33.876192000000003
 31
0.0
  0
LINE
  5
76
100
AcDbEntity
100
AcDbLine
  8
Dimensions
 62
256
370
-1
  6
BYLAYER
 10
-3.558400000000006
 20
33.876192000000003
 30
0.0
 11
-3.558400000000006
 21
18.876192000000003
 31
0.0
  0
LINE
  5
77
100
AcDbEntity
100
AcDbLine
  8
Dimensions
 62
256
370
-1
  6
BYLAYER
 10
-31.058400000000006
 20
39.676192
 30
0.0
 11
-31.058400000000006
 21
33.876192000000003
 31
0.0
  0
LINE
  5
78
100
AcDbEntity
100
AcDbLine
  8
Dimensions
 62
256
370
-1
  6
BYLAYER
 10
-31.058400000000006
 20
13.076192000000002
 30
0.0
 11
-39.558400000000006
 21
13.076192000000002
 31
0.0
  0
LINE
  5
79
100
AcDbEntity
100
AcDbLine
  8
Dimensions
 62
256
370
-1
  6
BYLAYER
 10
-3.558400000000006
 20
18.876192000000003
 30
0.0
 11
-31.058400000000006
 21
18.876192000000003
 31
0.0
  0
LINE
  5
7A
100
AcDbEntity
100
AcDbLine
  8
Dimensions
 62
256
370
-1
  6
BYLAYER
 10
-31.058400000000006
 20
18.876192000000003
 30
0.0
 11
-31.058400000000006
 21
13.076192000000002
 31
0.0
  0
ENDBLK
  5
7B
100
AcDbEntity
  8
0
100
AcDbBlockEnd
  0
ENDSEC
  0
SECTION
  2
ENTITIES
  0
CIRCLE
  5
7C
100
AcDbEntity
100
AcDbCircle
  8
On_Switch
 62
256
370
-1
  6
BYLAYER
 10
0.0
 20
40.0
 30
0.0
 40
3.5718749999999999
  0
INSERT
  5
7D
100
AcDbEntity
100
AcDbBlockReference
  8
USB_Connector
 62
256
370
-1
  6
BYLAYER
  2
USB_B_Panel_Mount
 10
0.0
 20
60.0
 30
0.0
  0
LINE
  5
7E
100
AcDbEntity
100
AcDbLine
  8
Base
 62
256
370
-1
  6
BYLAYER
 10
67.618074508069327
 20
32.040234468885949
 30
0.0
 11
65.952975813703404
 21
31.350528006989855
 31
0.0
  0
LINE
  5
7F
100
AcDbEntity
100
AcDbLine
  8
Base
 62
256
370
-1
  6
BYLAYER
 10
68.803967384823295
 20
24.467625489780751
 30
0.0
 11
70.469066079189233
 21
25.157331951676859
 31
0.0
  0
ARC
  5
80
100
AcDbEntity
  8
Base
 62
256
370
-1
  6
BYLAYER
100
AcDbCircle
 10
0.0
 20
0.0
 30
0.0
 40
77.825000000000003
100
AcDbArc
 50
15.692429089320086
 51
29.307570910679932
  0
LINE
  5
81
100
AcDbEntity
100
AcDbLine
  8
Base
 62
256
370
-1
  6
BYLAYER
 10
67.863757927604624
 20
38.095156974915859
 30
0.0
 11
65.071642239114837
 21
36.938624789028701
 31
0.0
  0
LINE
  5
82
100
AcDbEntity
100
AcDbLine
  8
Base
 62
256
370
-1
  6
BYLAYER
 10
72.132151566250769
 20
19.89304741419539
 30
0.0
 11
74.924267254740556
 21
21.049579600082549
 31
0.0
  0
ARC
  5
83
100
AcDbEntity
  8
Base
 62
256
370
-1
  6
BYLAYER
100
AcDbCircle
 10
0.0
 20
0.0
 30
0.0
 40
74.825000000000003
100
AcDbArc
 50
15.418118309714227
 51
19.646474652318595
  0
ARC
  5
84
100
AcDbEntity
  8
Base
 62
256
370
-1
  6
BYLAYER
100
AcDbCircle
 10
0.0
 20
0.0
 30
0.0
 40
74.825000000000003
100
AcDbArc
 50
25.353525347681458
 51
29.581881690285801
  0
LINE
  5
85
100
AcDbEntity
100
AcDbLine
  8
Base
 62
256
370
-1
  6
BYLAYER
 10
25.157331951676838
 20
70.469066079189261
 30
0.0
 11
24.467625489780733
 21
68.803967384823338
 31
0.0
  0
LINE
  5
86
100
AcDbEntity
100
AcDbLine
  8
Base
 62
256
370
-1
  6
BYLAYER
 10
31.350528006989798
 20
65.952975813703404
 30
0.0
 11
32.040234468885899
 21
67.618074508069341
 31
0.0
  0
ARC
  5
87
100
AcDbEntity
  8
Base
 62
256
370
-1
  6
BYLAYER
100
AcDbCircle
 10
0.0
 20
0.0
 30
0.0
 40
77.825000000000003
100
AcDbArc
 50
60.692429089320079
 51
74.307570910679928
  0
LINE
  5
88
100
AcDbEntity
100
AcDbLine
  8
Base
 62
256
370
-1
  6
BYLAYER
 10
21.049579600082541
 20
74.92426725474057
 30
0.0
 11
19.893047414195372
 21
72.132151566250784
 31
0.0
  0
LINE
  5
89
100
AcDbEntity
100
AcDbLine
  8
Base
 62
256
370
-1
  6
BYLAYER
 10
36.938624789028673
 20
65.071642239114851
 30
0.0
 11
38.095156974915881
 21
67.863757927604595
 31
0.0
  0
ARC
  5
8A
100
AcDbEntity
  8
Base
 62
256
370
-1
  6
BYLAYER
100
AcDbCircle
 10
0.0
 20
0.0
 30
0.0
 40
74.825000000000003
100
AcDbArc
 50
60.418118309714231
 51
64.646474652318602
  0
ARC
  5
8B
100
AcDbEntity
  8
Base
 62
256
370
-1
  6
BYLAYER
100
AcDbCircle
 10
0.0
 20
0.0
 30
0.0
 40
74.825000000000003
100
AcDbArc
 50
70.353525347681455
 51
74.581881690285812
  0
LINE
  5
8C
100
AcDbEntity
100
AcDbLine
  8
Base
 62
256
370
-1
  6
BYLAYER
 10
-32.040234468885942
 20
67.618074508069327
 30
0.0
 11
-31.350528006989858
 21
65.952975813703404
 31
0.0
  0
LINE
  5
8D
100
AcDbEntity
100
AcDbLine
  8
Base
 62
256
370
-1
  6
BYLAYER
 10
-24.467625489780762
 20
68.803967384823295
 30
0.0
 11
-25.15733195167687
 21
70.469066079189233
 31
0.0
  0
ARC
  5
8E
100
AcDbEntity
  8
Base
 62
256
370
-1
  6
BYLAYER
100
AcDbCircle
 10
0.0
 20
0.0
 30
0.0
 40
77.825000000000003
100
AcDbArc
 50
105.69242908932009
 51
119.30757091067994
  0
LINE
  5
8F
100
AcDbEntity
100
AcDbLine
  8
Base
 62
256
370
-1
  6
BYLAYER
 10
-38.095156974915881
 20
67.863757927604624
 30
0.0
 11
-36.938624789028708
 21
65.071642239114837
 31
0.0
  0
LINE
  5
90
100
AcDbEntity
100
AcDbLine
  8
Base
 62
256
370
-1
  6
BYLAYER
 10
-19.893047414195408
 20
72.132151566250769
 30
0.0
 11
-21.049579600082513
 21
74.924267254740556
 31
0.0
  0
ARC
  5
91
100
AcDbEntity
  8
Base
 62
256
370
-1
  6
BYLAYER
100
AcDbCircle
 10
0.0
 20
0.0
 30
0.0
 40
74.825000000000003
100
AcDbArc
 50
105.41811830971423
 51
109.6464746523186
  0
ARC
  5
92
100
AcDbEntity
  8
Base
 62
256
370
-1
  6
BYLAYER
100
AcDbCircle
 10
0.0
 20
0.0
 30
0.0
 40
74.825000000000003
100
AcDbArc
 50
115.35352534768147
 51
119.58188169028581
  0
LINE
  5
93
100
AcDbEntity
100
AcDbLine
  8
Base
 62
256
370
-1
  6
BYLAYER
 10
-70.469066079189247
 20
25.157331951676841
 30
0.0
 11
-68.803967384823338
 21
24.467625489780719
 31
0.0
  0
LINE
  5
94
100
AcDbEntity
100
AcDbLine
  8
Base
 62
256
370
-1
  6
BYLAYER
 10
-65.952975813703389
 20
31.350528006989801
 30
0.0
 11
-67.618074508069327
 21
32.04023446888592
 31
0.0
  0
ARC
  5
95
100
AcDbEntity
  8
Base
 62
256
370
-1
  6
BYLAYER
100
AcDbCircle
 10
0.0
 20
0.0
 30
0.0
 40
77.825000000000003
100
AcDbArc
 50
150.69242908932009
 51
164.30757091067994
  0
LINE
  5
96
100
AcDbEntity
100
AcDbLine
  8
Base
 62
256
370
-1
  6
BYLAYER
 10
-74.92426725474057
 20
21.049579600082527
 30
0.0
 11
-72.132151566250784
 21
19.893047414195376
 31
0.0
  0
LINE
  5
97
100
AcDbEntity
100
AcDbLine
  8
Base
 62
256
370
-1
  6
BYLAYER
 10
-65.071642239114851
 20
36.938624789028694
 30
0.0
 11
-67.863757927604595
 21
38.095156974915881
 31
0.0
  0
ARC
  5
98
100
AcDbEntity
  8
Base
 62
256
370
-1
  6
BYLAYER
100
AcDbCircle
 10
0.0
 20
0.0
 30
0.0
 40
74.825000000000003
100
AcDbArc
 50
150.4181183097142
 51
154.64647465231857
  0
ARC
  5
99
100
AcDbEntity
  8
Base
 62
256
370
-1
  6
BYLAYER
100
AcDbCircle
 10
0.0
 20
0.0
 30
0.0
 40
74.825000000000003
100
AcDbArc
 50
160.35352534768145
 51
164.5818816902858
  0
LINE
  5
9A
100
AcDbEntity
100
AcDbLine
  8
Base
 62
256
370
-1
  6
BYLAYER
 10
-67.618074508069327
 20
-32.040234468885934
 30
0.0
 11
-65.952975813703404
 21
-31.350528006989855
 31
0.0
  0
LINE
  5
9B
100
AcDbEntity
100
AcDbLine
  8
Base
 62
256
370
-1
  6
BYLAYER
 10
-68.803967384823295
 20
-24.467625489780755
 30
0.0
 11
-70.469066079189247
 21
-25.157331951676849
 31
0.0
  0
ARC
  5
9C
100
AcDbEntity
  8
Base
 62
256
370
-1
  6
BYLAYER
100
AcDbCircle
 10
0.0
 20
0.0
 30
0.0
 40
77.825000000000003
100
AcDbArc
 50
195.69242908932009
 51
209.30757091067997
  0
LINE
  5
9D
100
AcDbEntity
100
AcDbLine
  8
Base
 62
256
370
-1
  6
BYLAYER
 10
-67.863757927604624
 20
-38.095156974915874
 30
0.0
 11
-65.071642239114837
 21
-36.938624789028708
 31
0.0
  0
LINE
  5
9E
100
AcDbEntity
100
AcDbLine
  8
Base
 62
256
370
-1
  6
BYLAYER
 10
-72.132151566250784
 20
-19.893047414195394
 30
0.0
 11
-74.92426725474057
 21
-21.049579600082506
 31
0.0
  0
ARC
  5
9F
100
AcDbEntity
  8
Base
 62
256
370
-1
  6
BYLAYER
100
AcDbCircle
 10
0.0
 20
0.0
 30
0.0
 40
74.825000000000003
100
AcDbArc
 50
195.41811830971423
 51
199.64647465231857
  0
ARC
  5
A0
100
AcDbEntity
  8
Base
 62
256
370
-1
  6
BYLAYER
100
AcDbCircle
 10
0.0
 20
0.0
 30
0.0
 40
74.825000000000003
100
AcDbArc
 50
205.35352534768145
 51
209.5818816902858
  0
LINE
  5
A1
100
AcDbEntity
100
AcDbLine
  8
Base
 62
256
370
-1
  6
BYLAYER
 10
-25.157331951676817
 20
-70.469066079189275
 30
0.0
 11
-24.467625489780726
 21
-68.803967384823338
 31
0.0
  0
LINE
  5
A2
100
AcDbEntity
100
AcDbLine
  8
Base
 62
256
370
-1
  6
BYLAYER
 10
-31.350528006989808
 20
-65.952975813703389
 30
0.0
 11
-32.04023446888592
 21
-67.618074508069327
 31
0.0
  0
ARC
  5
A3
100
AcDbEntity
  8
Base
 62
256
370
-1
  6
BYLAYER
100
AcDbCircle
 10
0.0
 20
0.0
 30
0.0
 40
77.825000000000003
100
AcDbArc
 50
240.69242908932011
 51
254.30757091067997
  0
LINE
  5
A4
100
AcDbEntity
100
AcDbLine
  8
Base
 62
256
370
-1
  6
BYLAYER
 10
-21.049579600082531
 20
-74.92426725474057
 30
0.0
 11
-19.893047414195411
 21
-72.132151566250769
 31
0.0
  0
LINE
  5
A5
100
AcDbEntity
100
AcDbLine
  8
Base
 62
256
370
-1
  6
BYLAYER
 10
-36.938624789028694
 20
-65.071642239114851
 30
0.0
 11
-38.095156974915888
 21
-67.863757927604595
 31
0.0
  0
ARC
  5
A6
100
AcDbEntity
  8
Base
 62
256
370
-1
  6
BYLAYER
100
AcDbCircle
 10
0.0
 20
0.0
 30
0.0
 40
74.825000000000003
100
AcDbArc
 50
240.41811830971423
 51
244.64647465231857
  0
ARC
  5
A7
100
AcDbEntity
  8
Base
 62
256
370
-1
  6
BYLAYER
100
AcDbCircle
 10
0.0
 20
0.0
 30
0.0
 40
74.825000000000003
100
AcDbArc
 50
250.35352534768145
 51
254.58188169028577
  0
LINE
  5
A8
100
AcDbEntity
100
AcDbLine
  8
Base
 62
256
370
-1
  6
BYLAYER
 10
32.040234468885906
 20
-67.618074508069341
 30
0.0
 11
31.350528006989851
 21
-65.952975813703404
 31
0.0
  0
LINE
  5
A9
100
AcDbEntity
100
AcDbLine
  8
Base
 62
256
370
-1
  6
BYLAYER
 10
24.467625489780751
 20
-68.803967384823295
 30
0.0
 11
25.157331951676845
 21
-70.469066079189247
 31
0.0
  0
ARC
  5
AA
100
AcDbEntity
  8
Base
 62
256
370
-1
  6
BYLAYER
100
AcDbCircle
 10
0.0
 20
0.0
 30
0.0
 40
77.825000000000003
100
AcDbArc
 50
285.69242908932011
 51
299.30757091067994
  0
LINE
  5
AB
100
AcDbEntity
100
AcDbLine
  8
Base
 62
256
370
-1
  6
BYLAYER
 10
38.095156974915874
 20
-67.863757927604624
 30
0.0
 11
36.938624789028673
 21
-65.071642239114851
 31
0.0
  0
LINE
  5
AC
100
AcDbEntity
100
AcDbLine
  8
Base
 62
256
370
-1
  6
BYLAYER
 10
19.893047414195383
 20
-72.132151566250784
 30
0.0
 11
21.049579600082502
 21
-74.92426725474057
 31
0.0
  0
ARC
  5
AD
100
AcDbEntity
  8
Base
 62
256
370
-1
  6
BYLAYER
100
AcDbCircle
 10
0.0
 20
0.0
 30
0.0
 40
74.825000000000003
100
AcDbArc
 50
285.41811830971426
 51
289.6464746523186
  0
ARC
  5
AE
100
AcDbEntity
  8
Base
 62
256
370
-1
  6
BYLAYER
100
AcDbCircle
 10
0.0
 20
0.0
 30
0.0
 40
74.825000000000003
100
AcDbArc
 50
295.35352534768145
 51
299.58188169028574
  0
LINE
  5
AF
100
AcDbEntity
100
AcDbLine
  8
Base
 62
256
370
-1
  6
BYLAYER
 10
70.469066079189261
 20
-25.15733195167682
 30
0.0
 11
68.803967384823338
 21
-24.46762548978073
 31
0.0
  0
LINE
  5
B0
100
AcDbEntity
100
AcDbLine
  8
Base
 62
256
370
-1
  6
BYLAYER
 10
65.952975813703389
 20
-31.350528006989812
 30
0.0
 11
67.618074508069327
 21
-32.040234468885927
 31
0.0
  0
ARC
  5
B1
100
AcDbEntity
  8
Base
 62
256
370
-1
  6
BYLAYER
100
AcDbCircle
 10
0.0
 20
0.0
 30
0.0
 40
77.825000000000003
100
AcDbArc
 50
330.69242908932011
 51
344.30757091067994
  0
LINE
  5
B2
100
AcDbEntity
100
AcDbLine
  8
Base
 62
256
370
-1
  6
BYLAYER
 10
74.92426725474057
 20
-21.049579600082538
 30
0.0
 11
72.132151566250769
 21
-19.893047414195419
 31
0.0
  0
LINE
  5
B3
100
AcDbEntity
100
AcDbLine
  8
Base
 62
256
370
-1
  6
BYLAYER
 10
65.071642239114851
 20
-36.938624789028701
 30
0.0
 11
67.863757927604595
 21
-38.095156974915888
 31
0.0
  0
ARC
  5
B4
100
AcDbEntity
  8
Base
 62
256
370
-1
  6
BYLAYER
100
AcDbCircle
 10
0.0
 20
0.0
 30
0.0
 40
74.825000000000003
100
AcDbArc
 50
330.41811830971426
 51
334.6464746523186
  0
ARC
  5
B5
100
AcDbEntity
  8
Base
 62
256
370
-1
  6
BYLAYER
100
AcDbCircle
 10
0.0
 20
0.0
 30
0.0
 40
74.825000000000003
100
AcDbArc
 50
340.35352534768145
 51
344.58188169028574
  0
ARC
  5
B6
100
AcDbEntity
  8
Base
 62
256
370
-1
  6
BYLAYER
100
AcDbCircle
 10
0.0
 20
0.0
 30
0.0
 40
73.025000000000006
100
AcDbArc
 50
25.423922543829278
 51
64.576077456170765
  0
ARC
  5
B7
100
AcDbEntity
  8
Base
 62
256
370
-1
  6
BYLAYER
100
AcDbCircle
 10
0.0
 20
0.0
 30
0.0
 40
73.025000000000006
100
AcDbArc
 50
70.423922543829278
 51
109.57607745617076
  0
ARC
  5
B8
100
AcDbEntity
  8
Base
 62
256
370
-1
  6
BYLAYER
100
AcDbCircle
 10
0.0
 20
0.0
 30
0.0
 40
73.025000000000006
100
AcDbArc
 50
115.42392254382929
 51
154.57607745617076
  0
ARC
  5
B9
100
AcDbEntity
  8
Base
 62
256
370
-1
  6
BYLAYER
100
AcDbCircle
 10
0.0
 20
0.0
 30
0.0
 40
73.025000000000006
100
AcDbArc
 50
160.42392254382929
 51
199.57607745617074
  0
ARC
  5
BA
100
AcDbEntity
  8
Base
 62
256
370
-1
  6
BYLAYER
100
AcDbCircle
 10
0.0
 20
0.0
 30
0.0
 40
73.025000000000006
100
AcDbArc
 50
205.42392254382926
 51
244.57607745617071
  0
ARC
  5
BB
100
AcDbEntity
  8
Base
 62
256
370
-1
  6
BYLAYER
100
AcDbCircle
 10
0.0
 20
0.0
 30
0.0
 40
73.025000000000006
100
AcDbArc
 50
250.42392254382929
 51
289.57607745617076
  0
ARC
  5
BC
100
AcDbEntity
  8
Base
 62
256
370
-1
  6
BYLAYER
100
AcDbCircle
 10
0.0
 20
0.0
 30
0.0
 40
73.025000000000006
100
AcDbArc
 50
295.42392254382929
 51
334.57607745617071
  0
ARC
  5
BD
100
AcDbEntity
  8
Base
 62
256
370
-1
  6
BYLAYER
100
AcDbCircle
 10
0.0
 20
0.0
 30
0.0
 40
73.025000000000006
100
AcDbArc
 50
340.42392254382929
 51
19.576077456170758
  0
CIRCLE
  5
BE
100
AcDbEntity
100
AcDbCircle
  8
Top_Standoffs
 62
256
370
-1
  6
BYLAYER
 10
-48.083261120700001
 20
48.083261120700001
 30
0.0
 40
1.5874999999999999
  0
CIRCLE
  5
BF
100
AcDbEntity
100
AcDbCircle
  8
Top_Standoffs
 62
256
370
-1
  6
BYLAYER
 10
48.083261120700001
 20
48.083261120700001
 30
0.0
 40
1.5874999999999999
  0
CIRCLE
  5
C0
100
AcDbEntity
100
AcDbCircle
  8
Top_Standoffs
 62
256
370
-1
  6
BYLAYER
 10
48.083261120700001
 20
-48.083261120700001
 30
0.0
 40
1.5874999999999999
  0
CIRCLE
  5
C1
100
AcDbEntity
100
AcDbCircle
  8
Top_Standoffs
 62
256
370
-1
  6
BYLAYER
 10
-48.083261120700001
 20
-48.083261120700001
 30
0.0
 40
1.5874999999999999
  0
DIMENSION
  5
C2
100
AcDbEntity
  8
Dimensions
 62
256
370
-1
  6
BYLAYER
100
AcDbDimension
 10
59.999999999999979
 20
-79.062500000000028
 30
0.0
 11
0.0000000000000001
 21
-77.187500000000028
 31
0.0
 70
0
 71
8
 72
2
 41
1.0
 42
0.0
  1

  3
Standard
100
AcDbAlignedDimension
 13
-73.025000000000006
 23
0.9375000000000071
 33
0.0
 14
73.025000000000006
 24
0.9374999999999645
 34
0.0
 50
0.0
100
AcDbRotatedDimension
1001
ACAD
1000
DSTYLE
1002
{
1070
144
1040
1
1002
}
  0
ENDSEC
  0
SECTION
  2
OBJECTS
  0
DICTIONARY
  5
C
100
AcDbDictionary
280
0
281
1
  3
ACAD_GROUP
350
D
  3
ACAD_LAYOUT
350
1A
  3
ACAD_MLINESTYLE
350
17
  3
ACAD_PLOTSETTINGS
350
19
  3
ACAD_PLOTSTYLENAME
350
E
  3
AcDbVariableDictionary
350
C3
  3
QCAD_OBJECTS
350
C4
  0
DICTIONARY
  5
D
100
AcDbDictionary
280
0
281
1
  0
ACDBDICTIONARYWDFLT
  5
E
100
AcDbDictionary
281
1
  3
Normal
350
F
100
AcDbDictionaryWithDefault
340
F
  0
ACDBPLACEHOLDER
  5
F
  0
DICTIONARY
  5
17
100
AcDbDictionary
280
0
281
1
  3
Standard
350
18
  0
MLINESTYLE
  5
18
100
AcDbMlineStyle
  2
STANDARD
 70
0
  3

 62
256
 51
90.0
 52
90.0
 71
2
 49
0.5
 62
256
  6
BYLAYER
 49
-0.5
 62
256
  6
BYLAYER
  0
DICTIONARY
  5
19
100
AcDbDictionary
280
0
281
1
  0
DICTIONARY
  5
1A
100
AcDbDictionary
281
1
  3
Layout1
350
1E
  3
Layout2
350
26
  3
Model
350
22
  0
LAYOUT
  5
1E
100
AcDbPlotSettings
  1

  2
none_device
  4

  6

 40
0.0
 41
0.0
 42
0.0
 43
0.0
 44
0.0
 45
0.0
 46
0.0
 47
0.0
 48
0.0
 49
0.0
140
0.0
141
0.0
142
1.0
143
1.0
 70
688
 72
0
 73
0
 74
5
  7

 75
16
147
1.0
148
0.0
149
0.0
100
AcDbLayout
  1
Layout1
 70
1
 71
1
 10
0.0
 20
0.0
 11
420.0
 21
297.0
 12
0.0
 22
0.0
 32
0.0
 14
100000000000000000000.0
 24
100000000000000000000.0
 34
100000000000000000000.0
 15
-100000000000000000000.0
 25
-100000000000000000000.0
 35
-100000000000000000000.0
146
0.0
 13
0.0
 23
0.0
 33
0.0
 16
1.0
 26
0.0
 36
0.0
 17
0.0
 27
1.0
 37
0.0
 76
0
330
1B
  0
LAYOUT
  5
22
100
AcDbPlotSettings
  1

  2
none_device
  4

  6

 40
0.0
 41
0.0
 42
0.0
 43
0.0
 44
0.0
 45
0.0
 46
0.0
 47
0.0
 48
0.0
 49
0.0
140
0.0
141
0.0
142
1.0
143
1.0
 70
1712
 72
0
 73
0
 74
0
  7

 75
0
147
1.0
148
0.0
149
0.0
100
AcDbLayout
  1
Model
 70
1
 71
0
 10
0.0
 20
0.0
 11
12.0
 21
9.0
 12
0.0
 22
0.0
 32
0.0
 14
0.0
 24
0.0
 34
0.0
 15
0.0
 25
0.0
 35
0.0
146
0.0
 13
0.0
 23
0.0
 33
0.0
 16
1.0
 26
0.0
 36
0.0
 17
0.0
 27
1.0
 37
0.0
 76
0
330
1F
  0
LAYOUT
  5
26
100
AcDbPlotSettings
  1

  2
none_device
  4

  6

 40
0.0
 41
0.0
 42
0.0
 43
0.0
 44
0.0
 45
0.0
 46
0.0
 47
0.0
 48
0.0
 49
0.0
140
0.0
141
0.0
142
1.0
143
1.0
 70
688
 72
0
 73
0
 74
5
  7

 75
16
147
1.0
148
0.0
149
0.0
100
AcDbLayout
  1
Layout2
 70
1
 71
2
 10
0.0
 20
0.0
 11
12.0
 21
9.0
 12
0.0
 22
0.0
 32
0.0
 14
0.0
 24
0.0
 34
0.0
 15
0.0
 25
0.0
 35
0.0
146
0.0
 13
0.0
 23
0.0
 33
0.0
 16
1.0
 26
0.0
 36
0.0
 17
0.0
 27
1.0
 37
0.0
 76
0
330
23
  0
DICTIONARY
  5
C3
100
AcDbDictionary
281
1
  3
DIMASSOC
350
C6
  3
HIDETEXT
350
C5
  0
DICTIONARYVAR
  5
C5
100
DictionaryVariables
280
0
  1
2
  0
DICTIONARYVAR
  5
C6
100
DictionaryVariables
280
0
  1
1
  0
DICTIONARY
  5
C4
100
AcDbDictionary
281
1
  3
ColorSettings/ColorMode
350
C7
  3
Grid/DisplayGrid00
350
C8
  3
Grid/DisplayGrid01
350
C9
  3
Grid/DisplayGrid02
350
CA
  3
Grid/DisplayGrid03
350
CB
  3
Grid/GridSpacingX00
350
CC
  3
Grid/GridSpacingX01
350
CD
  3
Grid/GridSpacingX02
350
CE
  3
Grid/GridSpacingX03
350
CF
  3
Grid/GridSpacingY00
350
D0
  3
Grid/GridSpacingY01
350
D1
  3
Grid/GridSpacingY02
350
D2
  3
Grid/GridSpacingY03
350
D3
  3
Grid/IsometricGrid00
350
D4
  3
Grid/IsometricGrid01
350
D5
  3
Grid/IsometricGrid02
350
D6
  3
Grid/IsometricGrid03
350
D7
  3
Grid/IsometricProjection00
350
D8
  3
Grid/IsometricProjection01
350
D9
  3
Grid/IsometricProjection02
350
DA
  3
Grid/IsometricProjection03
350
DB
  3
Grid/MetaGridSpacingX00
350
DC
  3
Grid/MetaGridSpacingX01
350
DD
  3
Grid/MetaGridSpacingX02
350
DE
  3
Grid/MetaGridSpacingX03
350
DF
  3
Grid/MetaGridSpacingY00
350
E0
  3
Grid/MetaGridSpacingY01
350
E1
  3
Grid/MetaGridSpacingY02
350
E2
  3
Grid/MetaGridSpacingY03
350
E3
  3
MultiPageSettings/Columns
350
E4
  3
MultiPageSettings/GlueMarginsBottom
350
E5
  3
MultiPageSettings/GlueMarginsLeft
350
E6
  3
MultiPageSettings/GlueMarginsRight
350
E7
  3
MultiPageSettings/GlueMarginsTop
350
E8
  3
MultiPageSettings/PrintCropMarks
350
E9
  3
MultiPageSettings/Rows
350
EA
  3
PageSettings/OffsetX
350
EB
  3
PageSettings/OffsetY
350
EC
  3
PageSettings/PageOrientation
350
ED
  3
PageSettings/PaperHeight
350
EE
  3
PageSettings/PaperWidth
350
EF
  3
PageSettings/Scale
350
F0
  3
PageSettings/ShowPaperBorders
350
F1
  3
UnitSettings/PaperUnit
350
F2
  0
XRECORD
  5
C7
330
C4
100
AcDbXrecord
280
1
1000
FullColor
  0
XRECORD
  5
C8
330
C4
100
AcDbXrecord
280
1
290
1
  0
XRECORD
  5
C9
330
C4
100
AcDbXrecord
280
1
290
1
  0
XRECORD
  5
CA
330
C4
100
AcDbXrecord
280
1
290
1
  0
XRECORD
  5
CB
330
C4
100
AcDbXrecord
280
1
290
1
  0
XRECORD
  5
CC
330
C4
100
AcDbXrecord
280
1
1000
auto
  0
XRECORD
  5
CD
330
C4
100
AcDbXrecord
280
1
1000
auto
  0
XRECORD
  5
CE
330
C4
100
AcDbXrecord
280
1
1000
auto
  0
XRECORD
  5
CF
330
C4
100
AcDbXrecord
280
1
1000
auto
  0
XRECORD
  5
D0
330
C4
100
AcDbXrecord
280
1
1000
auto
  0
XRECORD
  5
D1
330
C4
100
AcDbXrecord
280
1
1000
auto
  0
XRECORD
  5
D2
330
C4
100
AcDbXrecord
280
1
1000
auto
  0
XRECORD
  5
D3
330
C4
100
AcDbXrecord
280
1
1000
auto
  0
XRECORD
  5
D4
330
C4
100
AcDbXrecord
280
1
290
0
  0
XRECORD
  5
D5
330
C4
100
AcDbXrecord
280
1
290
0
  0
XRECORD
  5
D6
330
C4
100
AcDbXrecord
280
1
290
0
  0
XRECORD
  5
D7
330
C4
100
AcDbXrecord
280
1
290
0
  0
XRECORD
  5
D8
330
C4
100
AcDbXrecord
280
1
 90
0
  0
XRECORD
  5
D9
330
C4
100
AcDbXrecord
280
1
 90
0
  0
XRECORD
  5
DA
330
C4
100
AcDbXrecord
280
1
 90
0
  0
XRECORD
  5
DB
330
C4
100
AcDbXrecord
280
1
 90
0
  0
XRECORD
  5
DC
330
C4
100
AcDbXrecord
280
1
1000
auto
  0
XRECORD
  5
DD
330
C4
100
AcDbXrecord
280
1
1000
auto
  0
XRECORD
  5
DE
330
C4
100
AcDbXrecord
280
1
1000
auto
  0
XRECORD
  5
DF
330
C4
100
AcDbXrecord
280
1
1000
auto
  0
XRECORD
  5
E0
330
C4
100
AcDbXrecord
280
1
1000
auto
  0
XRECORD
  5
E1
330
C4
100
AcDbXrecord
280
1
1000
auto
  0
XRECORD
  5
E2
330
C4
100
AcDbXrecord
280
1
1000
auto
  0
XRECORD
  5
E3
330
C4
100
AcDbXrecord
280
1
1000
auto
  0
XRECORD
  5
E4
330
C4
100
AcDbXrecord
280
1
 90
1
  0
XRECORD
  5
E5
330
C4
100
AcDbXrecord
280
1
 40
10.0
  0
XRECORD
  5
E6
330
C4
100
AcDbXrecord
280
1
 40
10.0
  0
XRECORD
  5
E7
330
C4
100
AcDbXrecord
280
1
 40
10.0
  0
XRECORD
  5
E8
330
C4
100
AcDbXrecord
280
1
 40
10.0
  0
XRECORD
  5
E9
330
C4
100
AcDbXrecord
280
1
290
0
  0
XRECORD
  5
EA
330
C4
100
AcDbXrecord
280
1
 90
1
  0
XRECORD
  5
EB
330
C4
100
AcDbXrecord
280
1
 40
-107.95
  0
XRECORD
  5
EC
330
C4
100
AcDbXrecord
280
1
 40
-139.69999999999999
  0
XRECORD
  5
ED
330
C4
100
AcDbXrecord
280
1
1000
Portrait
  0
XRECORD
  5
EE
330
C4
100
AcDbXrecord
280
1
 40
279.39999999999998
  0
XRECORD
  5
EF
330
C4
100
AcDbXrecord
280
1
 40
215.90000000000001
  0
XRECORD
  5
F0
330
C4
100
AcDbXrecord
280
1
1000
1:1
  0
XRECORD
  5
F1
330
C4
100
AcDbXrecord
280
1
290
1
  0
XRECORD
  5
F2
330
C4
100
AcDbXrecord
280
1
 90
4
  0
ENDSEC
  0
EOF
