999
dxflib 3.3.4.0
  0
SECTION
  2
HEADER
  9
$ACADVER
  1
AC1015
  9
$HANDSEED
  5
FFFF
  9
$DIMADEC
 70
0
  9
$DIMASZ
 40
2.5
  9
$DIMAUNIT
 70
0
  9
$DIMAZIN
 70
2
  9
$DIMDEC
 70
4
  9
$DIMEXE
 40
1.25
  9
$DIMEXO
 40
0.625
  9
$DIMGAP
 40
0.625
  9
$DIMLUNIT
 70
2
  9
$DIMSCALE
 40
1.0
  9
$DIMTSZ
 40
0.0
  9
$DIMTXT
 40
2.5
  9
$DIMZIN
 70
8
  9
$DWGCODEPAGE
  3
ANSI_1252
  9
$INSUNITS
 70
4
  9
$LTSCALE
 40
1.0
  0
ENDSEC
  0
SECTION
  2
TABLES
  0
TABLE
  2
VPORT
  5
8
100
AcDbSymbolTable
 70
1
  0
VPORT
  5
30
100
AcDbSymbolTableRecord
100
AcDbViewportTableRecord
  2
*Active
 70
0
 10
0.0
 20
0.0
 11
1.0
 21
1.0
 12
286.3055555555554861
 22
148.5
 13
0.0
 23
0.0
 14
10.0
 24
10.0
 15
10.0
 25
10.0
 16
0.0
 26
0.0
 36
1.0
 17
0.0
 27
0.0
 37
0.0
 40
297.0
 41
1.92798353909465
 42
50.0
 43
0.0
 44
0.0
 50
0.0
 51
0.0
 71
0
 72
100
 73
1
 74
3
 75
1
 76
1
 77
0
 78
0
281
0
 65
1
110
0.0
120
0.0
130
0.0
111
1.0
121
0.0
131
0.0
112
0.0
122
1.0
132
0.0
 79
0
146
0.0
  0
ENDTAB
  0
TABLE
  2
LTYPE
  5
5
100
AcDbSymbolTable
 70
21
  0
LTYPE
  5
16
100
AcDbSymbolTableRecord
100
AcDbLinetypeTableRecord
  2
CONTINUOUS
 70
0
  3
Solid line
 72
65
 73
0
 40
0.0
  0
LTYPE
  5
31
100
AcDbSymbolTableRecord
100
AcDbLinetypeTableRecord
  2
CENTER2
 70
0
  3
Center (.5x) ___ _ ___ _ ___ _ ___ _ ___ _ ___
 72
65
 73
4
 40
28.5749999999999993
 49
19.0500000000000007
 74
0
 49
-3.1749999999999998
 74
0
 49
3.1749999999999998
 74
0
 49
-3.1749999999999998
 74
0
  0
LTYPE
  5
32
100
AcDbSymbolTableRecord
100
AcDbLinetypeTableRecord
  2
DIVIDEX2
 70
0
  3
Divide (2x) ________  .  .  ________  .  .  _
 72
65
 73
6
 40
63.5
 49
25.3999999999999986
 74
0
 49
-12.6999999999999993
 74
0
 49
0.0
 74
0
 49
-12.6999999999999993
 74
0
 49
0.0
 74
0
 49
-12.6999999999999993
 74
0
  0
LTYPE
  5
33
100
AcDbSymbolTableRecord
100
AcDbLinetypeTableRecord
  2
DOT2
 70
0
  3
Dot (.5x) .....................................
 72
65
 73
2
 40
3.1749999999999998
 49
0.0
 74
0
 49
-3.1749999999999998
 74
0
  0
LTYPE
  5
34
100
AcDbSymbolTableRecord
100
AcDbLinetypeTableRecord
  2
DASHDOT2
 70
0
  3
Dash dot (.5x) _._._._._._._._._._._._._._._.
 72
65
 73
4
 40
12.6999999999999993
 49
6.3499999999999996
 74
0
 49
-3.1749999999999998
 74
0
 49
0.0
 74
0
 49
-3.1749999999999998
 74
0
  0
LTYPE
  5
35
100
AcDbSymbolTableRecord
100
AcDbLinetypeTableRecord
  2
DIVIDE
 70
0
  3
Divide ____ . . ____ . . ____ . . ____ . . ____
 72
65
 73
6
 40
31.75
 49
12.6999999999999993
 74
0
 49
-6.3499999999999996
 74
0
 49
0.0
 74
0
 49
-6.3499999999999996
 74
0
 49
0.0
 74
0
 49
-6.3499999999999996
 74
0
  0
LTYPE
  5
36
100
AcDbSymbolTableRecord
100
AcDbLinetypeTableRecord
  2
DASHDOT
 70
0
  3
Dash dot __ . __ . __ . __ . __ . __ . __ . __
 72
65
 73
4
 40
25.3999999999999986
 49
12.6999999999999993
 74
0
 49
-6.3499999999999996
 74
0
 49
0.0
 74
0
 49
-6.3499999999999996
 74
0
  0
LTYPE
  5
37
100
AcDbSymbolTableRecord
100
AcDbLinetypeTableRecord
  2
BORDER
 70
0
  3
Border __ __ . __ __ . __ __ . __ __ . __ __ .
 72
65
 73
6
 40
44.4500000000000028
 49
12.6999999999999993
 74
0
 49
-6.3499999999999996
 74
0
 49
12.6999999999999993
 74
0
 49
-6.3499999999999996
 74
0
 49
0.0
 74
0
 49
-6.3499999999999996
 74
0
  0
LTYPE
  5
38
100
AcDbSymbolTableRecord
100
AcDbLinetypeTableRecord
  2
DASHDOTX2
 70
0
  3
Dash dot (2x) ____  .  ____  .  ____  .  ___
 72
65
 73
4
 40
50.7999999999999972
 49
25.3999999999999986
 74
0
 49
-12.6999999999999993
 74
0
 49
0.0
 74
0
 49
-12.6999999999999993
 74
0
  0
LTYPE
  5
39
100
AcDbSymbolTableRecord
100
AcDbLinetypeTableRecord
  2
CENTERX2
 70
0
  3
Center (2x) ________  __  ________  __  _____
 72
65
 73
4
 40
101.5999999999999943
 49
63.5
 74
0
 49
-12.6999999999999993
 74
0
 49
12.6999999999999993
 74
0
 49
-12.6999999999999993
 74
0
  0
LTYPE
  5
3A
100
AcDbSymbolTableRecord
100
AcDbLinetypeTableRecord
  2
BORDER2
 70
0
  3
Border (.5x) __.__.__.__.__.__.__.__.__.__.__.
 72
65
 73
6
 40
22.2250000000000014
 49
6.3499999999999996
 74
0
 49
-3.1749999999999998
 74
0
 49
6.3499999999999996
 74
0
 49
-3.1749999999999998
 74
0
 49
0.0
 74
0
 49
-3.1749999999999998
 74
0
  0
LTYPE
  5
3B
100
AcDbSymbolTableRecord
100
AcDbLinetypeTableRecord
  2
BORDERX2
 70
0
  3
Border (2x) ____  ____  .  ____  ____  .  ___
 72
65
 73
6
 40
88.9000000000000057
 49
25.3999999999999986
 74
0
 49
-12.6999999999999993
 74
0
 49
25.3999999999999986
 74
0
 49
-12.6999999999999993
 74
0
 49
0.0
 74
0
 49
-12.6999999999999993
 74
0
  0
LTYPE
  5
14
100
AcDbSymbolTableRecord
100
AcDbLinetypeTableRecord
  2
BYBLOCK
 70
0
  3

 72
65
 73
0
 40
0.0
  0
LTYPE
  5
15
100
AcDbSymbolTableRecord
100
AcDbLinetypeTableRecord
  2
BYLAYER
 70
0
  3

 72
65
 73
0
 40
0.0
  0
LTYPE
  5
3C
100
AcDbSymbolTableRecord
100
AcDbLinetypeTableRecord
  2
DASHED2
 70
0
  3
Dashed (.5x) _ _ _ _ _ _ _ _ _ _ _ _ _ _ _ _ _
 72
65
 73
2
 40
9.5250000000000004
 49
6.3499999999999996
 74
0
 49
-3.1749999999999998
 74
0
  0
LTYPE
  5
3D
100
AcDbSymbolTableRecord
100
AcDbLinetypeTableRecord
  2
CENTER
 70
0
  3
Center ____ _ ____ _ ____ _ ____ _ ____ _ ____
 72
65
 73
4
 40
50.7999999999999972
 49
31.75
 74
0
 49
-6.3499999999999996
 74
0
 49
6.3499999999999996
 74
0
 49
-6.3499999999999996
 74
0
  0
LTYPE
  5
3E
100
AcDbSymbolTableRecord
100
AcDbLinetypeTableRecord
  2
DIVIDE2
 70
0
  3
Divide (.5x) __..__..__..__..__..__..__..__.._
 72
65
 73
6
 40
15.875
 49
6.3499999999999996
 74
0
 49
-3.1749999999999998
 74
0
 49
0.0
 74
0
 49
-3.1749999999999998
 74
0
 49
0.0
 74
0
 49
-3.1749999999999998
 74
0
  0
LTYPE
  5
3F
100
AcDbSymbolTableRecord
100
AcDbLinetypeTableRecord
  2
DASHED
 70
0
  3
Dashed __ __ __ __ __ __ __ __ __ __ __ __ __ _
 72
65
 73
2
 40
19.0500000000000007
 49
12.6999999999999993
 74
0
 49
-6.3499999999999996
 74
0
  0
LTYPE
  5
40
100
AcDbSymbolTableRecord
100
AcDbLinetypeTableRecord
  2
DOTX2
 70
0
  3
Dot (2x) .  .  .  .  .  .  .  .  .  .  .  .  .
 72
65
 73
2
 40
12.6999999999999993
 49
0.0
 74
0
 49
-12.6999999999999993
 74
0
  0
LTYPE
  5
41
100
AcDbSymbolTableRecord
100
AcDbLinetypeTableRecord
  2
DASHEDX2
 70
0
  3
Dashed (2x) ____  ____  ____  ____  ____  ___
 72
65
 73
2
 40
38.1000000000000014
 49
25.3999999999999986
 74
0
 49
-12.6999999999999993
 74
0
  0
LTYPE
  5
42
100
AcDbSymbolTableRecord
100
AcDbLinetypeTableRecord
  2
DOT
 70
0
  3
Dot . . . . . . . . . . . . . . . . . . . . . .
 72
65
 73
2
 40
6.3499999999999996
 49
0.0
 74
0
 49
-6.3499999999999996
 74
0
  0
ENDTAB
  0
TABLE
  2
LAYER
  5
2
100
AcDbSymbolTable
 70
4
  0
LAYER
  5
43
100
AcDbSymbolTableRecord
100
AcDbLayerTableRecord
  2
Cut_Second
 70
0
 62
7
420
0
  6
CONTINUOUS
370
0
390
F
  0
LAYER
  5
44
100
AcDbSymbolTableRecord
100
AcDbLayerTableRecord
  2
Dimensions
 70
1
 62
-3
420
65280
  6
CONTINUOUS
370
25
390
F
  0
LAYER
  5
45
100
AcDbSymbolTableRecord
100
AcDbLayerTableRecord
  2
Cut_First
 70
0
 62
5
420
255
  6
CONTINUOUS
370
0
390
F
  0
LAYER
  5
10
100
AcDbSymbolTableRecord
100
AcDbLayerTableRecord
  2
0
 70
0
 62
7
420
16777215
  6
CONTINUOUS
370
25
390
F
  0
ENDTAB
  0
TABLE
  2
STYLE
  5
3
100
AcDbSymbolTable
 70
1
  0
STYLE
  5
46
100
AcDbSymbolTableRecord
100
AcDbTextStyleTableRecord
  2
Standard
 70
0
 40
0.0
 41
1.0
 50
0.0
 71
0
 42
2.5
  3

  4

1001
ACAD
1000
txt
1071
0
  0
ENDTAB
  0
TABLE
  2
VIEW
  5
6
100
AcDbSymbolTable
 70
0
  0
ENDTAB
  0
TABLE
  2
UCS
  5
7
100
AcDbSymbolTable
 70
0
  0
ENDTAB
  0
TABLE
  2
APPID
  5
9
100
AcDbSymbolTable
 70
1
  0
APPID
  5
12
100
AcDbSymbolTableRecord
100
AcDbRegAppTableRecord
  2
ACAD
 70
0
  0
APPID
  5
47
100
AcDbSymbolTableRecord
100
AcDbRegAppTableRecord
  2
QCAD
 70
0
  0
ENDTAB
  0
TABLE
  2
DIMSTYLE
  5
A
100
AcDbSymbolTable
 70
1
100
AcDbDimStyleTable
 71
0
  0
DIMSTYLE
105
27
100
AcDbSymbolTableRecord
100
AcDbDimStyleTableRecord
  2
Standard
 41
2.5
 42
0.625
 43
3.75
 44
1.25
 70
0
 73
0
 74
0
 77
1
 78
8
140
2.5
141
2.5
143
0.03937007874016
147
0.625
171
3
172
1
271
2
272
2
274
3
278
44
283
0
284
8
340
46
  0
ENDTAB
  0
TABLE
  2
BLOCK_RECORD
  5
1
100
AcDbSymbolTable
 70
1
  0
BLOCK_RECORD
  5
1F
100
AcDbSymbolTableRecord
100
AcDbBlockTableRecord
  2
*Model_Space
340
22
  0
BLOCK_RECORD
  5
1B
100
AcDbSymbolTableRecord
100
AcDbBlockTableRecord
  2
*Paper_Space
340
1E
  0
BLOCK_RECORD
  5
23
100
AcDbSymbolTableRecord
100
AcDbBlockTableRecord
  2
*Paper_Space0
340
26
  0
BLOCK_RECORD
  5
48
100
AcDbSymbolTableRecord
100
AcDbBlockTableRecord
  2
USB_B_Panel_Mount
340
0
  0
ENDTAB
  0
ENDSEC
  0
SECTION
  2
BLOCKS
  0
BLOCK
  5
20
100
AcDbEntity
  8
0
100
AcDbBlockBegin
  2
*Model_Space
 70
0
 10
0.0
 20
0.0
 30
0.0
  3
*Model_Space
  1

  0
ENDBLK
  5
21
100
AcDbEntity
  8
0
100
AcDbBlockEnd
  0
BLOCK
  5
1C
100
AcDbEntity
 67
1
  8
0
100
AcDbBlockBegin
  2
*Paper_Space
 70
0
 10
0.0
 20
0.0
 30
0.0
  3
*Paper_Space
  1

  0
ENDBLK
  5
1D
100
AcDbEntity
 67
1
  8
0
100
AcDbBlockEnd
  0
BLOCK
  5
24
100
AcDbEntity
  8
0
100
AcDbBlockBegin
  2
*Paper_Space0
 70
0
 10
0.0
 20
0.0
 30
0.0
  3
*Paper_Space0
  1

  0
ENDBLK
  5
25
100
AcDbEntity
  8
0
100
AcDbBlockEnd
  0
BLOCK
  5
49
100
AcDbEntity
  8
0
100
AcDbBlockBegin
  2
USB_B_Panel_Mount
 70
0
 10
0.0
 20
0.0
 30
0.0
  3
USB_B_Panel_Mount
  1

  0
CIRCLE
  5
4A
100
AcDbEntity
100
AcDbCircle
  8
Cut_First
 62
256
370
-1
  6
BYLAYER
 10
-13.5
 20
0.0
 30
0.0
 40
1.7
  0
CIRCLE
  5
4B
100
AcDbEntity
100
AcDbCircle
  8
Cut_First
 62
256
370
-1
  6
BYLAYER
 10
13.5
 20
0.0
 30
0.0
 40
1.7
  0
LINE
  5
4C
100
AcDbEntity
100
AcDbLine
  8
Dimensions
 62
256
370
-1
  6
BYLAYER
 10
-17.25
 20
-8.25
 30
0.0
 11
17.25
 21
-8.25
 31
0.0
  0
LINE
  5
4D
100
AcDbEntity
100
AcDbLine
  8
Dimensions
 62
256
370
-1
  6
BYLAYER
 10
17.25
 20
-8.25
 30
0.0
 11
17.25
 21
8.25
 31
0.0
  0
LINE
  5
4E
100
AcDbEntity
100
AcDbLine
  8
Dimensions
 62
256
370
-1
  6
BYLAYER
 10
17.25
 20
8.25
 30
0.0
 11
-17.25
 21
8.25
 31
0.0
  0
LINE
  5
4F
100
AcDbEntity
100
AcDbLine
  8
Dimensions
 62
256
370
-1
  6
BYLAYER
 10
-17.25
 20
8.25
 30
0.0
 11
-17.25
 21
-8.25
 31
0.0
  0
LINE
  5
50
100
AcDbEntity
100
AcDbLine
  8
Cut_First
 62
256
370
-1
  6
BYLAYER
 10
-6.0
 20
-5.25
 30
0.0
 11
6.0
 21
-5.25
 31
0.0
  0
LINE
  5
51
100
AcDbEntity
100
AcDbLine
  8
Cut_First
 62
256
370
-1
  6
BYLAYER
 10
6.0
 20
-5.25
 30
0.0
 11
6.0
 21
5.25
 31
0.0
  0
LINE
  5
52
100
AcDbEntity
100
AcDbLine
  8
Cut_First
 62
256
370
-1
  6
BYLAYER
 10
6.0
 20
5.25
 30
0.0
 11
-6.0
 21
5.25
 31
0.0
  0
LINE
  5
53
100
AcDbEntity
100
AcDbLine
  8
Cut_First
 62
256
370
-1
  6
BYLAYER
 10
-6.0
 20
5.25
 30
0.0
 11
-6.0
 21
-5.25
 31
0.0
  0
ENDBLK
  5
54
100
AcDbEntity
  8
0
100
AcDbBlockEnd
  0
ENDSEC
  0
SECTION
  2
ENTITIES
  0
CIRCLE
  5
55
100
AcDbEntity
100
AcDbCircle
  8
Cut_First
 62
256
370
-1
  6
BYLAYER
 10
0.0
 20
40.0
 30
0.0
 40
3.5718749999999999
  0
INSERT
  5
56
100
AcDbEntity
100
AcDbBlockReference
  8
Cut_First
 62
256
370
-1
  6
BYLAYER
  2
USB_B_Panel_Mount
 10
0.0
 20
60.0
 30
0.0
  0
LINE
  5
57
100
AcDbEntity
100
AcDbLine
  8
Cut_Second
 62
256
370
-1
  6
BYLAYER
 10
67.6180745080693271
 20
32.0402344688859486
 30
0.0
 11
65.9529758137034037
 21
31.3505280069898546
 31
0.0
  0
LINE
  5
58
100
AcDbEntity
100
AcDbLine
  8
Cut_Second
 62
256
370
-1
  6
BYLAYER
 10
68.8039673848232951
 20
24.467625489780751
 30
0.0
 11
70.4690660791892327
 21
25.1573319516768592
 31
0.0
  0
ARC
  5
59
100
AcDbEntity
  8
Cut_Second
 62
256
370
-1
  6
BYLAYER
100
AcDbCircle
 10
0.0
 20
0.0
 30
0.0
 40
77.8250000000000028
100
AcDbArc
 50
15.6924290893200862
 51
29.3075709106799316
  0
LINE
  5
5A
100
AcDbEntity
100
AcDbLine
  8
Cut_Second
 62
256
370
-1
  6
BYLAYER
 10
67.8637579276046239
 20
38.0951569749158594
 30
0.0
 11
65.071642239114837
 21
36.9386247890287009
 31
0.0
  0
LINE
  5
5B
100
AcDbEntity
100
AcDbLine
  8
Cut_Second
 62
256
370
-1
  6
BYLAYER
 10
72.1321515662507693
 20
19.8930474141953901
 30
0.0
 11
74.9242672547405562
 21
21.0495796000825486
 31
0.0
  0
ARC
  5
5C
100
AcDbEntity
  8
Cut_Second
 62
256
370
-1
  6
BYLAYER
100
AcDbCircle
 10
0.0
 20
0.0
 30
0.0
 40
74.8250000000000028
100
AcDbArc
 50
15.4181183097142274
 51
19.6464746523185951
  0
ARC
  5
5D
100
AcDbEntity
  8
Cut_Second
 62
256
370
-1
  6
BYLAYER
100
AcDbCircle
 10
0.0
 20
0.0
 30
0.0
 40
74.8250000000000028
100
AcDbArc
 50
25.3535253476814582
 51
29.5818816902858011
  0
LINE
  5
5E
100
AcDbEntity
100
AcDbLine
  8
Cut_Second
 62
256
370
-1
  6
BYLAYER
 10
25.1573319516768379
 20
70.4690660791892611
 30
0.0
 11
24.4676254897807333
 21
68.8039673848233377
 31
0.0
  0
LINE
  5
5F
100
AcDbEntity
100
AcDbLine
  8
Cut_Second
 62
256
370
-1
  6
BYLAYER
 10
31.3505280069897978
 20
65.9529758137034037
 30
0.0
 11
32.0402344688858989
 21
67.6180745080693413
 31
0.0
  0
ARC
  5
60
100
AcDbEntity
  8
Cut_Second
 62
256
370
-1
  6
BYLAYER
100
AcDbCircle
 10
0.0
 20
0.0
 30
0.0
 40
77.8250000000000028
100
AcDbArc
 50
60.6924290893200791
 51
74.307570910679928
  0
LINE
  5
61
100
AcDbEntity
100
AcDbLine
  8
Cut_Second
 62
256
370
-1
  6
BYLAYER
 10
21.0495796000825415
 20
74.9242672547405704
 30
0.0
 11
19.8930474141953724
 21
72.1321515662507835
 31
0.0
  0
LINE
  5
62
100
AcDbEntity
100
AcDbLine
  8
Cut_Second
 62
256
370
-1
  6
BYLAYER
 10
36.9386247890286725
 20
65.0716422391148512
 30
0.0
 11
38.0951569749158807
 21
67.8637579276045955
 31
0.0
  0
ARC
  5
63
100
AcDbEntity
  8
Cut_Second
 62
256
370
-1
  6
BYLAYER
100
AcDbCircle
 10
0.0
 20
0.0
 30
0.0
 40
74.8250000000000028
100
AcDbArc
 50
60.4181183097142309
 51
64.6464746523186022
  0
ARC
  5
64
100
AcDbEntity
  8
Cut_Second
 62
256
370
-1
  6
BYLAYER
100
AcDbCircle
 10
0.0
 20
0.0
 30
0.0
 40
74.8250000000000028
100
AcDbArc
 50
70.3535253476814546
 51
74.5818816902858117
  0
LINE
  5
65
100
AcDbEntity
100
AcDbLine
  8
Cut_Second
 62
256
370
-1
  6
BYLAYER
 10
-32.0402344688859415
 20
67.6180745080693271
 30
0.0
 11
-31.3505280069898582
 21
65.9529758137034037
 31
0.0
  0
LINE
  5
66
100
AcDbEntity
100
AcDbLine
  8
Cut_Second
 62
256
370
-1
  6
BYLAYER
 10
-24.4676254897807617
 20
68.8039673848232951
 30
0.0
 11
-25.1573319516768699
 21
70.4690660791892327
 31
0.0
  0
ARC
  5
67
100
AcDbEntity
  8
Cut_Second
 62
256
370
-1
  6
BYLAYER
100
AcDbCircle
 10
0.0
 20
0.0
 30
0.0
 40
77.8250000000000028
100
AcDbArc
 50
105.6924290893200862
 51
119.3075709106799422
  0
LINE
  5
68
100
AcDbEntity
100
AcDbLine
  8
Cut_Second
 62
256
370
-1
  6
BYLAYER
 10
-38.0951569749158807
 20
67.8637579276046239
 30
0.0
 11
-36.9386247890287081
 21
65.071642239114837
 31
0.0
  0
LINE
  5
69
100
AcDbEntity
100
AcDbLine
  8
Cut_Second
 62
256
370
-1
  6
BYLAYER
 10
-19.8930474141954079
 20
72.1321515662507693
 30
0.0
 11
-21.0495796000825131
 21
74.9242672547405562
 31
0.0
  0
ARC
  5
6A
100
AcDbEntity
  8
Cut_Second
 62
256
370
-1
  6
BYLAYER
100
AcDbCircle
 10
0.0
 20
0.0
 30
0.0
 40
74.8250000000000028
100
AcDbArc
 50
105.4181183097142309
 51
109.6464746523186022
  0
ARC
  5
6B
100
AcDbEntity
  8
Cut_Second
 62
256
370
-1
  6
BYLAYER
100
AcDbCircle
 10
0.0
 20
0.0
 30
0.0
 40
74.8250000000000028
100
AcDbArc
 50
115.3535253476814688
 51
119.5818816902858117
  0
LINE
  5
6C
100
AcDbEntity
100
AcDbLine
  8
Cut_Second
 62
256
370
-1
  6
BYLAYER
 10
-70.4690660791892469
 20
25.1573319516768414
 30
0.0
 11
-68.8039673848233377
 21
24.4676254897807191
 31
0.0
  0
LINE
  5
6D
100
AcDbEntity
100
AcDbLine
  8
Cut_Second
 62
256
370
-1
  6
BYLAYER
 10
-65.9529758137033895
 20
31.3505280069898014
 30
0.0
 11
-67.6180745080693271
 21
32.0402344688859202
 31
0.0
  0
ARC
  5
6E
100
AcDbEntity
  8
Cut_Second
 62
256
370
-1
  6
BYLAYER
100
AcDbCircle
 10
0.0
 20
0.0
 30
0.0
 40
77.8250000000000028
100
AcDbArc
 50
150.6924290893200862
 51
164.3075709106799422
  0
LINE
  5
6F
100
AcDbEntity
100
AcDbLine
  8
Cut_Second
 62
256
370
-1
  6
BYLAYER
 10
-74.9242672547405704
 20
21.0495796000825273
 30
0.0
 11
-72.1321515662507835
 21
19.8930474141953759
 31
0.0
  0
LINE
  5
70
100
AcDbEntity
100
AcDbLine
  8
Cut_Second
 62
256
370
-1
  6
BYLAYER
 10
-65.0716422391148512
 20
36.9386247890286938
 30
0.0
 11
-67.8637579276045955
 21
38.0951569749158807
 31
0.0
  0
ARC
  5
71
100
AcDbEntity
  8
Cut_Second
 62
256
370
-1
  6
BYLAYER
100
AcDbCircle
 10
0.0
 20
0.0
 30
0.0
 40
74.8250000000000028
100
AcDbArc
 50
150.4181183097142025
 51
154.6464746523185738
  0
ARC
  5
72
100
AcDbEntity
  8
Cut_Second
 62
256
370
-1
  6
BYLAYER
100
AcDbCircle
 10
0.0
 20
0.0
 30
0.0
 40
74.8250000000000028
100
AcDbArc
 50
160.3535253476814546
 51
164.5818816902857975
  0
LINE
  5
73
100
AcDbEntity
100
AcDbLine
  8
Cut_Second
 62
256
370
-1
  6
BYLAYER
 10
-67.6180745080693271
 20
-32.0402344688859344
 30
0.0
 11
-65.9529758137034037
 21
-31.3505280069898546
 31
0.0
  0
LINE
  5
74
100
AcDbEntity
100
AcDbLine
  8
Cut_Second
 62
256
370
-1
  6
BYLAYER
 10
-68.8039673848232951
 20
-24.4676254897807546
 30
0.0
 11
-70.4690660791892469
 21
-25.1573319516768485
 31
0.0
  0
ARC
  5
75
100
AcDbEntity
  8
Cut_Second
 62
256
370
-1
  6
BYLAYER
100
AcDbCircle
 10
0.0
 20
0.0
 30
0.0
 40
77.8250000000000028
100
AcDbArc
 50
195.6924290893200862
 51
209.3075709106799707
  0
LINE
  5
76
100
AcDbEntity
100
AcDbLine
  8
Cut_Second
 62
256
370
-1
  6
BYLAYER
 10
-67.8637579276046239
 20
-38.0951569749158736
 30
0.0
 11
-65.071642239114837
 21
-36.9386247890287081
 31
0.0
  0
LINE
  5
77
100
AcDbEntity
100
AcDbLine
  8
Cut_Second
 62
256
370
-1
  6
BYLAYER
 10
-72.1321515662507835
 20
-19.8930474141953937
 30
0.0
 11
-74.9242672547405704
 21
-21.0495796000825059
 31
0.0
  0
ARC
  5
78
100
AcDbEntity
  8
Cut_Second
 62
256
370
-1
  6
BYLAYER
100
AcDbCircle
 10
0.0
 20
0.0
 30
0.0
 40
74.8250000000000028
100
AcDbArc
 50
195.4181183097142309
 51
199.6464746523185738
  0
ARC
  5
79
100
AcDbEntity
  8
Cut_Second
 62
256
370
-1
  6
BYLAYER
100
AcDbCircle
 10
0.0
 20
0.0
 30
0.0
 40
74.8250000000000028
100
AcDbArc
 50
205.3535253476814546
 51
209.5818816902857975
  0
LINE
  5
7A
100
AcDbEntity
100
AcDbLine
  8
Cut_Second
 62
256
370
-1
  6
BYLAYER
 10
-25.1573319516768166
 20
-70.4690660791892753
 30
0.0
 11
-24.4676254897807262
 21
-68.8039673848233377
 31
0.0
  0
LINE
  5
7B
100
AcDbEntity
100
AcDbLine
  8
Cut_Second
 62
256
370
-1
  6
BYLAYER
 10
-31.3505280069898085
 20
-65.9529758137033895
 30
0.0
 11
-32.0402344688859202
 21
-67.6180745080693271
 31
0.0
  0
ARC
  5
7C
100
AcDbEntity
  8
Cut_Second
 62
256
370
-1
  6
BYLAYER
100
AcDbCircle
 10
0.0
 20
0.0
 30
0.0
 40
77.8250000000000028
100
AcDbArc
 50
240.6924290893201146
 51
254.3075709106799707
  0
LINE
  5
7D
100
AcDbEntity
100
AcDbLine
  8
Cut_Second
 62
256
370
-1
  6
BYLAYER
 10
-21.0495796000825308
 20
-74.9242672547405704
 30
0.0
 11
-19.8930474141954114
 21
-72.1321515662507693
 31
0.0
  0
LINE
  5
7E
100
AcDbEntity
100
AcDbLine
  8
Cut_Second
 62
256
370
-1
  6
BYLAYER
 10
-36.9386247890286938
 20
-65.0716422391148512
 30
0.0
 11
-38.0951569749158878
 21
-67.8637579276045955
 31
0.0
  0
ARC
  5
7F
100
AcDbEntity
  8
Cut_Second
 62
256
370
-1
  6
BYLAYER
100
AcDbCircle
 10
0.0
 20
0.0
 30
0.0
 40
74.8250000000000028
100
AcDbArc
 50
240.4181183097142309
 51
244.6464746523185738
  0
ARC
  5
80
100
AcDbEntity
  8
Cut_Second
 62
256
370
-1
  6
BYLAYER
100
AcDbCircle
 10
0.0
 20
0.0
 30
0.0
 40
74.8250000000000028
100
AcDbArc
 50
250.3535253476814546
 51
254.5818816902857691
  0
LINE
  5
81
100
AcDbEntity
100
AcDbLine
  8
Cut_Second
 62
256
370
-1
  6
BYLAYER
 10
32.040234468885906
 20
-67.6180745080693413
 30
0.0
 11
31.3505280069898511
 21
-65.9529758137034037
 31
0.0
  0
LINE
  5
82
100
AcDbEntity
100
AcDbLine
  8
Cut_Second
 62
256
370
-1
  6
BYLAYER
 10
24.467625489780751
 20
-68.8039673848232951
 30
0.0
 11
25.157331951676845
 21
-70.4690660791892469
 31
0.0
  0
ARC
  5
83
100
AcDbEntity
  8
Cut_Second
 62
256
370
-1
  6
BYLAYER
100
AcDbCircle
 10
0.0
 20
0.0
 30
0.0
 40
77.8250000000000028
100
AcDbArc
 50
285.6924290893201146
 51
299.3075709106799422
  0
LINE
  5
84
100
AcDbEntity
100
AcDbLine
  8
Cut_Second
 62
256
370
-1
  6
BYLAYER
 10
38.0951569749158736
 20
-67.8637579276046239
 30
0.0
 11
36.9386247890286725
 21
-65.0716422391148512
 31
0.0
  0
LINE
  5
85
100
AcDbEntity
100
AcDbLine
  8
Cut_Second
 62
256
370
-1
  6
BYLAYER
 10
19.893047414195383
 20
-72.1321515662507835
 30
0.0
 11
21.0495796000825024
 21
-74.9242672547405704
 31
0.0
  0
ARC
  5
86
100
AcDbEntity
  8
Cut_Second
 62
256
370
-1
  6
BYLAYER
100
AcDbCircle
 10
0.0
 20
0.0
 30
0.0
 40
74.8250000000000028
100
AcDbArc
 50
285.4181183097142593
 51
289.6464746523186022
  0
ARC
  5
87
100
AcDbEntity
  8
Cut_Second
 62
256
370
-1
  6
BYLAYER
100
AcDbCircle
 10
0.0
 20
0.0
 30
0.0
 40
74.8250000000000028
100
AcDbArc
 50
295.3535253476814546
 51
299.5818816902857407
  0
LINE
  5
88
100
AcDbEntity
100
AcDbLine
  8
Cut_Second
 62
256
370
-1
  6
BYLAYER
 10
70.4690660791892611
 20
-25.1573319516768201
 30
0.0
 11
68.8039673848233377
 21
-24.4676254897807297
 31
0.0
  0
LINE
  5
89
100
AcDbEntity
100
AcDbLine
  8
Cut_Second
 62
256
370
-1
  6
BYLAYER
 10
65.9529758137033895
 20
-31.350528006989812
 30
0.0
 11
67.6180745080693271
 21
-32.0402344688859273
 31
0.0
  0
ARC
  5
8A
100
AcDbEntity
  8
Cut_Second
 62
256
370
-1
  6
BYLAYER
100
AcDbCircle
 10
0.0
 20
0.0
 30
0.0
 40
77.8250000000000028
100
AcDbArc
 50
330.6924290893201146
 51
344.3075709106799422
  0
LINE
  5
8B
100
AcDbEntity
100
AcDbLine
  8
Cut_Second
 62
256
370
-1
  6
BYLAYER
 10
74.9242672547405704
 20
-21.0495796000825379
 30
0.0
 11
72.1321515662507693
 21
-19.8930474141954186
 31
0.0
  0
LINE
  5
8C
100
AcDbEntity
100
AcDbLine
  8
Cut_Second
 62
256
370
-1
  6
BYLAYER
 10
65.0716422391148512
 20
-36.9386247890287009
 30
0.0
 11
67.8637579276045955
 21
-38.0951569749158878
 31
0.0
  0
ARC
  5
8D
100
AcDbEntity
  8
Cut_Second
 62
256
370
-1
  6
BYLAYER
100
AcDbCircle
 10
0.0
 20
0.0
 30
0.0
 40
74.8250000000000028
100
AcDbArc
 50
330.4181183097142593
 51
334.6464746523186022
  0
ARC
  5
8E
100
AcDbEntity
  8
Cut_Second
 62
256
370
-1
  6
BYLAYER
100
AcDbCircle
 10
0.0
 20
0.0
 30
0.0
 40
74.8250000000000028
100
AcDbArc
 50
340.3535253476814546
 51
344.5818816902857407
  0
ARC
  5
8F
100
AcDbEntity
  8
Cut_Second
 62
256
370
-1
  6
BYLAYER
100
AcDbCircle
 10
0.0
 20
0.0
 30
0.0
 40
73.0250000000000057
100
AcDbArc
 50
25.4239225438292777
 51
64.5760774561707649
  0
ARC
  5
90
100
AcDbEntity
  8
Cut_Second
 62
256
370
-1
  6
BYLAYER
100
AcDbCircle
 10
0.0
 20
0.0
 30
0.0
 40
73.0250000000000057
100
AcDbArc
 50
70.4239225438292777
 51
109.5760774561707649
  0
ARC
  5
91
100
AcDbEntity
  8
Cut_Second
 62
256
370
-1
  6
BYLAYER
100
AcDbCircle
 10
0.0
 20
0.0
 30
0.0
 40
73.0250000000000057
100
AcDbArc
 50
115.423922543829292
 51
154.5760774561707649
  0
ARC
  5
92
100
AcDbEntity
  8
Cut_Second
 62
256
370
-1
  6
BYLAYER
100
AcDbCircle
 10
0.0
 20
0.0
 30
0.0
 40
73.0250000000000057
100
AcDbArc
 50
160.423922543829292
 51
199.5760774561707365
  0
ARC
  5
93
100
AcDbEntity
  8
Cut_Second
 62
256
370
-1
  6
BYLAYER
100
AcDbCircle
 10
0.0
 20
0.0
 30
0.0
 40
73.0250000000000057
100
AcDbArc
 50
205.4239225438292635
 51
244.576077456170708
  0
ARC
  5
94
100
AcDbEntity
  8
Cut_Second
 62
256
370
-1
  6
BYLAYER
100
AcDbCircle
 10
0.0
 20
0.0
 30
0.0
 40
73.0250000000000057
100
AcDbArc
 50
250.423922543829292
 51
289.5760774561707649
  0
ARC
  5
95
100
AcDbEntity
  8
Cut_Second
 62
256
370
-1
  6
BYLAYER
100
AcDbCircle
 10
0.0
 20
0.0
 30
0.0
 40
73.0250000000000057
100
AcDbArc
 50
295.423922543829292
 51
334.576077456170708
  0
ARC
  5
96
100
AcDbEntity
  8
Cut_Second
 62
256
370
-1
  6
BYLAYER
100
AcDbCircle
 10
0.0
 20
0.0
 30
0.0
 40
73.0250000000000057
100
AcDbArc
 50
340.423922543829292
 51
19.5760774561707578
  0
CIRCLE
  5
97
100
AcDbEntity
100
AcDbCircle
  8
Cut_First
 62
256
370
-1
  6
BYLAYER
 10
-48.0832611207000014
 20
48.0832611207000014
 30
0.0
 40
1.5874999999999999
  0
CIRCLE
  5
98
100
AcDbEntity
100
AcDbCircle
  8
Cut_First
 62
256
370
-1
  6
BYLAYER
 10
48.0832611207000014
 20
48.0832611207000014
 30
0.0
 40
1.5874999999999999
  0
CIRCLE
  5
99
100
AcDbEntity
100
AcDbCircle
  8
Cut_First
 62
256
370
-1
  6
BYLAYER
 10
48.0832611207000014
 20
-48.0832611207000014
 30
0.0
 40
1.5874999999999999
  0
CIRCLE
  5
9A
100
AcDbEntity
100
AcDbCircle
  8
Cut_First
 62
256
370
-1
  6
BYLAYER
 10
-48.0832611207000014
 20
-48.0832611207000014
 30
0.0
 40
1.5874999999999999
  0
DIMENSION
  5
9B
100
AcDbEntity
  8
Dimensions
 62
256
370
-1
  6
BYLAYER
100
AcDbDimension
 10
59.9999999999999787
 20
-79.0625000000000284
 30
0.0
 11
0.0000000000000001
 21
-77.1875000000000284
 31
0.0
 70
0
 71
8
 72
2
 41
1.0
 42
0.0
  1

  3
Standard
100
AcDbAlignedDimension
 13
-73.0250000000000057
 23
0.9375000000000071
 33
0.0
 14
73.0250000000000057
 24
0.9374999999999645
 34
0.0
 50
0.0
100
AcDbRotatedDimension
1001
ACAD
1000
DSTYLE
1002
{
1070
144
1040
1
1002
}
  0
ENDSEC
  0
SECTION
  2
OBJECTS
  0
DICTIONARY
  5
C
100
AcDbDictionary
280
0
281
1
  3
ACAD_GROUP
350
D
  3
ACAD_LAYOUT
350
1A
  3
ACAD_MLINESTYLE
350
17
  3
ACAD_PLOTSETTINGS
350
19
  3
ACAD_PLOTSTYLENAME
350
E
  3
AcDbVariableDictionary
350
9C
  3
QCAD_OBJECTS
350
9D
  0
DICTIONARY
  5
D
100
AcDbDictionary
280
0
281
1
  0
ACDBDICTIONARYWDFLT
  5
E
100
AcDbDictionary
281
1
  3
Normal
350
F
100
AcDbDictionaryWithDefault
340
F
  0
ACDBPLACEHOLDER
  5
F
  0
DICTIONARY
  5
17
100
AcDbDictionary
280
0
281
1
  3
Standard
350
18
  0
MLINESTYLE
  5
18
100
AcDbMlineStyle
  2
STANDARD
 70
0
  3

 62
256
 51
90.0
 52
90.0
 71
2
 49
0.5
 62
256
  6
BYLAYER
 49
-0.5
 62
256
  6
BYLAYER
  0
DICTIONARY
  5
19
100
AcDbDictionary
280
0
281
1
  0
DICTIONARY
  5
1A
100
AcDbDictionary
281
1
  3
Layout1
350
1E
  3
Layout2
350
26
  3
Model
350
22
  0
LAYOUT
  5
1E
100
AcDbPlotSettings
  1

  2
none_device
  4

  6

 40
0.0
 41
0.0
 42
0.0
 43
0.0
 44
0.0
 45
0.0
 46
0.0
 47
0.0
 48
0.0
 49
0.0
140
0.0
141
0.0
142
1.0
143
1.0
 70
688
 72
0
 73
0
 74
5
  7

 75
16
147
1.0
148
0.0
149
0.0
100
AcDbLayout
  1
Layout1
 70
1
 71
1
 10
0.0
 20
0.0
 11
420.0
 21
297.0
 12
0.0
 22
0.0
 32
0.0
 14
100000000000000000000.0
 24
100000000000000000000.0
 34
100000000000000000000.0
 15
-100000000000000000000.0
 25
-100000000000000000000.0
 35
-100000000000000000000.0
146
0.0
 13
0.0
 23
0.0
 33
0.0
 16
1.0
 26
0.0
 36
0.0
 17
0.0
 27
1.0
 37
0.0
 76
0
330
1B
  0
LAYOUT
  5
22
100
AcDbPlotSettings
  1

  2
none_device
  4

  6

 40
0.0
 41
0.0
 42
0.0
 43
0.0
 44
0.0
 45
0.0
 46
0.0
 47
0.0
 48
0.0
 49
0.0
140
0.0
141
0.0
142
1.0
143
1.0
 70
1712
 72
0
 73
0
 74
0
  7

 75
0
147
1.0
148
0.0
149
0.0
100
AcDbLayout
  1
Model
 70
1
 71
0
 10
0.0
 20
0.0
 11
12.0
 21
9.0
 12
0.0
 22
0.0
 32
0.0
 14
0.0
 24
0.0
 34
0.0
 15
0.0
 25
0.0
 35
0.0
146
0.0
 13
0.0
 23
0.0
 33
0.0
 16
1.0
 26
0.0
 36
0.0
 17
0.0
 27
1.0
 37
0.0
 76
0
330
1F
  0
LAYOUT
  5
26
100
AcDbPlotSettings
  1

  2
none_device
  4

  6

 40
0.0
 41
0.0
 42
0.0
 43
0.0
 44
0.0
 45
0.0
 46
0.0
 47
0.0
 48
0.0
 49
0.0
140
0.0
141
0.0
142
1.0
143
1.0
 70
688
 72
0
 73
0
 74
5
  7

 75
16
147
1.0
148
0.0
149
0.0
100
AcDbLayout
  1
Layout2
 70
1
 71
2
 10
0.0
 20
0.0
 11
12.0
 21
9.0
 12
0.0
 22
0.0
 32
0.0
 14
0.0
 24
0.0
 34
0.0
 15
0.0
 25
0.0
 35
0.0
146
0.0
 13
0.0
 23
0.0
 33
0.0
 16
1.0
 26
0.0
 36
0.0
 17
0.0
 27
1.0
 37
0.0
 76
0
330
23
  0
DICTIONARY
  5
9C
100
AcDbDictionary
281
1
  3
DIMASSOC
350
9F
  3
HIDETEXT
350
9E
  0
DICTIONARYVAR
  5
9E
100
DictionaryVariables
280
0
  1
2
  0
DICTIONARYVAR
  5
9F
100
DictionaryVariables
280
0
  1
1
  0
DICTIONARY
  5
9D
100
AcDbDictionary
281
1
  3
ColorSettings/ColorMode
350
A0
  3
Grid/DisplayGrid00
350
A1
  3
Grid/DisplayGrid01
350
A2
  3
Grid/DisplayGrid02
350
A3
  3
Grid/DisplayGrid03
350
A4
  3
Grid/GridSpacingX00
350
A5
  3
Grid/GridSpacingX01
350
A6
  3
Grid/GridSpacingX02
350
A7
  3
Grid/GridSpacingX03
350
A8
  3
Grid/GridSpacingY00
350
A9
  3
Grid/GridSpacingY01
350
AA
  3
Grid/GridSpacingY02
350
AB
  3
Grid/GridSpacingY03
350
AC
  3
Grid/IsometricGrid00
350
AD
  3
Grid/IsometricGrid01
350
AE
  3
Grid/IsometricGrid02
350
AF
  3
Grid/IsometricGrid03
350
B0
  3
Grid/IsometricProjection00
350
B1
  3
Grid/IsometricProjection01
350
B2
  3
Grid/IsometricProjection02
350
B3
  3
Grid/IsometricProjection03
350
B4
  3
Grid/MetaGridSpacingX00
350
B5
  3
Grid/MetaGridSpacingX01
350
B6
  3
Grid/MetaGridSpacingX02
350
B7
  3
Grid/MetaGridSpacingX03
350
B8
  3
Grid/MetaGridSpacingY00
350
B9
  3
Grid/MetaGridSpacingY01
350
BA
  3
Grid/MetaGridSpacingY02
350
BB
  3
Grid/MetaGridSpacingY03
350
BC
  3
MultiPageSettings/Columns
350
BD
  3
MultiPageSettings/GlueMarginsBottom
350
BE
  3
MultiPageSettings/GlueMarginsLeft
350
BF
  3
MultiPageSettings/GlueMarginsRight
350
C0
  3
MultiPageSettings/GlueMarginsTop
350
C1
  3
MultiPageSettings/PrintCropMarks
350
C2
  3
MultiPageSettings/Rows
350
C3
  3
PageSettings/OffsetX
350
C4
  3
PageSettings/OffsetY
350
C5
  3
PageSettings/PageOrientation
350
C6
  3
PageSettings/PaperHeight
350
C7
  3
PageSettings/PaperWidth
350
C8
  3
PageSettings/Scale
350
C9
  3
PageSettings/ShowPaperBorders
350
CA
  3
UnitSettings/PaperUnit
350
CB
  0
XRECORD
  5
A0
330
9D
100
AcDbXrecord
280
1
1000
FullColor
  0
XRECORD
  5
A1
330
9D
100
AcDbXrecord
280
1
290
1
  0
XRECORD
  5
A2
330
9D
100
AcDbXrecord
280
1
290
1
  0
XRECORD
  5
A3
330
9D
100
AcDbXrecord
280
1
290
1
  0
XRECORD
  5
A4
330
9D
100
AcDbXrecord
280
1
290
1
  0
XRECORD
  5
A5
330
9D
100
AcDbXrecord
280
1
1000
auto
  0
XRECORD
  5
A6
330
9D
100
AcDbXrecord
280
1
1000
auto
  0
XRECORD
  5
A7
330
9D
100
AcDbXrecord
280
1
1000
auto
  0
XRECORD
  5
A8
330
9D
100
AcDbXrecord
280
1
1000
auto
  0
XRECORD
  5
A9
330
9D
100
AcDbXrecord
280
1
1000
auto
  0
XRECORD
  5
AA
330
9D
100
AcDbXrecord
280
1
1000
auto
  0
XRECORD
  5
AB
330
9D
100
AcDbXrecord
280
1
1000
auto
  0
XRECORD
  5
AC
330
9D
100
AcDbXrecord
280
1
1000
auto
  0
XRECORD
  5
AD
330
9D
100
AcDbXrecord
280
1
290
0
  0
XRECORD
  5
AE
330
9D
100
AcDbXrecord
280
1
290
0
  0
XRECORD
  5
AF
330
9D
100
AcDbXrecord
280
1
290
0
  0
XRECORD
  5
B0
330
9D
100
AcDbXrecord
280
1
290
0
  0
XRECORD
  5
B1
330
9D
100
AcDbXrecord
280
1
 90
0
  0
XRECORD
  5
B2
330
9D
100
AcDbXrecord
280
1
 90
0
  0
XRECORD
  5
B3
330
9D
100
AcDbXrecord
280
1
 90
0
  0
XRECORD
  5
B4
330
9D
100
AcDbXrecord
280
1
 90
0
  0
XRECORD
  5
B5
330
9D
100
AcDbXrecord
280
1
1000
auto
  0
XRECORD
  5
B6
330
9D
100
AcDbXrecord
280
1
1000
auto
  0
XRECORD
  5
B7
330
9D
100
AcDbXrecord
280
1
1000
auto
  0
XRECORD
  5
B8
330
9D
100
AcDbXrecord
280
1
1000
auto
  0
XRECORD
  5
B9
330
9D
100
AcDbXrecord
280
1
1000
auto
  0
XRECORD
  5
BA
330
9D
100
AcDbXrecord
280
1
1000
auto
  0
XRECORD
  5
BB
330
9D
100
AcDbXrecord
280
1
1000
auto
  0
XRECORD
  5
BC
330
9D
100
AcDbXrecord
280
1
1000
auto
  0
XRECORD
  5
BD
330
9D
100
AcDbXrecord
280
1
 90
1
  0
XRECORD
  5
BE
330
9D
100
AcDbXrecord
280
1
 40
10.0
  0
XRECORD
  5
BF
330
9D
100
AcDbXrecord
280
1
 40
10.0
  0
XRECORD
  5
C0
330
9D
100
AcDbXrecord
280
1
 40
10.0
  0
XRECORD
  5
C1
330
9D
100
AcDbXrecord
280
1
 40
10.0
  0
XRECORD
  5
C2
330
9D
100
AcDbXrecord
280
1
290
0
  0
XRECORD
  5
C3
330
9D
100
AcDbXrecord
280
1
 90
1
  0
XRECORD
  5
C4
330
9D
100
AcDbXrecord
280
1
 40
-107.9500000000000028
  0
XRECORD
  5
C5
330
9D
100
AcDbXrecord
280
1
 40
-139.6999999999999886
  0
XRECORD
  5
C6
330
9D
100
AcDbXrecord
280
1
1000
Portrait
  0
XRECORD
  5
C7
330
9D
100
AcDbXrecord
280
1
 40
279.3999999999999773
  0
XRECORD
  5
C8
330
9D
100
AcDbXrecord
280
1
 40
215.9000000000000057
  0
XRECORD
  5
C9
330
9D
100
AcDbXrecord
280
1
1000
1:1
  0
XRECORD
  5
CA
330
9D
100
AcDbXrecord
280
1
290
1
  0
XRECORD
  5
CB
330
9D
100
AcDbXrecord
280
1
 90
4
  0
ENDSEC
  0
EOF
