999
dxflib 3.3.4.0
  0
SECTION
  2
HEADER
  9
$ACADVER
  1
AC1015
  9
$HANDSEED
  5
FFFF
  9
$DIMADEC
 70
0
  9
$DIMASZ
 40
2.5
  9
$DIMAUNIT
 70
0
  9
$DIMAZIN
 70
2
  9
$DIMDEC
 70
4
  9
$DIMEXE
 40
1.25
  9
$DIMEXO
 40
0.625
  9
$DIMGAP
 40
0.625
  9
$DIMLUNIT
 70
2
  9
$DIMSCALE
 40
1.0
  9
$DIMTSZ
 40
0.0
  9
$DIMTXT
 40
2.5
  9
$DIMZIN
 70
8
  9
$DWGCODEPAGE
  3
ANSI_1252
  9
$INSUNITS
 70
4
  9
$LTSCALE
 40
1.0
  0
ENDSEC
  0
SECTION
  2
TABLES
  0
TABLE
  2
VPORT
  5
8
100
AcDbSymbolTable
 70
1
  0
VPORT
  5
30
100
AcDbSymbolTableRecord
100
AcDbViewportTableRecord
  2
*Active
 70
0
 10
0.0
 20
0.0
 11
1.0
 21
1.0
 12
286.3055555555554861
 22
148.5
 13
0.0
 23
0.0
 14
10.0
 24
10.0
 15
10.0
 25
10.0
 16
0.0
 26
0.0
 36
1.0
 17
0.0
 27
0.0
 37
0.0
 40
297.0
 41
1.92798353909465
 42
50.0
 43
0.0
 44
0.0
 50
0.0
 51
0.0
 71
0
 72
100
 73
1
 74
3
 75
1
 76
1
 77
0
 78
0
281
0
 65
1
110
0.0
120
0.0
130
0.0
111
1.0
121
0.0
131
0.0
112
0.0
122
1.0
132
0.0
 79
0
146
0.0
  0
ENDTAB
  0
TABLE
  2
LTYPE
  5
5
100
AcDbSymbolTable
 70
21
  0
LTYPE
  5
16
100
AcDbSymbolTableRecord
100
AcDbLinetypeTableRecord
  2
CONTINUOUS
 70
0
  3
Solid line
 72
65
 73
0
 40
0.0
  0
LTYPE
  5
31
100
AcDbSymbolTableRecord
100
AcDbLinetypeTableRecord
  2
CENTER2
 70
0
  3
Center (.5x) ___ _ ___ _ ___ _ ___ _ ___ _ ___
 72
65
 73
4
 40
28.5749999999999993
 49
19.0500000000000007
 74
0
 49
-3.1749999999999998
 74
0
 49
3.1749999999999998
 74
0
 49
-3.1749999999999998
 74
0
  0
LTYPE
  5
32
100
AcDbSymbolTableRecord
100
AcDbLinetypeTableRecord
  2
DIVIDEX2
 70
0
  3
Divide (2x) ________  .  .  ________  .  .  _
 72
65
 73
6
 40
63.5
 49
25.3999999999999986
 74
0
 49
-12.6999999999999993
 74
0
 49
0.0
 74
0
 49
-12.6999999999999993
 74
0
 49
0.0
 74
0
 49
-12.6999999999999993
 74
0
  0
LTYPE
  5
33
100
AcDbSymbolTableRecord
100
AcDbLinetypeTableRecord
  2
DOT2
 70
0
  3
Dot (.5x) .....................................
 72
65
 73
2
 40
3.1749999999999998
 49
0.0
 74
0
 49
-3.1749999999999998
 74
0
  0
LTYPE
  5
34
100
AcDbSymbolTableRecord
100
AcDbLinetypeTableRecord
  2
DASHDOT2
 70
0
  3
Dash dot (.5x) _._._._._._._._._._._._._._._.
 72
65
 73
4
 40
12.6999999999999993
 49
6.3499999999999996
 74
0
 49
-3.1749999999999998
 74
0
 49
0.0
 74
0
 49
-3.1749999999999998
 74
0
  0
LTYPE
  5
35
100
AcDbSymbolTableRecord
100
AcDbLinetypeTableRecord
  2
DIVIDE
 70
0
  3
Divide ____ . . ____ . . ____ . . ____ . . ____
 72
65
 73
6
 40
31.75
 49
12.6999999999999993
 74
0
 49
-6.3499999999999996
 74
0
 49
0.0
 74
0
 49
-6.3499999999999996
 74
0
 49
0.0
 74
0
 49
-6.3499999999999996
 74
0
  0
LTYPE
  5
36
100
AcDbSymbolTableRecord
100
AcDbLinetypeTableRecord
  2
DASHDOT
 70
0
  3
Dash dot __ . __ . __ . __ . __ . __ . __ . __
 72
65
 73
4
 40
25.3999999999999986
 49
12.6999999999999993
 74
0
 49
-6.3499999999999996
 74
0
 49
0.0
 74
0
 49
-6.3499999999999996
 74
0
  0
LTYPE
  5
37
100
AcDbSymbolTableRecord
100
AcDbLinetypeTableRecord
  2
BORDER
 70
0
  3
Border __ __ . __ __ . __ __ . __ __ . __ __ .
 72
65
 73
6
 40
44.4500000000000028
 49
12.6999999999999993
 74
0
 49
-6.3499999999999996
 74
0
 49
12.6999999999999993
 74
0
 49
-6.3499999999999996
 74
0
 49
0.0
 74
0
 49
-6.3499999999999996
 74
0
  0
LTYPE
  5
38
100
AcDbSymbolTableRecord
100
AcDbLinetypeTableRecord
  2
DASHDOTX2
 70
0
  3
Dash dot (2x) ____  .  ____  .  ____  .  ___
 72
65
 73
4
 40
50.7999999999999972
 49
25.3999999999999986
 74
0
 49
-12.6999999999999993
 74
0
 49
0.0
 74
0
 49
-12.6999999999999993
 74
0
  0
LTYPE
  5
39
100
AcDbSymbolTableRecord
100
AcDbLinetypeTableRecord
  2
CENTERX2
 70
0
  3
Center (2x) ________  __  ________  __  _____
 72
65
 73
4
 40
101.5999999999999943
 49
63.5
 74
0
 49
-12.6999999999999993
 74
0
 49
12.6999999999999993
 74
0
 49
-12.6999999999999993
 74
0
  0
LTYPE
  5
3A
100
AcDbSymbolTableRecord
100
AcDbLinetypeTableRecord
  2
BORDER2
 70
0
  3
Border (.5x) __.__.__.__.__.__.__.__.__.__.__.
 72
65
 73
6
 40
22.2250000000000014
 49
6.3499999999999996
 74
0
 49
-3.1749999999999998
 74
0
 49
6.3499999999999996
 74
0
 49
-3.1749999999999998
 74
0
 49
0.0
 74
0
 49
-3.1749999999999998
 74
0
  0
LTYPE
  5
3B
100
AcDbSymbolTableRecord
100
AcDbLinetypeTableRecord
  2
BORDERX2
 70
0
  3
Border (2x) ____  ____  .  ____  ____  .  ___
 72
65
 73
6
 40
88.9000000000000057
 49
25.3999999999999986
 74
0
 49
-12.6999999999999993
 74
0
 49
25.3999999999999986
 74
0
 49
-12.6999999999999993
 74
0
 49
0.0
 74
0
 49
-12.6999999999999993
 74
0
  0
LTYPE
  5
14
100
AcDbSymbolTableRecord
100
AcDbLinetypeTableRecord
  2
BYBLOCK
 70
0
  3

 72
65
 73
0
 40
0.0
  0
LTYPE
  5
15
100
AcDbSymbolTableRecord
100
AcDbLinetypeTableRecord
  2
BYLAYER
 70
0
  3

 72
65
 73
0
 40
0.0
  0
LTYPE
  5
3C
100
AcDbSymbolTableRecord
100
AcDbLinetypeTableRecord
  2
DASHED2
 70
0
  3
Dashed (.5x) _ _ _ _ _ _ _ _ _ _ _ _ _ _ _ _ _
 72
65
 73
2
 40
9.5250000000000004
 49
6.3499999999999996
 74
0
 49
-3.1749999999999998
 74
0
  0
LTYPE
  5
3D
100
AcDbSymbolTableRecord
100
AcDbLinetypeTableRecord
  2
CENTER
 70
0
  3
Center ____ _ ____ _ ____ _ ____ _ ____ _ ____
 72
65
 73
4
 40
50.7999999999999972
 49
31.75
 74
0
 49
-6.3499999999999996
 74
0
 49
6.3499999999999996
 74
0
 49
-6.3499999999999996
 74
0
  0
LTYPE
  5
3E
100
AcDbSymbolTableRecord
100
AcDbLinetypeTableRecord
  2
DIVIDE2
 70
0
  3
Divide (.5x) __..__..__..__..__..__..__..__.._
 72
65
 73
6
 40
15.875
 49
6.3499999999999996
 74
0
 49
-3.1749999999999998
 74
0
 49
0.0
 74
0
 49
-3.1749999999999998
 74
0
 49
0.0
 74
0
 49
-3.1749999999999998
 74
0
  0
LTYPE
  5
3F
100
AcDbSymbolTableRecord
100
AcDbLinetypeTableRecord
  2
DASHED
 70
0
  3
Dashed __ __ __ __ __ __ __ __ __ __ __ __ __ _
 72
65
 73
2
 40
19.0500000000000007
 49
12.6999999999999993
 74
0
 49
-6.3499999999999996
 74
0
  0
LTYPE
  5
40
100
AcDbSymbolTableRecord
100
AcDbLinetypeTableRecord
  2
DOTX2
 70
0
  3
Dot (2x) .  .  .  .  .  .  .  .  .  .  .  .  .
 72
65
 73
2
 40
12.6999999999999993
 49
0.0
 74
0
 49
-12.6999999999999993
 74
0
  0
LTYPE
  5
41
100
AcDbSymbolTableRecord
100
AcDbLinetypeTableRecord
  2
DASHEDX2
 70
0
  3
Dashed (2x) ____  ____  ____  ____  ____  ___
 72
65
 73
2
 40
38.1000000000000014
 49
25.3999999999999986
 74
0
 49
-12.6999999999999993
 74
0
  0
LTYPE
  5
42
100
AcDbSymbolTableRecord
100
AcDbLinetypeTableRecord
  2
DOT
 70
0
  3
Dot . . . . . . . . . . . . . . . . . . . . . .
 72
65
 73
2
 40
6.3499999999999996
 49
0.0
 74
0
 49
-6.3499999999999996
 74
0
  0
ENDTAB
  0
TABLE
  2
LAYER
  5
2
100
AcDbSymbolTable
 70
2
  0
LAYER
  5
43
100
AcDbSymbolTableRecord
100
AcDbLayerTableRecord
  2
Dimensions
 70
1
 62
-3
420
65280
  6
CONTINUOUS
370
25
390
F
  0
LAYER
  5
10
100
AcDbSymbolTableRecord
100
AcDbLayerTableRecord
  2
0
 70
0
 62
7
420
16777215
  6
CONTINUOUS
370
0
390
F
  0
ENDTAB
  0
TABLE
  2
STYLE
  5
3
100
AcDbSymbolTable
 70
1
  0
STYLE
  5
44
100
AcDbSymbolTableRecord
100
AcDbTextStyleTableRecord
  2
Standard
 70
0
 40
0.0
 41
1.0
 50
0.0
 71
0
 42
2.5
  3

  4

1001
ACAD
1000
txt
1071
0
  0
ENDTAB
  0
TABLE
  2
VIEW
  5
6
100
AcDbSymbolTable
 70
0
  0
ENDTAB
  0
TABLE
  2
UCS
  5
7
100
AcDbSymbolTable
 70
0
  0
ENDTAB
  0
TABLE
  2
APPID
  5
9
100
AcDbSymbolTable
 70
1
  0
APPID
  5
12
100
AcDbSymbolTableRecord
100
AcDbRegAppTableRecord
  2
ACAD
 70
0
  0
APPID
  5
45
100
AcDbSymbolTableRecord
100
AcDbRegAppTableRecord
  2
QCAD
 70
0
  0
ENDTAB
  0
TABLE
  2
DIMSTYLE
  5
A
100
AcDbSymbolTable
 70
1
100
AcDbDimStyleTable
 71
0
  0
DIMSTYLE
105
27
100
AcDbSymbolTableRecord
100
AcDbDimStyleTableRecord
  2
Standard
 41
2.5
 42
0.625
 43
3.75
 44
1.25
 70
0
 73
0
 74
0
 77
1
 78
8
140
2.5
141
2.5
143
0.03937007874016
147
0.625
171
3
172
1
271
2
272
2
274
3
278
44
283
0
284
8
340
44
  0
ENDTAB
  0
TABLE
  2
BLOCK_RECORD
  5
1
100
AcDbSymbolTable
 70
1
  0
BLOCK_RECORD
  5
1F
100
AcDbSymbolTableRecord
100
AcDbBlockTableRecord
  2
*Model_Space
340
22
  0
BLOCK_RECORD
  5
1B
100
AcDbSymbolTableRecord
100
AcDbBlockTableRecord
  2
*Paper_Space
340
1E
  0
BLOCK_RECORD
  5
23
100
AcDbSymbolTableRecord
100
AcDbBlockTableRecord
  2
*Paper_Space0
340
26
  0
BLOCK_RECORD
  5
46
100
AcDbSymbolTableRecord
100
AcDbBlockTableRecord
  2
Hole_Punch
340
0
  0
BLOCK_RECORD
  5
47
100
AcDbSymbolTableRecord
100
AcDbBlockTableRecord
  2
topside
340
0
  0
BLOCK_RECORD
  5
48
100
AcDbSymbolTableRecord
100
AcDbBlockTableRecord
  2
bottomside
340
0
  0
ENDTAB
  0
ENDSEC
  0
SECTION
  2
BLOCKS
  0
BLOCK
  5
20
100
AcDbEntity
  8
0
100
AcDbBlockBegin
  2
*Model_Space
 70
0
 10
0.0
 20
0.0
 30
0.0
  3
*Model_Space
  1

  0
ENDBLK
  5
21
100
AcDbEntity
  8
0
100
AcDbBlockEnd
  0
BLOCK
  5
1C
100
AcDbEntity
 67
1
  8
0
100
AcDbBlockBegin
  2
*Paper_Space
 70
0
 10
0.0
 20
0.0
 30
0.0
  3
*Paper_Space
  1

  0
ENDBLK
  5
1D
100
AcDbEntity
 67
1
  8
0
100
AcDbBlockEnd
  0
BLOCK
  5
24
100
AcDbEntity
  8
0
100
AcDbBlockBegin
  2
*Paper_Space0
 70
0
 10
0.0
 20
0.0
 30
0.0
  3
*Paper_Space0
  1

  0
ENDBLK
  5
25
100
AcDbEntity
  8
0
100
AcDbBlockEnd
  0
BLOCK
  5
49
100
AcDbEntity
  8
0
100
AcDbBlockBegin
  2
Hole_Punch
 70
0
 10
0.0
 20
0.0
 30
0.0
  3
Hole_Punch
  1

  0
LINE
  5
4A
100
AcDbEntity
100
AcDbLine
  8
0
 62
256
370
-1
  6
BYLAYER
 10
-3.7250000000000014
 20
-3.7250000000000014
 30
0.0
 11
3.7250000000000014
 21
-3.7250000000000014
 31
0.0
  0
LINE
  5
4B
100
AcDbEntity
100
AcDbLine
  8
0
 62
256
370
-1
  6
BYLAYER
 10
3.7250000000000014
 20
-3.7250000000000014
 30
0.0
 11
3.7250000000000014
 21
3.7250000000000014
 31
0.0
  0
LINE
  5
4C
100
AcDbEntity
100
AcDbLine
  8
0
 62
256
370
-1
  6
BYLAYER
 10
3.7250000000000014
 20
3.7250000000000014
 30
0.0
 11
-3.7250000000000014
 21
3.7250000000000014
 31
0.0
  0
LINE
  5
4D
100
AcDbEntity
100
AcDbLine
  8
0
 62
256
370
-1
  6
BYLAYER
 10
-3.7250000000000014
 20
3.7250000000000014
 30
0.0
 11
-3.7250000000000014
 21
-3.7250000000000014
 31
0.0
  0
ENDBLK
  5
4E
100
AcDbEntity
  8
0
100
AcDbBlockEnd
  0
BLOCK
  5
4F
100
AcDbEntity
  8
0
100
AcDbBlockBegin
  2
topside
 70
0
 10
0.0
 20
0.0
 30
0.0
  3
topside
  1

  0
LINE
  5
50
100
AcDbEntity
100
AcDbLine
  8
0
 62
256
370
-1
  6
BYLAYER
 10
-58.0609999999999786
 20
0.0
 30
0.0
 11
-50.61099999999999
 21
0.0
 31
0.0
  0
LINE
  5
51
100
AcDbEntity
100
AcDbLine
  8
0
 62
256
370
-1
  6
BYLAYER
 10
0.0
 20
0.0
 30
0.0
 11
7.4500000000000455
 21
0.0
 31
0.0
  0
LINE
  5
52
100
AcDbEntity
100
AcDbLine
  8
0
 62
256
370
-1
  6
BYLAYER
 10
116.1209999999999809
 20
0.0
 30
0.0
 11
123.5710000000000264
 21
0.0
 31
0.0
  0
LINE
  5
53
100
AcDbEntity
100
AcDbLine
  8
0
 62
256
370
-1
  6
BYLAYER
 10
174.1809999999999832
 20
0.0
 30
0.0
 11
181.6310000000000286
 21
0.0
 31
0.0
  0
LINE
  5
54
100
AcDbEntity
100
AcDbLine
  8
0
 62
256
370
-1
  6
BYLAYER
 10
232.2419999999999618
 20
0.0
 30
0.0
 11
239.6920000000000073
 21
0.0
 31
0.0
  0
LINE
  5
55
100
AcDbEntity
100
AcDbLine
  8
0
 62
256
370
-1
  6
BYLAYER
 10
290.3029999999999973
 20
0.0
 30
0.0
 11
297.7530000000000427
 21
0.0
 31
0.0
  0
LINE
  5
56
100
AcDbEntity
100
AcDbLine
  8
0
 62
256
370
-1
  6
BYLAYER
 10
-174.1819999999999879
 20
0.0
 30
0.0
 11
-166.7319999999999993
 21
0.0
 31
0.0
  0
LINE
  5
57
100
AcDbEntity
100
AcDbLine
  8
0
 62
256
370
-1
  6
BYLAYER
 10
-290.3029999999999973
 20
0.0
 30
0.0
 11
-282.8530000000000086
 21
0.0
 31
0.0
  0
LINE
  5
58
100
AcDbEntity
100
AcDbLine
  8
0
 62
256
370
-1
  6
BYLAYER
 10
-232.2424000000000035
 20
0.0
 30
0.0
 11
-224.7923999999999864
 21
0.0
 31
0.0
  0
LINE
  5
59
100
AcDbEntity
100
AcDbLine
  8
0
 62
256
370
-1
  6
BYLAYER
 10
58.0600000000000023
 20
0.0
 30
0.0
 11
65.5100000000000477
 21
0.0
 31
0.0
  0
LINE
  5
5A
100
AcDbEntity
100
AcDbLine
  8
0
 62
256
370
-1
  6
BYLAYER
 10
-116.1209999999999809
 20
0.0
 30
0.0
 11
-108.6709999999999923
 21
0.0
 31
0.0
  0
LINE
  5
5B
100
AcDbEntity
100
AcDbLine
  8
0
 62
256
370
-1
  6
BYLAYER
 10
-108.6709999999999923
 20
0.0
 30
0.0
 11
-108.6709999999999923
 21
3.7249999999999943
 31
0.0
  0
LINE
  5
5C
100
AcDbEntity
100
AcDbLine
  8
0
 62
256
370
-1
  6
BYLAYER
 10
-116.1209999999999809
 20
3.7249999999999943
 30
0.0
 11
-116.1209999999999809
 21
0.0
 31
0.0
  0
LINE
  5
5D
100
AcDbEntity
100
AcDbLine
  8
0
 62
256
370
-1
  6
BYLAYER
 10
-58.0609999999999218
 20
3.7250000000000014
 30
0.0
 11
-108.6709999999999923
 21
3.7250000000000014
 31
0.0
  0
LINE
  5
5E
100
AcDbEntity
100
AcDbLine
  8
0
 62
256
370
-1
  6
BYLAYER
 10
-50.61099999999999
 20
0.0
 30
0.0
 11
-50.61099999999999
 21
3.7250000000000085
 31
0.0
  0
LINE
  5
5F
100
AcDbEntity
100
AcDbLine
  8
0
 62
256
370
-1
  6
BYLAYER
 10
-58.0609999999999786
 20
3.7250000000000014
 30
0.0
 11
-58.0609999999999786
 21
0.0
 31
0.0
  0
LINE
  5
60
100
AcDbEntity
100
AcDbLine
  8
0
 62
256
370
-1
  6
BYLAYER
 10
0.0
 20
3.7250000000000014
 30
0.0
 11
-50.6109999999999332
 21
3.7250000000000014
 31
0.0
  0
LINE
  5
61
100
AcDbEntity
100
AcDbLine
  8
0
 62
256
370
-1
  6
BYLAYER
 10
7.4500000000000455
 20
0.0
 30
0.0
 11
7.4500000000000455
 21
3.7250000000000014
 31
0.0
  0
LINE
  5
62
100
AcDbEntity
100
AcDbLine
  8
0
 62
256
370
-1
  6
BYLAYER
 10
0.0
 20
3.7250000000000014
 30
0.0
 11
0.0
 21
0.0
 31
0.0
  0
LINE
  5
63
100
AcDbEntity
100
AcDbLine
  8
0
 62
256
370
-1
  6
BYLAYER
 10
58.0600000000000023
 20
3.7250000000000014
 30
0.0
 11
58.0600000000000023
 21
0.0
 31
0.0
  0
LINE
  5
64
100
AcDbEntity
100
AcDbLine
  8
0
 62
256
370
-1
  6
BYLAYER
 10
65.5100000000000477
 20
0.0
 30
0.0
 11
65.5100000000000477
 21
3.7250000000000014
 31
0.0
  0
LINE
  5
65
100
AcDbEntity
100
AcDbLine
  8
0
 62
256
370
-1
  6
BYLAYER
 10
58.0600000000000023
 20
3.7250000000000014
 30
0.0
 11
7.4500000000001023
 21
3.7250000000000014
 31
0.0
  0
LINE
  5
66
100
AcDbEntity
100
AcDbLine
  8
0
 62
256
370
-1
  6
BYLAYER
 10
116.1209999999999809
 20
3.7250000000000014
 30
0.0
 11
65.5100000000001046
 21
3.7250000000000014
 31
0.0
  0
LINE
  5
67
100
AcDbEntity
100
AcDbLine
  8
0
 62
256
370
-1
  6
BYLAYER
 10
123.5710000000000264
 20
0.0
 30
0.0
 11
123.5710000000000264
 21
3.7250000000000014
 31
0.0
  0
LINE
  5
68
100
AcDbEntity
100
AcDbLine
  8
0
 62
256
370
-1
  6
BYLAYER
 10
116.1209999999999809
 20
3.7250000000000014
 30
0.0
 11
116.1209999999999809
 21
0.0
 31
0.0
  0
LINE
  5
69
100
AcDbEntity
100
AcDbLine
  8
0
 62
256
370
-1
  6
BYLAYER
 10
174.1809999999999263
 20
3.7250000000000014
 30
0.0
 11
123.5710000000000832
 21
3.7250000000000014
 31
0.0
  0
LINE
  5
6A
100
AcDbEntity
100
AcDbLine
  8
0
 62
256
370
-1
  6
BYLAYER
 10
181.6310000000000286
 20
0.0
 30
0.0
 11
181.6310000000000286
 21
3.7249999999999943
 31
0.0
  0
LINE
  5
6B
100
AcDbEntity
100
AcDbLine
  8
0
 62
256
370
-1
  6
BYLAYER
 10
174.1809999999999832
 20
3.7250000000000085
 30
0.0
 11
174.1809999999999832
 21
0.0
 31
0.0
  0
LINE
  5
6C
100
AcDbEntity
100
AcDbLine
  8
0
 62
256
370
-1
  6
BYLAYER
 10
232.2419999999999618
 20
3.7249999999999943
 30
0.0
 11
232.2419999999999618
 21
0.0
 31
0.0
  0
LINE
  5
6D
100
AcDbEntity
100
AcDbLine
  8
0
 62
256
370
-1
  6
BYLAYER
 10
239.6920000000000073
 20
0.0
 30
0.0
 11
239.6920000000000073
 21
3.7249999999999943
 31
0.0
  0
LINE
  5
6E
100
AcDbEntity
100
AcDbLine
  8
0
 62
256
370
-1
  6
BYLAYER
 10
232.2419999999999618
 20
3.7250000000000014
 30
0.0
 11
181.6310000000000286
 21
3.7250000000000014
 31
0.0
  0
LINE
  5
6F
100
AcDbEntity
100
AcDbLine
  8
0
 62
256
370
-1
  6
BYLAYER
 10
290.3029999999999973
 20
3.7250000000000014
 30
0.0
 11
290.3029999999999973
 21
0.0
 31
0.0
  0
LINE
  5
70
100
AcDbEntity
100
AcDbLine
  8
0
 62
256
370
-1
  6
BYLAYER
 10
297.7530000000000427
 20
0.0
 30
0.0
 11
297.7530000000000427
 21
3.7250000000000014
 31
0.0
  0
LINE
  5
71
100
AcDbEntity
100
AcDbLine
  8
0
 62
256
370
-1
  6
BYLAYER
 10
302.7525922915999672
 20
3.7250000000000014
 30
0.0
 11
297.7530000000000427
 21
3.7250000000000014
 31
0.0
  0
LINE
  5
72
100
AcDbEntity
100
AcDbLine
  8
0
 62
256
370
-1
  6
BYLAYER
 10
290.3029999999998836
 20
3.7250000000000014
 30
0.0
 11
239.6920000000000073
 21
3.7250000000000014
 31
0.0
  0
LINE
  5
73
100
AcDbEntity
100
AcDbLine
  8
0
 62
256
370
-1
  6
BYLAYER
 10
-116.1210000000000377
 20
3.7250000000000014
 30
0.0
 11
-166.7319999999999993
 21
3.7250000000000014
 31
0.0
  0
LINE
  5
74
100
AcDbEntity
100
AcDbLine
  8
0
 62
256
370
-1
  6
BYLAYER
 10
-166.7319999999999993
 20
0.0
 30
0.0
 11
-166.7319999999999993
 21
3.7250000000000014
 31
0.0
  0
LINE
  5
75
100
AcDbEntity
100
AcDbLine
  8
0
 62
256
370
-1
  6
BYLAYER
 10
-174.1819999999999879
 20
3.7249999999999943
 30
0.0
 11
-174.1819999999999879
 21
0.0
 31
0.0
  0
LINE
  5
76
100
AcDbEntity
100
AcDbLine
  8
0
 62
256
370
-1
  6
BYLAYER
 10
-224.7923999999999864
 20
0.0
 30
0.0
 11
-224.7923999999999864
 21
3.7249999999999943
 31
0.0
  0
LINE
  5
77
100
AcDbEntity
100
AcDbLine
  8
0
 62
256
370
-1
  6
BYLAYER
 10
-232.2424000000000035
 20
3.7249999999999943
 30
0.0
 11
-232.2424000000000035
 21
0.0
 31
0.0
  0
LINE
  5
78
100
AcDbEntity
100
AcDbLine
  8
0
 62
256
370
-1
  6
BYLAYER
 10
-174.1819999999999595
 20
3.7250000000000014
 30
0.0
 11
-224.7923999999999864
 21
3.7250000000000014
 31
0.0
  0
LINE
  5
79
100
AcDbEntity
100
AcDbLine
  8
0
 62
256
370
-1
  6
BYLAYER
 10
-282.8530000000000086
 20
0.0
 30
0.0
 11
-282.8530000000000086
 21
3.7250000000000014
 31
0.0
  0
LINE
  5
7A
100
AcDbEntity
100
AcDbLine
  8
0
 62
256
370
-1
  6
BYLAYER
 10
-232.2423999999999751
 20
3.7250000000000014
 30
0.0
 11
-282.8530000000000086
 21
3.7250000000000014
 31
0.0
  0
LINE
  5
7B
100
AcDbEntity
100
AcDbLine
  8
0
 62
256
370
-1
  6
BYLAYER
 10
-290.3029999999999973
 20
3.7250000000000014
 30
0.0
 11
-295.3029999999999973
 21
3.7250000000000014
 31
0.0
  0
LINE
  5
7C
100
AcDbEntity
100
AcDbLine
  8
0
 62
256
370
-1
  6
BYLAYER
 10
-290.3029999999999973
 20
3.7250000000000014
 30
0.0
 11
-290.3029999999999973
 21
0.0
 31
0.0
  0
ENDBLK
  5
7D
100
AcDbEntity
  8
0
100
AcDbBlockEnd
  0
BLOCK
  5
7E
100
AcDbEntity
  8
0
100
AcDbBlockBegin
  2
bottomside
 70
0
 10
0.0
 20
0.0
 30
0.0
  3
bottomside
  1

  0
LINE
  5
7F
100
AcDbEntity
100
AcDbLine
  8
0
 62
256
370
-1
  6
BYLAYER
 10
-286.5780000000000314
 20
0.0
 30
0.0
 11
-294.02800000000002
 21
0.0
 31
0.0
  0
LINE
  5
80
100
AcDbEntity
100
AcDbLine
  8
0
 62
256
370
-1
  6
BYLAYER
 10
-294.02800000000002
 20
0.0
 30
0.0
 11
-294.02800000000002
 21
-3.7249999999999943
 31
0.0
  0
LINE
  5
81
100
AcDbEntity
100
AcDbLine
  8
0
 62
256
370
-1
  6
BYLAYER
 10
-299.02800000000002
 20
-3.7250000000000014
 30
0.0
 11
-294.02800000000002
 21
-3.7250000000000014
 31
0.0
  0
LINE
  5
82
100
AcDbEntity
100
AcDbLine
  8
0
 62
256
370
-1
  6
BYLAYER
 10
-286.5780000000000314
 20
-3.7249999999999943
 30
0.0
 11
-286.5780000000000314
 21
0.0
 31
0.0
  0
LINE
  5
83
100
AcDbEntity
100
AcDbLine
  8
0
 62
256
370
-1
  6
BYLAYER
 10
3.7250000000000227
 20
0.0
 30
0.0
 11
-3.7250000000000227
 21
0.0
 31
0.0
  0
LINE
  5
84
100
AcDbEntity
100
AcDbLine
  8
0
 62
256
370
-1
  6
BYLAYER
 10
119.8460000000000036
 20
0.0
 30
0.0
 11
112.3959999999999582
 21
0.0
 31
0.0
  0
LINE
  5
85
100
AcDbEntity
100
AcDbLine
  8
0
 62
256
370
-1
  6
BYLAYER
 10
177.9060000000000059
 20
0.0
 30
0.0
 11
170.4559999999999604
 21
0.0
 31
0.0
  0
LINE
  5
86
100
AcDbEntity
100
AcDbLine
  8
0
 62
256
370
-1
  6
BYLAYER
 10
235.9669999999999845
 20
0.0
 30
0.0
 11
228.5169999999999391
 21
0.0
 31
0.0
  0
LINE
  5
87
100
AcDbEntity
100
AcDbLine
  8
0
 62
256
370
-1
  6
BYLAYER
 10
294.02800000000002
 20
0.0
 30
0.0
 11
286.5779999999999745
 21
0.0
 31
0.0
  0
LINE
  5
88
100
AcDbEntity
100
AcDbLine
  8
0
 62
256
370
-1
  6
BYLAYER
 10
-170.4570000000000221
 20
0.0
 30
0.0
 11
-177.9070000000000107
 21
0.0
 31
0.0
  0
LINE
  5
89
100
AcDbEntity
100
AcDbLine
  8
0
 62
256
370
-1
  6
BYLAYER
 10
-228.5174000000000092
 20
0.0
 30
0.0
 11
-235.9674000000000262
 21
0.0
 31
0.0
  0
LINE
  5
8A
100
AcDbEntity
100
AcDbLine
  8
0
 62
256
370
-1
  6
BYLAYER
 10
61.785000000000025
 20
0.0
 30
0.0
 11
54.3349999999999795
 21
0.0
 31
0.0
  0
LINE
  5
8B
100
AcDbEntity
100
AcDbLine
  8
0
 62
256
370
-1
  6
BYLAYER
 10
-112.396000000000015
 20
0.0
 30
0.0
 11
-119.8460000000000036
 21
0.0
 31
0.0
  0
LINE
  5
8C
100
AcDbEntity
100
AcDbLine
  8
0
 62
256
370
-1
  6
BYLAYER
 10
-54.3360000000000127
 20
0.0
 30
0.0
 11
-61.7860000000000014
 21
0.0
 31
0.0
  0
LINE
  5
8D
100
AcDbEntity
100
AcDbLine
  8
0
 62
256
370
-1
  6
BYLAYER
 10
54.3349999999999795
 20
0.0
 30
0.0
 11
54.3349999999999795
 21
-3.7250000000000014
 31
0.0
  0
LINE
  5
8E
100
AcDbEntity
100
AcDbLine
  8
0
 62
256
370
-1
  6
BYLAYER
 10
61.785000000000025
 20
-3.7250000000000014
 30
0.0
 11
61.785000000000025
 21
0.0
 31
0.0
  0
LINE
  5
8F
100
AcDbEntity
100
AcDbLine
  8
0
 62
256
370
-1
  6
BYLAYER
 10
294.02800000000002
 20
-3.7250000000000014
 30
0.0
 11
299.0275922915999445
 21
-3.7250000000000014
 31
0.0
  0
LINE
  5
90
100
AcDbEntity
100
AcDbLine
  8
0
 62
256
370
-1
  6
BYLAYER
 10
294.02800000000002
 20
-3.7250000000000085
 30
0.0
 11
294.02800000000002
 21
0.0
 31
0.0
  0
LINE
  5
91
100
AcDbEntity
100
AcDbLine
  8
0
 62
256
370
-1
  6
BYLAYER
 10
286.5779999999999745
 20
0.0
 30
0.0
 11
286.5779999999999745
 21
-3.7250000000000014
 31
0.0
  0
LINE
  5
92
100
AcDbEntity
100
AcDbLine
  8
0
 62
256
370
-1
  6
BYLAYER
 10
228.5169999999999391
 20
0.0
 30
0.0
 11
228.5169999999999391
 21
-3.7250000000000014
 31
0.0
  0
LINE
  5
93
100
AcDbEntity
100
AcDbLine
  8
0
 62
256
370
-1
  6
BYLAYER
 10
235.9669999999999845
 20
-3.7250000000000014
 30
0.0
 11
235.9669999999999845
 21
0.0
 31
0.0
  0
LINE
  5
94
100
AcDbEntity
100
AcDbLine
  8
0
 62
256
370
-1
  6
BYLAYER
 10
235.9669999999999845
 20
-3.7250000000000014
 30
0.0
 11
286.5779999999999745
 21
-3.7250000000000014
 31
0.0
  0
LINE
  5
95
100
AcDbEntity
100
AcDbLine
  8
0
 62
256
370
-1
  6
BYLAYER
 10
177.9060000000000628
 20
-3.7250000000000014
 30
0.0
 11
228.5169999999999391
 21
-3.7250000000000014
 31
0.0
  0
LINE
  5
96
100
AcDbEntity
100
AcDbLine
  8
0
 62
256
370
-1
  6
BYLAYER
 10
177.9060000000000059
 20
-3.7250000000000014
 30
0.0
 11
177.9060000000000059
 21
0.0
 31
0.0
  0
LINE
  5
97
100
AcDbEntity
100
AcDbLine
  8
0
 62
256
370
-1
  6
BYLAYER
 10
170.4559999999999604
 20
0.0
 30
0.0
 11
170.4559999999999604
 21
-3.7250000000000014
 31
0.0
  0
LINE
  5
98
100
AcDbEntity
100
AcDbLine
  8
0
 62
256
370
-1
  6
BYLAYER
 10
119.8460000000000036
 20
-3.7250000000000014
 30
0.0
 11
119.8460000000000036
 21
0.0
 31
0.0
  0
LINE
  5
99
100
AcDbEntity
100
AcDbLine
  8
0
 62
256
370
-1
  6
BYLAYER
 10
112.3959999999999582
 20
0.0
 30
0.0
 11
112.3959999999999582
 21
-3.7250000000000014
 31
0.0
  0
LINE
  5
9A
100
AcDbEntity
100
AcDbLine
  8
0
 62
256
370
-1
  6
BYLAYER
 10
61.7849999999999682
 20
-3.7250000000000014
 30
0.0
 11
112.3959999999999582
 21
-3.7250000000000014
 31
0.0
  0
LINE
  5
9B
100
AcDbEntity
100
AcDbLine
  8
0
 62
256
370
-1
  6
BYLAYER
 10
119.8460000000000605
 20
-3.7250000000000014
 30
0.0
 11
170.4560000000000173
 21
-3.7250000000000014
 31
0.0
  0
LINE
  5
9C
100
AcDbEntity
100
AcDbLine
  8
0
 62
256
370
-1
  6
BYLAYER
 10
3.7250000000000227
 20
-3.7250000000000014
 30
0.0
 11
3.7250000000000227
 21
0.0
 31
0.0
  0
LINE
  5
9D
100
AcDbEntity
100
AcDbLine
  8
0
 62
256
370
-1
  6
BYLAYER
 10
-3.7250000000000227
 20
0.0
 30
0.0
 11
-3.7250000000000227
 21
-3.7250000000000014
 31
0.0
  0
LINE
  5
9E
100
AcDbEntity
100
AcDbLine
  8
0
 62
256
370
-1
  6
BYLAYER
 10
3.7250000000000796
 20
-3.7250000000000014
 30
0.0
 11
54.3349999999999227
 21
-3.7250000000000014
 31
0.0
  0
LINE
  5
9F
100
AcDbEntity
100
AcDbLine
  8
0
 62
256
370
-1
  6
BYLAYER
 10
-54.3359999999999843
 20
-3.7250000000000014
 30
0.0
 11
-3.7249999999999659
 21
-3.7250000000000014
 31
0.0
  0
LINE
  5
A0
100
AcDbEntity
100
AcDbLine
  8
0
 62
256
370
-1
  6
BYLAYER
 10
-54.3360000000000127
 20
-3.7250000000000085
 30
0.0
 11
-54.3360000000000127
 21
0.0
 31
0.0
  0
LINE
  5
A1
100
AcDbEntity
100
AcDbLine
  8
0
 62
256
370
-1
  6
BYLAYER
 10
-61.7860000000000014
 20
0.0
 30
0.0
 11
-61.7860000000000014
 21
-3.7250000000000014
 31
0.0
  0
LINE
  5
A2
100
AcDbEntity
100
AcDbLine
  8
0
 62
256
370
-1
  6
BYLAYER
 10
-112.3960000000000434
 20
-3.7250000000000014
 30
0.0
 11
-61.7860000000000014
 21
-3.7250000000000014
 31
0.0
  0
LINE
  5
A3
100
AcDbEntity
100
AcDbLine
  8
0
 62
256
370
-1
  6
BYLAYER
 10
-112.396000000000015
 20
-3.7249999999999943
 30
0.0
 11
-112.396000000000015
 21
0.0
 31
0.0
  0
LINE
  5
A4
100
AcDbEntity
100
AcDbLine
  8
0
 62
256
370
-1
  6
BYLAYER
 10
-119.8460000000000036
 20
0.0
 30
0.0
 11
-119.8460000000000036
 21
-3.7250000000000085
 31
0.0
  0
LINE
  5
A5
100
AcDbEntity
100
AcDbLine
  8
0
 62
256
370
-1
  6
BYLAYER
 10
-286.5780000000000314
 20
-3.7250000000000014
 30
0.0
 11
-235.9673999999999978
 21
-3.7250000000000014
 31
0.0
  0
LINE
  5
A6
100
AcDbEntity
100
AcDbLine
  8
0
 62
256
370
-1
  6
BYLAYER
 10
-235.9674000000000262
 20
0.0
 30
0.0
 11
-235.9674000000000262
 21
-3.7250000000000085
 31
0.0
  0
LINE
  5
A7
100
AcDbEntity
100
AcDbLine
  8
0
 62
256
370
-1
  6
BYLAYER
 10
-228.5174000000000092
 20
-3.7250000000000085
 30
0.0
 11
-228.5174000000000092
 21
0.0
 31
0.0
  0
LINE
  5
A8
100
AcDbEntity
100
AcDbLine
  8
0
 62
256
370
-1
  6
BYLAYER
 10
-177.9070000000000107
 20
0.0
 30
0.0
 11
-177.9070000000000107
 21
-3.7250000000000085
 31
0.0
  0
LINE
  5
A9
100
AcDbEntity
100
AcDbLine
  8
0
 62
256
370
-1
  6
BYLAYER
 10
-228.5174000000000092
 20
-3.7250000000000014
 30
0.0
 11
-177.9069999999999823
 21
-3.7250000000000014
 31
0.0
  0
LINE
  5
AA
100
AcDbEntity
100
AcDbLine
  8
0
 62
256
370
-1
  6
BYLAYER
 10
-170.4570000000000221
 20
-3.7250000000000014
 30
0.0
 11
-119.8460000000000036
 21
-3.7250000000000014
 31
0.0
  0
LINE
  5
AB
100
AcDbEntity
100
AcDbLine
  8
0
 62
256
370
-1
  6
BYLAYER
 10
-170.4570000000000221
 20
-3.7250000000000085
 30
0.0
 11
-170.4570000000000221
 21
0.0
 31
0.0
  0
ENDBLK
  5
AC
100
AcDbEntity
  8
0
100
AcDbBlockEnd
  0
ENDSEC
  0
SECTION
  2
ENTITIES
  0
LINE
  5
AD
100
AcDbEntity
100
AcDbLine
  8
0
 62
256
370
-1
  6
BYLAYER
 10
598.0555922915999645
 20
-54.5249999999999986
 30
0.0
 11
598.0555922915999645
 21
54.5249999999999986
 31
0.0
  0
LINE
  5
AE
100
AcDbEntity
100
AcDbLine
  8
0
 62
256
370
-1
  6
BYLAYER
 10
0.0
 20
54.5249999999999986
 30
0.0
 11
0.0
 21
-54.5249999999999986
 31
0.0
  0
DIMENSION
  5
AF
100
AcDbEntity
  8
Dimensions
 62
256
370
-1
  6
BYLAYER
100
AcDbDimension
 10
600.0
 20
60.0
 30
0.0
 11
299.0277961457999254
 21
61.875
 31
0.0
 70
0
 71
8
 72
2
 41
1.0
 42
0.0
  1

  3
Standard
100
AcDbAlignedDimension
 13
0.0000000000000001
 23
54.5249999999999986
 33
0.0
 14
598.0555922915998508
 24
54.5249999999999986
 34
0.0
 50
0.0
100
AcDbRotatedDimension
1001
ACAD
1000
DSTYLE
1002
{
1070
144
1040
1
1002
}
  0
INSERT
  5
B0
100
AcDbEntity
100
AcDbBlockReference
  8
0
 62
256
370
-1
  6
BYLAYER
  2
topside
 10
295.3029999999999973
 20
50.7999999999999972
 30
0.0
  0
INSERT
  5
B1
100
AcDbEntity
100
AcDbBlockReference
  8
0
 62
256
370
-1
  6
BYLAYER
  2
bottomside
 10
299.02800000000002
 20
-50.7999999999999972
 30
0.0
  0
DIMENSION
  5
B2
100
AcDbEntity
  8
Dimensions
 62
256
370
-1
  6
BYLAYER
100
AcDbDimension
 10
182.9070000000000107
 20
50.7999999999999972
 30
0.0
 11
181.0320000000000107
 21
0.0000000000000002
 31
0.0
 70
0
 71
8
 72
2
 41
1.0
 42
0.0
  1

  3
Standard
100
AcDbAlignedDimension
 13
182.9070000000000107
 23
50.7999999999999972
 33
0.0
 14
182.9070000000000107
 24
-50.7999999999999972
 34
0.0
 50
90.0
100
AcDbRotatedDimension
1001
ACAD
1000
DSTYLE
1002
{
1070
144
1040
1
1002
}
  0
DIMENSION
  5
B3
100
AcDbEntity
  8
Dimensions
 62
256
370
-1
  6
BYLAYER
100
AcDbDimension
 10
272.886152473775951
 20
-47.4048503802932117
 30
0.0
 11
269.9975000000000023
 21
-45.5298503802932117
 31
0.0
 70
0
 71
8
 72
2
 41
1.0
 42
0.0
  1

  3
Standard
100
AcDbAlignedDimension
 13
240.967000000000013
 23
-50.7999999999999972
 33
0.0
 14
299.02800000000002
 24
-50.7999999999999972
 34
0.0
 50
0.0
100
AcDbRotatedDimension
1001
ACAD
1000
DSTYLE
1002
{
1070
144
1040
1
1002
}
  0
DIMENSION
  5
B4
100
AcDbEntity
  8
Dimensions
 62
256
370
-1
  6
BYLAYER
100
AcDbDimension
 10
6.761135737128896
 20
-45.7150371438744045
 30
0.0
 11
4.3624999999999972
 21
-43.8400371438744045
 31
0.0
 70
0
 71
8
 72
2
 41
1.0
 42
0.0
  1

  3
Standard
100
AcDbAlignedDimension
 13
8.7249999999999943
 23
-50.7999999999999972
 33
0.0
 14
0.0
 24
-50.7999999999999758
 34
0.0
 50
0.0
100
AcDbRotatedDimension
1001
ACAD
1000
DSTYLE
1002
{
1070
144
1040
1
1002
}
  0
ENDSEC
  0
SECTION
  2
OBJECTS
  0
DICTIONARY
  5
C
100
AcDbDictionary
280
0
281
1
  3
ACAD_GROUP
350
D
  3
ACAD_LAYOUT
350
1A
  3
ACAD_MLINESTYLE
350
17
  3
ACAD_PLOTSETTINGS
350
19
  3
ACAD_PLOTSTYLENAME
350
E
  3
AcDbVariableDictionary
350
B5
  3
QCAD_OBJECTS
350
B6
  0
DICTIONARY
  5
D
100
AcDbDictionary
280
0
281
1
  0
ACDBDICTIONARYWDFLT
  5
E
100
AcDbDictionary
281
1
  3
Normal
350
F
100
AcDbDictionaryWithDefault
340
F
  0
ACDBPLACEHOLDER
  5
F
  0
DICTIONARY
  5
17
100
AcDbDictionary
280
0
281
1
  3
Standard
350
18
  0
MLINESTYLE
  5
18
100
AcDbMlineStyle
  2
STANDARD
 70
0
  3

 62
256
 51
90.0
 52
90.0
 71
2
 49
0.5
 62
256
  6
BYLAYER
 49
-0.5
 62
256
  6
BYLAYER
  0
DICTIONARY
  5
19
100
AcDbDictionary
280
0
281
1
  0
DICTIONARY
  5
1A
100
AcDbDictionary
281
1
  3
Layout1
350
1E
  3
Layout2
350
26
  3
Model
350
22
  0
LAYOUT
  5
1E
100
AcDbPlotSettings
  1

  2
none_device
  4

  6

 40
0.0
 41
0.0
 42
0.0
 43
0.0
 44
0.0
 45
0.0
 46
0.0
 47
0.0
 48
0.0
 49
0.0
140
0.0
141
0.0
142
1.0
143
1.0
 70
688
 72
0
 73
0
 74
5
  7

 75
16
147
1.0
148
0.0
149
0.0
100
AcDbLayout
  1
Layout1
 70
1
 71
1
 10
0.0
 20
0.0
 11
420.0
 21
297.0
 12
0.0
 22
0.0
 32
0.0
 14
100000000000000000000.0
 24
100000000000000000000.0
 34
100000000000000000000.0
 15
-100000000000000000000.0
 25
-100000000000000000000.0
 35
-100000000000000000000.0
146
0.0
 13
0.0
 23
0.0
 33
0.0
 16
1.0
 26
0.0
 36
0.0
 17
0.0
 27
1.0
 37
0.0
 76
0
330
1B
  0
LAYOUT
  5
22
100
AcDbPlotSettings
  1

  2
none_device
  4

  6

 40
0.0
 41
0.0
 42
0.0
 43
0.0
 44
0.0
 45
0.0
 46
0.0
 47
0.0
 48
0.0
 49
0.0
140
0.0
141
0.0
142
1.0
143
1.0
 70
1712
 72
0
 73
0
 74
0
  7

 75
0
147
1.0
148
0.0
149
0.0
100
AcDbLayout
  1
Model
 70
1
 71
0
 10
0.0
 20
0.0
 11
12.0
 21
9.0
 12
0.0
 22
0.0
 32
0.0
 14
0.0
 24
0.0
 34
0.0
 15
0.0
 25
0.0
 35
0.0
146
0.0
 13
0.0
 23
0.0
 33
0.0
 16
1.0
 26
0.0
 36
0.0
 17
0.0
 27
1.0
 37
0.0
 76
0
330
1F
  0
LAYOUT
  5
26
100
AcDbPlotSettings
  1

  2
none_device
  4

  6

 40
0.0
 41
0.0
 42
0.0
 43
0.0
 44
0.0
 45
0.0
 46
0.0
 47
0.0
 48
0.0
 49
0.0
140
0.0
141
0.0
142
1.0
143
1.0
 70
688
 72
0
 73
0
 74
5
  7

 75
16
147
1.0
148
0.0
149
0.0
100
AcDbLayout
  1
Layout2
 70
1
 71
2
 10
0.0
 20
0.0
 11
12.0
 21
9.0
 12
0.0
 22
0.0
 32
0.0
 14
0.0
 24
0.0
 34
0.0
 15
0.0
 25
0.0
 35
0.0
146
0.0
 13
0.0
 23
0.0
 33
0.0
 16
1.0
 26
0.0
 36
0.0
 17
0.0
 27
1.0
 37
0.0
 76
0
330
23
  0
DICTIONARY
  5
B5
100
AcDbDictionary
281
1
  3
DIMASSOC
350
B8
  3
HIDETEXT
350
B7
  0
DICTIONARYVAR
  5
B7
100
DictionaryVariables
280
0
  1
2
  0
DICTIONARYVAR
  5
B8
100
DictionaryVariables
280
0
  1
1
  0
DICTIONARY
  5
B6
100
AcDbDictionary
281
1
  3
Grid/DisplayGrid00
350
B9
  3
Grid/DisplayGrid01
350
BA
  3
Grid/DisplayGrid02
350
BB
  3
Grid/DisplayGrid03
350
BC
  3
Grid/GridSpacingX00
350
BD
  3
Grid/GridSpacingX01
350
BE
  3
Grid/GridSpacingX02
350
BF
  3
Grid/GridSpacingX03
350
C0
  3
Grid/GridSpacingY00
350
C1
  3
Grid/GridSpacingY01
350
C2
  3
Grid/GridSpacingY02
350
C3
  3
Grid/GridSpacingY03
350
C4
  3
Grid/IsometricGrid00
350
C5
  3
Grid/IsometricGrid01
350
C6
  3
Grid/IsometricGrid02
350
C7
  3
Grid/IsometricGrid03
350
C8
  3
Grid/IsometricProjection00
350
C9
  3
Grid/IsometricProjection01
350
CA
  3
Grid/IsometricProjection02
350
CB
  3
Grid/IsometricProjection03
350
CC
  3
Grid/MetaGridSpacingX00
350
CD
  3
Grid/MetaGridSpacingX01
350
CE
  3
Grid/MetaGridSpacingX02
350
CF
  3
Grid/MetaGridSpacingX03
350
D0
  3
Grid/MetaGridSpacingY00
350
D1
  3
Grid/MetaGridSpacingY01
350
D2
  3
Grid/MetaGridSpacingY02
350
D3
  3
Grid/MetaGridSpacingY03
350
D4
  3
MultiPageSettings/Columns
350
D5
  3
MultiPageSettings/GlueMarginsBottom
350
D6
  3
MultiPageSettings/GlueMarginsLeft
350
D7
  3
MultiPageSettings/GlueMarginsRight
350
D8
  3
MultiPageSettings/GlueMarginsTop
350
D9
  3
MultiPageSettings/PrintCropMarks
350
DA
  3
MultiPageSettings/Rows
350
DB
  3
PageSettings/OffsetX
350
DC
  3
PageSettings/OffsetY
350
DD
  3
PageSettings/PageOrientation
350
DE
  3
PageSettings/PaperHeight
350
DF
  3
PageSettings/PaperSizeName
350
E0
  3
PageSettings/PaperWidth
350
E1
  3
PageSettings/Scale
350
E2
  3
PageSettings/ShowPaperBorders
350
E3
  3
UnitSettings/PaperUnit
350
E4
  0
XRECORD
  5
B9
330
B6
100
AcDbXrecord
280
1
290
1
  0
XRECORD
  5
BA
330
B6
100
AcDbXrecord
280
1
290
1
  0
XRECORD
  5
BB
330
B6
100
AcDbXrecord
280
1
290
1
  0
XRECORD
  5
BC
330
B6
100
AcDbXrecord
280
1
290
1
  0
XRECORD
  5
BD
330
B6
100
AcDbXrecord
280
1
1000
auto
  0
XRECORD
  5
BE
330
B6
100
AcDbXrecord
280
1
1000
auto
  0
XRECORD
  5
BF
330
B6
100
AcDbXrecord
280
1
1000
auto
  0
XRECORD
  5
C0
330
B6
100
AcDbXrecord
280
1
1000
auto
  0
XRECORD
  5
C1
330
B6
100
AcDbXrecord
280
1
1000
auto
  0
XRECORD
  5
C2
330
B6
100
AcDbXrecord
280
1
1000
auto
  0
XRECORD
  5
C3
330
B6
100
AcDbXrecord
280
1
1000
auto
  0
XRECORD
  5
C4
330
B6
100
AcDbXrecord
280
1
1000
auto
  0
XRECORD
  5
C5
330
B6
100
AcDbXrecord
280
1
290
0
  0
XRECORD
  5
C6
330
B6
100
AcDbXrecord
280
1
290
0
  0
XRECORD
  5
C7
330
B6
100
AcDbXrecord
280
1
290
0
  0
XRECORD
  5
C8
330
B6
100
AcDbXrecord
280
1
290
0
  0
XRECORD
  5
C9
330
B6
100
AcDbXrecord
280
1
 90
0
  0
XRECORD
  5
CA
330
B6
100
AcDbXrecord
280
1
 90
0
  0
XRECORD
  5
CB
330
B6
100
AcDbXrecord
280
1
 90
0
  0
XRECORD
  5
CC
330
B6
100
AcDbXrecord
280
1
 90
0
  0
XRECORD
  5
CD
330
B6
100
AcDbXrecord
280
1
1000
auto
  0
XRECORD
  5
CE
330
B6
100
AcDbXrecord
280
1
1000
auto
  0
XRECORD
  5
CF
330
B6
100
AcDbXrecord
280
1
1000
auto
  0
XRECORD
  5
D0
330
B6
100
AcDbXrecord
280
1
1000
auto
  0
XRECORD
  5
D1
330
B6
100
AcDbXrecord
280
1
1000
auto
  0
XRECORD
  5
D2
330
B6
100
AcDbXrecord
280
1
1000
auto
  0
XRECORD
  5
D3
330
B6
100
AcDbXrecord
280
1
1000
auto
  0
XRECORD
  5
D4
330
B6
100
AcDbXrecord
280
1
1000
auto
  0
XRECORD
  5
D5
330
B6
100
AcDbXrecord
280
1
 90
1
  0
XRECORD
  5
D6
330
B6
100
AcDbXrecord
280
1
 40
10.0
  0
XRECORD
  5
D7
330
B6
100
AcDbXrecord
280
1
 40
10.0
  0
XRECORD
  5
D8
330
B6
100
AcDbXrecord
280
1
 40
10.0
  0
XRECORD
  5
D9
330
B6
100
AcDbXrecord
280
1
 40
10.0
  0
XRECORD
  5
DA
330
B6
100
AcDbXrecord
280
1
290
0
  0
XRECORD
  5
DB
330
B6
100
AcDbXrecord
280
1
 90
1
  0
XRECORD
  5
DC
330
B6
100
AcDbXrecord
280
1
 40
-10.7722038542000291
  0
XRECORD
  5
DD
330
B6
100
AcDbXrecord
280
1
 40
-70.0373769262859582
  0
XRECORD
  5
DE
330
B6
100
AcDbXrecord
280
1
1000
Portrait
  0
XRECORD
  5
DF
330
B6
100
AcDbXrecord
280
1
1000
152.4
  0
XRECORD
  5
E0
330
B6
100
AcDbXrecord
280
1
1000
Custom
  0
XRECORD
  5
E1
330
B6
100
AcDbXrecord
280
1
1000
619.6
  0
XRECORD
  5
E2
330
B6
100
AcDbXrecord
280
1
1000
1:1
  0
XRECORD
  5
E3
330
B6
100
AcDbXrecord
280
1
290
1
  0
XRECORD
  5
E4
330
B6
100
AcDbXrecord
280
1
 90
4
  0
ENDSEC
  0
EOF
